<svg width="135" height="48" viewBox="0 0 135 48" fill="none" xmlns="http://www.w3.org/2000/svg">
<path d="M17.9219 13.5542C17.2281 13.1277 16.3563 13.1136 15.6484 13.512C14.9406 13.9105 14.5 14.6605 14.5 15.4761V31.9761C14.5 32.7917 14.9406 33.5417 15.6484 33.9402C16.3563 34.3386 17.2281 34.3198 17.9219 33.898L31.4219 25.648C32.0922 25.2402 32.5 24.5136 32.5 23.7261C32.5 22.9386 32.0922 22.2167 31.4219 21.8042L17.9219 13.5542Z" fill="#4E517E"/>
<g clip-path="url(#clip0_1077_575)">
<path d="M85.2367 23.7252V2H87.0892H88.9417V23.7252V45.4505H87.0892H85.2367V23.7252ZM79.1739 23.5425V9.71588L81.1106 9.81743L83.0473 9.91898L83.1354 23.6447L83.2234 37.3697H81.1987H79.174L79.1739 23.5425ZM91.0431 23.644L91.1311 9.91831L93.0678 9.81676L95.0045 9.71521V23.5418V37.3683H92.9798H90.9551L91.0431 23.644ZM67.3852 23.7252V13.7888H69.2377H71.0902V23.7252V33.6617H69.2377H67.3852V23.7252ZM97.0254 23.7252V15.7934H99.0526H101.08L100.989 23.6244L100.899 31.4553L98.9622 31.5569L97.0254 31.6584V23.7252ZM114.877 23.7252V15.7934H116.904H118.931L118.841 23.6244L118.75 31.4553L116.814 31.5569L114.877 31.6584L114.877 23.7252ZM61.3224 23.7252V17.8312H63.3433H65.3642V23.7252V29.62H63.3433H61.3224V23.7252ZM73.1111 23.7252V17.8312H75.1321H77.153V23.7252V29.62H75.1321H73.1111V23.7252ZM103.088 23.7252V17.8312H104.941H106.793V23.7252V29.62H104.941H103.088V23.7252ZM120.94 23.7252V18.8413H122.792H124.645V23.7252V28.6092H122.792H120.94V23.7252ZM55.2596 23.7252V19.8521H57.2805H59.3015V23.7252V27.5984H57.2805H55.2596V23.7252ZM108.814 23.7252V19.8521H110.835H112.856V23.7252V27.5984H110.835H108.814V23.7252ZM49.601 23.644L49.702 21.7071H51.3861H53.0703L53.1713 23.644L53.2723 25.5809H51.3861H49.5L49.601 23.644ZM126.733 23.644L126.834 21.7071H128.687H130.539L130.64 23.644L130.741 25.5809H128.687H126.632L126.733 23.644Z" fill="#4E517E"/>
</g>
<defs>
<clipPath id="clip0_1077_575">
<rect width="82" height="47.4505" fill="white" transform="translate(48.5)"/>
</clipPath>
</defs>
</svg>
