<svg width="111" height="19" viewBox="0 0 111 19" fill="none" xmlns="http://www.w3.org/2000/svg">
<path d="M1 4.24997L1 16.25" stroke="black" stroke-linecap="round"/>
<path d="M10.0204 4.24997L10.0204 16.25" stroke="black" stroke-linecap="round"/>
<path d="M3.81885 1.24997L3.81885 17.75" stroke="black" stroke-linecap="round"/>
<path d="M7.20129 1.24997L7.20129 17.75" stroke="black" stroke-linecap="round"/>
<path d="M13.4028 4.24997L13.4028 16.25" stroke="black" stroke-linecap="round"/>
<path d="M22.4227 4.24997L22.4227 16.25" stroke="black" stroke-linecap="round"/>
<path d="M16.222 1.24997L16.222 17.75" stroke="black" stroke-linecap="round"/>
<path d="M19.6041 1.24997L19.6041 17.75" stroke="black" stroke-linecap="round"/>
<path d="M25.806 4.24997L25.806 16.25" stroke="black" stroke-linecap="round"/>
<path d="M34.8258 4.24997L34.8258 16.25" stroke="black" stroke-linecap="round"/>
<path d="M28.6245 1.24997L28.6245 17.75" stroke="black" stroke-linecap="round"/>
<path d="M32.0073 1.24997L32.0073 17.75" stroke="black" stroke-linecap="round"/>
<path d="M63.0145 4.24997L63.0145 16.25" stroke="black" stroke-linecap="round"/>
<path d="M72.0352 4.24997L72.0352 16.25" stroke="black" stroke-linecap="round"/>
<path d="M65.8339 1.24997L65.8339 17.75" stroke="black" stroke-linecap="round"/>
<path d="M69.2163 1.24997L69.2163 17.75" stroke="black" stroke-linecap="round"/>
<path d="M75.4182 4.24997L75.4182 16.25" stroke="black" stroke-linecap="round"/>
<path d="M84.4383 4.24997L84.4383 16.25" stroke="black" stroke-linecap="round"/>
<path d="M78.237 1.24997L78.237 17.75" stroke="black" stroke-linecap="round"/>
<path d="M81.6191 1.24997L81.6191 17.75" stroke="black" stroke-linecap="round"/>
<path d="M87.8202 4.24997L87.8202 16.25" stroke="black" stroke-linecap="round"/>
<path d="M96.8411 4.24997L96.8411 16.25" stroke="black" stroke-linecap="round"/>
<path d="M90.6401 1.24997L90.6401 17.75" stroke="black" stroke-linecap="round"/>
<path d="M94.0223 1.24997L94.0223 17.75" stroke="black" stroke-linecap="round"/>
<path d="M100.98 4.24997L100.98 16.25" stroke="black" stroke-linecap="round"/>
<path d="M110 4.24997L110 16.25" stroke="black" stroke-linecap="round"/>
<path d="M103.799 1.24997L103.799 17.75" stroke="black" stroke-linecap="round"/>
<path d="M107.181 1.24997L107.181 17.75" stroke="black" stroke-linecap="round"/>
<path d="M50.6119 4.24997L50.6119 16.25" stroke="black" stroke-linecap="round"/>
<path d="M59.6326 4.24997L59.6326 16.25" stroke="black" stroke-linecap="round"/>
<path d="M53.4308 1.24997L53.4308 17.75" stroke="black" stroke-linecap="round"/>
<path d="M56.8135 1.24997L56.8135 17.75" stroke="black" stroke-linecap="round"/>
<path d="M38.2091 4.24997L38.2091 16.25" stroke="black" stroke-linecap="round"/>
<path d="M47.2295 4.24997L47.2295 16.25" stroke="black" stroke-linecap="round"/>
<path d="M41.0276 1.24997L41.0276 17.75" stroke="black" stroke-linecap="round"/>
<path d="M44.4106 1.24997L44.4106 17.75" stroke="black" stroke-linecap="round"/>
</svg>
