<svg width="24" height="25" viewBox="0 0 24 25" fill="none" xmlns="http://www.w3.org/2000/svg">
<path d="M10.5844 22.4487L10.4672 22.3409L2.25469 14.7144C0.815625 13.3784 0 11.5034 0 9.53936V9.38467C0 6.08467 2.34375 3.25342 5.5875 2.63467C7.43437 2.27842 9.32344 2.70498 10.8281 3.76436C11.25 4.06436 11.6438 4.41123 12 4.80967C12.1969 4.58467 12.4078 4.37842 12.6328 4.18623C12.8062 4.03623 12.9844 3.89561 13.1719 3.76436C14.6766 2.70498 16.5656 2.27842 18.4125 2.62998C21.6562 3.24873 24 6.08467 24 9.38467V9.53936C24 11.5034 23.1844 13.3784 21.7453 14.7144L13.5328 22.3409L13.4156 22.4487C13.0313 22.805 12.525 23.0065 12 23.0065C11.475 23.0065 10.9688 22.8097 10.5844 22.4487ZM11.2078 7.29873C11.1891 7.28467 11.175 7.26592 11.1609 7.24717L10.3266 6.30967L10.3219 6.30498C9.23906 5.09092 7.60312 4.5378 6.00937 4.84248C3.825 5.25967 2.25 7.1628 2.25 9.38467V9.53936C2.25 10.8753 2.80781 12.155 3.7875 13.0644L12 20.6909L20.2125 13.0644C21.1922 12.155 21.75 10.8753 21.75 9.53936V9.38467C21.75 7.16748 20.175 5.25967 17.9953 4.84248C16.4016 4.5378 14.7609 5.09561 13.6828 6.30498C13.6828 6.30498 13.6828 6.30498 13.6781 6.30967C13.6734 6.31436 13.6781 6.30967 13.6734 6.31436L12.8391 7.25186C12.825 7.27061 12.8062 7.28467 12.7922 7.30342C12.5812 7.51436 12.2953 7.63155 12 7.63155C11.7047 7.63155 11.4188 7.51436 11.2078 7.30342V7.29873Z" fill="#0281A1"/>
</svg>
