<svg width="17" height="12" viewBox="0 0 17 12" fill="none" xmlns="http://www.w3.org/2000/svg">
  <path d="M16.75 6C16.75 6 13.75 0.5 8.75 0.5C3.75 0.5 0.75 6 0.75 6C0.75 6 3.75 11.5 8.75 11.5C13.75 11.5 16.75 6 16.75 6ZM1.9227 6C1.97963 5.91321 2.04454 5.81677 2.11727 5.71242C2.45216 5.23193 2.94631 4.5929 3.58211 3.95711C4.87103 2.66818 6.63062 1.5 8.75 1.5C10.8694 1.5 12.629 2.66818 13.9179 3.95711C14.5537 4.5929 15.0478 5.23193 15.3827 5.71242C15.4555 5.81677 15.5204 5.91321 15.5773 6C15.5204 6.08679 15.4555 6.18323 15.3827 6.28758C15.0478 6.76807 14.5537 7.4071 13.9179 8.04289C12.629 9.33182 10.8694 10.5 8.75 10.5C6.63062 10.5 4.87103 9.33182 3.58211 8.04289C2.94631 7.4071 2.45216 6.76807 2.11727 6.28758C2.04454 6.18323 1.97963 6.08679 1.9227 6Z" fill="#0281A1"/>
  <path d="M8.75 3.5C7.36929 3.5 6.25 4.61929 6.25 6C6.25 7.38071 7.36929 8.5 8.75 8.5C10.1307 8.5 11.25 7.38071 11.25 6C11.25 4.61929 10.1307 3.5 8.75 3.5ZM5.25 6C5.25 4.067 6.817 2.5 8.75 2.5C10.683 2.5 12.25 4.067 12.25 6C12.25 7.933 10.683 9.5 8.75 9.5C6.817 9.5 5.25 7.933 5.25 6Z" fill="#0281A1"/>
</svg>
