<svg width="93" height="93" viewBox="0 0 93 93" fill="none" xmlns="http://www.w3.org/2000/svg">
<rect x="0.5" y="0.5" width="92" height="92" rx="46" fill="#4E517E"/>
<path d="M51.2189 26.5362L49.7681 29.4376C49.7326 29.5086 49.6752 29.5661 49.6042 29.6016L46.7028 31.0523C46.4324 31.1874 46.4324 31.5731 46.7028 31.7082L49.6042 33.1589C49.6752 33.1944 49.7326 33.252 49.7681 33.3229L51.2189 36.2244C51.354 36.4946 51.7397 36.4946 51.8748 36.2244L53.3255 33.3229C53.3609 33.252 53.4185 33.1944 53.4894 33.1589L56.3909 31.7082C56.6611 31.5731 56.6611 31.1874 56.3909 31.0523L53.4894 29.6016C53.4185 29.5661 53.3609 29.5086 53.3255 29.4376L51.8748 26.5362C51.7397 26.2659 51.354 26.2659 51.2189 26.5362Z" fill="white"/>
<path d="M59.7766 33.7991L58.3492 38.0816C58.3127 38.1911 58.2267 38.277 58.1173 38.3135L53.8348 39.741C53.5004 39.8524 53.5004 40.3253 53.8348 40.4367L58.1173 41.8642C58.2267 41.9007 58.3127 41.9866 58.3492 42.0961L59.7766 46.3786C59.8881 46.7128 60.3609 46.7128 60.4724 46.3786L61.8998 42.0961C61.9365 41.9866 62.0223 41.9007 62.1317 41.8642L66.4144 40.4367C66.7486 40.3253 66.7486 39.8524 66.4144 39.741L62.1317 38.3135C62.0223 38.277 61.9365 38.1911 61.8998 38.0816L60.4724 33.7991C60.3609 33.4648 59.8881 33.4648 59.7766 33.7991Z" fill="white"/>
<path fill-rule="evenodd" clip-rule="evenodd" d="M43.5801 49.5512C48.7635 54.7346 56.8611 55.1834 62.3839 50.8457C62.4522 50.792 62.5203 50.7375 62.5879 50.6824C62.8435 50.4737 63.0932 50.2546 63.3365 50.0249C63.4353 49.9318 63.533 49.837 63.6296 49.7404C64.5685 48.8014 66.4947 49.3561 66.2111 50.6532C66.1132 51.1015 65.9999 51.5449 65.872 51.9827C65.7961 52.2423 65.715 52.5001 65.6289 52.7559C65.6054 52.8255 65.5814 52.8954 65.5572 52.9649C62.8121 60.8262 55.2788 66.6674 46.4997 66.6674C35.3619 66.6674 26.333 57.6384 26.333 46.5007C26.333 37.5776 32.3663 29.9682 40.3926 27.3281L40.4909 27.2961C40.6669 27.2392 40.8439 27.1847 41.0218 27.1326C41.4939 26.9943 41.9724 26.8732 42.4566 26.7698C43.8192 26.4789 44.3763 28.5165 43.3909 29.5018C43.2932 29.5995 43.1973 29.6984 43.1031 29.7983C42.9166 29.9961 42.7371 30.198 42.5644 30.4039C42.5266 30.449 42.4891 30.4944 42.4519 30.5399C37.9374 36.0656 38.3314 44.3024 43.5801 49.5512ZM40.9874 52.1439C45.9951 57.1516 53.2324 58.655 59.4929 56.5272C56.4512 60.4379 51.7247 63.0007 46.4997 63.0007C37.387 63.0007 29.9997 55.6135 29.9997 46.5007C29.9997 41.1681 32.67 36.3648 36.7107 33.334C34.4284 39.6631 35.8982 47.0547 40.9874 52.1439Z" fill="white"/>
</svg>
