<svg width="27" height="24" viewBox="0 0 27 24" fill="none" xmlns="http://www.w3.org/2000/svg">
<g clip-path="url(#clip0_1384_766)">
<path d="M11.8734 1.64532C12.1594 1.09219 11.9438 0.412507 11.3953 0.12657C10.8469 -0.159368 10.1625 0.0562572 9.87656 0.604695L5.5125 9.00001H1.5C0.670312 9.00001 0 9.67032 0 10.5C0 11.3297 0.670312 12 1.5 12L3.93281 21.7266C4.26562 23.0625 5.46562 24 6.84375 24H20.1562C21.5344 24 22.7344 23.0625 23.0672 21.7266L25.5 12C26.3297 12 27 11.3297 27 10.5C27 9.67032 26.3297 9.00001 25.5 9.00001H21.4875L17.1234 0.604695C16.8375 0.0562572 16.1578 -0.159368 15.6047 0.12657C15.0516 0.412507 14.8406 1.09219 15.1266 1.64532L18.9516 9.00001H8.04844L11.8734 1.64532ZM9 14.25V18.75C9 19.1625 8.6625 19.5 8.25 19.5C7.8375 19.5 7.5 19.1625 7.5 18.75V14.25C7.5 13.8375 7.8375 13.5 8.25 13.5C8.6625 13.5 9 13.8375 9 14.25ZM13.5 13.5C13.9125 13.5 14.25 13.8375 14.25 14.25V18.75C14.25 19.1625 13.9125 19.5 13.5 19.5C13.0875 19.5 12.75 19.1625 12.75 18.75V14.25C12.75 13.8375 13.0875 13.5 13.5 13.5ZM19.5 14.25V18.75C19.5 19.1625 19.1625 19.5 18.75 19.5C18.3375 19.5 18 19.1625 18 18.75V14.25C18 13.8375 18.3375 13.5 18.75 13.5C19.1625 13.5 19.5 13.8375 19.5 14.25Z" fill="#403A34"/>
</g>
<defs>
<clipPath id="clip0_1384_766">
<rect width="27" height="24" fill="white"/>
</clipPath>
</defs>
</svg>
