<svg width="30" height="30" viewBox="0 0 30 30" fill="none" xmlns="http://www.w3.org/2000/svg">
<path d="M9.60504 22.4163C10.629 22.4163 11.4591 23.2464 11.4591 24.2703C11.4591 25.2943 10.629 26.1244 9.60504 26.1244C8.58107 26.1244 7.75098 25.2943 7.75098 24.2703C7.75098 23.2464 8.58107 22.4163 9.60504 22.4163Z" stroke="#2E2E2E" stroke-width="1.85406"/>
<path d="M20.7281 22.4163C21.752 22.4163 22.5822 23.2463 22.5822 24.2703C22.5822 25.2943 21.752 26.1244 20.7281 26.1244C19.7041 26.1244 18.874 25.2943 18.874 24.2703C18.874 23.2463 19.7041 22.4163 20.7281 22.4163Z" stroke="#2E2E2E" stroke-width="1.85406"/>
<path d="M2.80762 3.87573L3.13048 3.98925C4.73931 4.55488 5.54372 4.8377 6.00383 5.51099C6.46393 6.1843 6.46393 7.07864 6.46393 8.86732V12.2314C6.46393 15.8673 6.5421 17.0672 7.61301 18.1968C8.68392 19.3263 10.4075 19.3263 13.8548 19.3263H15.168M20.4094 19.3263C22.3388 19.3263 23.3036 19.3263 23.9855 18.7705C24.6674 18.2148 24.8622 17.27 25.2517 15.3802L25.8695 12.3831C26.2985 10.2336 26.5129 9.15879 25.9643 8.44548C25.4156 7.73219 23.5408 7.73219 21.458 7.73219H13.9611M6.46393 7.73219H8.98783" stroke="#2E2E2E" stroke-width="1.85406" stroke-linecap="round"/>
</svg>
