<svg width="92" height="92" viewBox="0 0 92 92" fill="none" xmlns="http://www.w3.org/2000/svg">
<rect width="92" height="92" rx="46" fill="#4E517E"/>
<path d="M46 42.8V62M46 42.8C46 38.3196 46 36.0794 45.128 34.3681C44.361 32.8628 43.1372 31.6389 41.6319 30.8719C39.9206 30 37.6804 30 33.2 30H31.2C30.0799 30 29.5198 30 29.092 30.218C28.7157 30.4097 28.4097 30.7157 28.218 31.092C28 31.5198 28 32.0799 28 33.2V54.8C28 55.9202 28 56.4802 28.218 56.908C28.4097 57.2844 28.7157 57.5902 29.092 57.782C29.5198 58 30.0799 58 31.2 58H37.0934C38.1737 58 38.7139 58 39.2363 58.0932C39.6999 58.1758 40.1522 58.3126 40.5838 58.5012C41.0701 58.7134 41.5195 59.013 42.4184 59.6124L46 62M46 42.8C46 38.3196 46 36.0794 46.872 34.3681C47.639 32.8628 48.8628 31.6389 50.368 30.8719C52.0794 30 54.3196 30 58.8 30H60.8C61.9202 30 62.4802 30 62.908 30.218C63.2844 30.4097 63.5902 30.7157 63.782 31.092C64 31.5198 64 32.0799 64 33.2V54.8C64 55.9202 64 56.4802 63.782 56.908C63.5902 57.2844 63.2844 57.5902 62.908 57.782C62.4802 58 61.9202 58 60.8 58H54.9066C53.8262 58 53.286 58 52.7638 58.0932C52.3 58.1758 51.8478 58.3126 51.4162 58.5012C50.93 58.7134 50.4804 59.013 49.5816 59.6124L46 62" stroke="white" stroke-width="4" stroke-linecap="round" stroke-linejoin="round"/>
</svg>
