<svg width="77" height="91" viewBox="0 0 77 91" fill="none" xmlns="http://www.w3.org/2000/svg">
<g clip-path="url(#clip0_2001_2441)">
<path d="M76.2401 79.3404C63.2801 55.3004 68.1801 27.4404 67.4901 1.32042C67.4801 0.760424 67.0301 0.270424 66.4501 0.280424C47.4501 0.520424 28.3801 0.370424 9.40006 1.31042C8.48006 1.36042 8.47006 2.72042 9.40006 2.74042C21.5701 3.04042 33.7501 2.74042 45.9201 2.60042C48.9601 2.56042 52.0101 2.53042 55.0501 2.49042C56.8201 2.47042 62.7901 1.42042 64.1801 2.38042C67.3601 4.56042 65.4401 15.4004 65.3501 19.0904C64.8401 39.9704 64.2601 61.4504 74.4601 80.3804C74.5401 80.5304 74.6401 80.6404 74.7401 80.7204C62.6101 82.2904 50.4601 83.7704 38.3001 85.1204C32.0001 85.8204 25.6901 86.4904 19.3801 87.1304C16.0801 87.4604 12.1701 88.5204 9.71006 85.3904C7.93006 83.1304 7.13006 78.1604 6.41006 75.4304C0.0200567 51.2004 4.71006 27.2104 8.75006 3.09042C8.89006 2.24042 7.68006 1.86042 7.43006 2.73042C0.390057 27.4404 -2.23994 56.1504 5.84006 80.9004C6.94006 84.2604 7.88006 88.5604 11.7201 89.6104C16.6601 90.9604 24.3201 88.6904 29.3701 88.1604C44.5801 86.5404 59.7701 84.7404 74.9401 82.7704C75.9901 82.6304 76.1901 81.2804 75.5501 80.8404C76.1301 80.6604 76.5901 80.0304 76.2201 79.3404H76.2401Z" fill="#0281A1"/>
<path d="M54.1601 20.4404C53.4001 18.8804 52.6201 17.3404 51.8401 15.7904C52.0201 15.7604 52.2001 15.7504 52.3801 15.7204C53.1401 15.5704 52.9301 14.4204 52.2001 14.4004C51.8601 14.4004 51.5101 14.4204 51.1601 14.4304C50.0701 12.2804 48.9801 10.1304 47.8901 7.98041C47.5101 7.22041 46.4401 7.50041 46.1901 8.20041C45.4001 10.4904 44.7201 12.8204 44.2001 15.1804C43.9801 15.2104 43.7501 15.2404 43.5301 15.2704C42.8901 15.3404 42.8601 16.3304 43.5301 16.3004C43.6801 16.3004 43.8301 16.3004 43.9701 16.2904C43.6701 17.8104 43.4401 19.3504 43.3101 20.9104C43.2501 21.6204 44.4201 21.7804 44.5601 21.0804C44.8701 19.4504 45.2201 17.8404 45.6201 16.2404C47.0101 16.2104 48.4201 16.1704 49.8101 16.0604C50.7001 17.8504 51.6001 19.6404 52.5101 21.4304C53.0701 22.5304 54.6901 21.5604 54.1501 20.4704L54.1601 20.4404ZM45.9601 14.9404C46.3401 13.5504 46.7401 12.1604 47.2201 10.7904C47.8401 12.0404 48.4601 13.3004 49.0801 14.5504C48.0401 14.6604 47.0001 14.7904 45.9601 14.9404Z" fill="#0281A1"/>
<path d="M60.8901 10.9204C59.5601 10.9004 58.1901 10.8804 56.8201 10.9104C56.6601 9.9404 56.5001 8.9704 56.3501 8.0104C56.2601 7.4004 55.2201 7.5404 55.2701 8.1604C55.3501 9.0904 55.4101 10.0304 55.4701 10.9704C54.5201 11.0104 53.5701 11.0804 52.6601 11.2004C52.2101 11.2604 52.2101 12.0404 52.6601 12.1004C53.6101 12.2304 54.5901 12.2904 55.5701 12.3304C55.6601 13.5304 55.7701 14.7304 55.9501 15.9204C56.0701 16.7804 57.5401 16.5804 57.4701 15.7104C57.3701 14.6004 57.2201 13.4904 57.0501 12.3804C58.3401 12.4004 59.6401 12.3804 60.8901 12.3604C61.8201 12.3504 61.8201 10.9304 60.8901 10.9204Z" fill="#0281A1"/>
<path d="M56.3002 35.1604C46.7202 34.5104 36.9702 34.8404 27.3802 35.1604C25.1502 35.2304 22.9302 35.3204 20.7102 35.4304C19.2102 35.5104 15.4102 35.0104 14.0402 35.8504C13.1202 36.4204 13.0502 35.8404 12.6202 36.9404C12.5402 37.1404 12.6802 37.3304 12.8202 37.4404C12.9402 37.5304 13.0602 37.6204 13.1802 37.7104C13.3002 37.8004 13.5602 37.7704 13.6602 37.6504C13.7302 37.5604 13.8002 37.4704 13.8702 37.3804C13.9902 37.2204 13.9802 37.0504 13.8902 36.9304C14.9102 37.0204 17.0802 37.1704 17.3802 37.1604C19.2302 37.1204 21.0902 37.0804 22.9402 37.0404C26.6502 36.9604 30.3502 36.9004 34.0602 36.8704C41.4702 36.8204 48.9002 37.1404 56.3102 37.0104C57.5202 36.9904 57.5002 35.2304 56.3102 35.1504L56.3002 35.1604Z" fill="#0281A1"/>
<path d="M55.6801 46.6404C41.4101 45.8204 26.4801 46.8204 12.2701 48.2204C11.5701 48.2904 11.5301 49.3604 12.2701 49.3404C26.7101 48.9204 41.2601 49.0704 55.6801 48.4004C56.8101 48.3504 56.8101 46.7104 55.6801 46.6404Z" fill="#0281A1"/>
<path d="M58.5701 58.1204C44.3501 58.5504 29.9001 59.6304 15.7401 61.0604C15.1401 61.1204 15.1101 62.0204 15.7401 62.0104C29.9501 61.7804 44.4101 61.1704 58.5701 59.9404C59.7201 59.8404 59.7601 58.0804 58.5701 58.1204Z" fill="#0281A1"/>
<path d="M55.1001 72.1104C40.9201 72.6304 26.6601 73.9504 12.6801 76.4304C12.1001 76.5304 12.2201 77.5503 12.8201 77.4803C26.8901 75.6803 40.9101 74.3604 55.1001 73.9004C56.2401 73.8604 56.2501 72.0803 55.1001 72.1203V72.1104Z" fill="#0281A1"/>
<path d="M66.0901 77.5404C62.7701 77.8004 59.4201 78.4304 56.1401 78.9704C55.6501 79.0504 55.7601 79.8904 56.2601 79.8504C59.5801 79.5604 62.9801 79.3304 66.2601 78.7604C66.9401 78.6404 66.7901 77.4904 66.1001 77.5404H66.0901Z" fill="#0281A1"/>
<path d="M66.1001 74.6603C63.8301 74.5103 61.4301 74.7103 59.1501 74.8203C58.5101 74.8503 58.5001 75.7903 59.1501 75.8203C61.4201 75.9303 63.8301 76.1303 66.1001 75.9803C66.9501 75.9203 66.9501 74.7203 66.1001 74.6603Z" fill="#0281A1"/>
<path d="M22.1001 5.25043C18.8001 4.93043 15.3701 5.38043 12.1301 5.97043C11.4601 6.09043 11.7501 7.09043 12.4101 6.99043C15.6601 6.48043 18.8301 6.51043 22.1001 6.47043C22.8901 6.46043 22.8601 5.33043 22.1001 5.26043V5.25043Z" fill="#0281A1"/>
<path d="M24.9901 6.88042C21.5301 7.00042 18.0201 7.34042 14.5801 7.69042C13.9501 7.76042 13.9201 8.72042 14.5801 8.70042C18.0301 8.61042 21.5601 8.50042 24.9901 8.17042C25.8001 8.09042 25.8401 6.85042 24.9901 6.88042Z" fill="#0281A1"/>
</g>
<defs>
<clipPath id="clip0_2001_2441">
<rect width="75.51" height="89.75" fill="white" transform="translate(0.860107 0.280396)"/>
</clipPath>
</defs>
</svg>
