<svg width="132" height="135" viewBox="0 0 132 135" fill="none" xmlns="http://www.w3.org/2000/svg">
<g clip-path="url(#clip0_2001_2428)">
<path d="M79.0662 49.7441C82.4916 49.7625 88.3186 55.5184 87.9063 60.3513C87.7715 61.9194 86.3738 63.735 85.0262 64.7411C83.2799 66.0498 82.9988 67.1939 83.6286 69.1661C84.9219 73.2249 86.2952 77.3125 87.0117 81.4896C87.5829 84.8313 87.5885 88.3703 87.1875 91.7372C86.8459 94.6129 84.6796 96.4934 81.7693 97.3029C78.9619 98.0837 76.9147 96.9857 75.3039 94.75C74.7317 93.9583 74.0373 93.235 73.5775 92.3848C71.6439 88.811 68.6959 86.7821 64.6486 86.4433C59.5116 86.0141 54.3506 85.2152 49.2467 85.4445C46.4542 85.5703 43.8653 87.6388 42.1849 90.0289C40.6678 90.5362 39.1507 91.0434 36.8662 91.8073C39.871 93.074 42.0606 94.0005 44.256 94.9249C43.6131 93.4712 42.9785 92.0411 42.3458 90.607C42.7057 90.3642 43.0656 90.1213 43.4255 89.8785C44.7896 91.1611 46.1244 92.4736 47.5236 93.7143C52.9024 98.4835 58.3925 103.135 63.6365 108.05C64.9378 109.268 65.5423 111.272 66.297 112.985C66.7251 113.962 66.8116 115.083 67.0823 116.283C66.6719 116.365 66.0119 116.501 65.3478 116.636C65.4553 117.233 65.5562 117.792 65.6744 118.437C63.0939 118.749 60.6727 119.192 58.2361 119.308C52.1843 119.594 48.2691 115.513 44.1216 112.056C39.0604 107.838 35.3979 102.456 32.0069 96.9026C31.3013 95.7423 30.8673 94.4191 30.2329 92.9989C28.5328 92.677 26.4384 92.5567 24.5453 91.8767C17.0154 89.1817 14.0479 83.0184 12.5131 75.8265C10.0088 64.0801 19.0235 57.6983 28.1865 55.42C35.4698 53.6108 42.2724 50.7697 47.3682 44.95C48.0083 44.2198 48.5278 43.289 49.3171 42.7927C52.9781 40.4923 53.5214 37.5474 52.9087 33.2684C52.019 27.0653 57.2028 24.1231 63.02 26.5734C67.8917 28.6253 70.3471 32.5937 72.5635 36.9027C74.6422 40.944 76.6815 45.0055 79.08 49.7361L79.0662 49.7441ZM15.4766 72.6149C15.454 73.8792 15.4314 75.1435 15.4143 76.0181C17.1468 76.3753 18.5463 76.4488 19.7799 76.9473C24.8967 79.0245 29.9579 81.227 35.0422 83.3817C37.0054 84.2134 38.9705 85.0411 40.9356 85.8689C41.0676 85.555 41.1996 85.2412 41.3297 84.9313C40.2739 84.4845 39.2429 83.9663 38.1588 83.6088C30.1002 80.9328 22.5548 77.1955 15.4054 72.6393C16.3662 71.2255 17.4597 71.7886 18.6606 72.3547C25.9987 75.825 33.3481 79.2615 40.7073 82.6881C41.2967 82.9633 41.9685 83.0577 42.5981 83.2396L42.8807 82.6552C42.1254 82.2115 41.4047 81.6962 40.6111 81.3418C33.1747 78.0545 25.725 74.8049 18.3002 71.5036C17.685 71.2306 17.229 70.6079 16.5347 70.0072C17.1637 69.6787 17.4495 69.4049 17.5978 69.4668C25.2094 72.6476 32.8076 75.8562 40.4078 79.0609C33.3112 75.1629 25.9605 71.7699 18.9166 67.8141C19.1361 67.3807 19.3497 66.9494 19.5691 66.516C26.2718 69.8164 32.9764 73.1127 39.6831 76.415C39.8322 76.1683 39.9831 75.9176 40.1321 75.6708C39.2688 75.0718 38.4689 74.3417 37.5326 73.9036C32.1118 71.3703 26.6449 68.9325 21.222 66.3933C20.4762 66.0424 19.8953 65.3299 19.2378 64.7863C19.3828 64.5376 19.5318 64.2909 19.6788 64.0382C22.6094 65.274 25.5361 66.5079 28.4668 67.7438C31.4555 69.0028 34.4423 70.2657 37.4351 71.5267C36.9432 70.5384 36.2023 69.8907 35.3407 69.5133C31.6578 67.8989 27.9231 66.4018 24.2479 64.7716C23.3602 64.3766 22.6355 63.6239 21.836 63.0362C22.0162 62.7555 22.2024 62.4728 22.3827 62.1921C26.6736 64.0024 30.9604 65.8107 35.2513 67.6209C35.3909 67.404 35.5344 67.1889 35.674 66.9719C35.2529 66.5329 34.907 65.9487 34.3914 65.6846C31.6186 64.2554 28.7163 63.0529 26.0287 61.4883C23.542 60.0405 21.3909 60.6923 19.8012 62.4445C18.0065 64.4263 16.5845 66.804 15.3435 69.1859C14.8849 70.0726 15.4055 71.4623 15.4807 72.6267L15.4766 72.6149ZM61.2784 28.517C60.1016 28.6787 58.5183 28.4427 57.8632 29.1118C57.1416 29.8467 56.9635 31.4429 57.0925 32.6088C57.7364 38.389 57.9589 44.3038 59.4527 49.8819C61.81 58.6782 64.6772 67.3924 68.075 75.8483C70.1964 81.1315 73.5908 85.9416 76.6678 90.8041C77.2031 91.6516 79.2612 92.328 80.2202 91.9924C83.4 90.8816 84.983 87.7822 84.5083 84.3842C84.3004 82.9005 83.8939 81.4287 83.4541 79.9947C81.3985 73.2964 79.5465 66.5249 77.1527 59.9427C74.2188 51.8681 70.9682 43.8954 67.554 36.0055C66.3186 33.1469 64.7983 30.1408 61.2724 28.519L61.2784 28.517ZM67.2563 84.0798C62.826 70.2788 58.3432 56.3101 53.7746 42.089C47.7803 47.8224 42.6978 55.1395 32.854 56.6766C35.8784 60.42 36.7802 64.9712 41.5419 66.7492C41.3858 66.9287 41.2257 67.1063 41.0696 67.2859C40.3783 67.344 39.6831 67.4001 38.9919 67.4582C38.9194 67.639 38.8428 67.8177 38.7722 67.9945C40.3552 68.9268 41.9422 69.861 44.1841 71.1807C42.6967 71.5649 41.8946 71.7705 41.1222 71.9659C42.4775 74.5048 43.8123 77.0043 44.9994 79.2361C45.1231 80.2083 45.0059 81.1669 45.4066 81.8119C45.7031 82.2937 46.6625 82.5713 47.337 82.5885C49.5517 82.6443 51.7882 82.3378 53.9854 82.5323C58.581 82.9449 63.1527 83.5912 67.2563 84.0798ZM32.8291 93.1459C34.2451 95.2727 35.3654 97.0799 36.6192 98.785C37.2136 99.5923 37.9507 100.493 38.8299 100.855C44.8565 103.333 50.9406 105.681 57.0071 108.056C57.5777 108.278 58.1847 108.415 58.7724 108.591C58.8523 108.375 58.9342 108.154 59.0141 107.938C57.7028 107.314 56.4219 106.606 55.0744 106.077C50.5916 104.326 46.0613 102.704 41.609 100.879C40.5756 100.458 39.7847 99.433 38.8831 98.6879C39.0793 98.4051 39.2754 98.1223 39.4716 97.8395C43.7825 99.6595 48.0913 101.474 52.4022 103.293C48.7311 101.194 44.8732 99.5837 41.0326 97.9372C38.5984 96.8925 35.6673 96.3431 35.8645 92.6814C34.7812 92.8442 33.9996 92.9665 32.831 93.1419L32.8291 93.1459ZM81.4829 63.2679C81.8268 63.3753 82.1727 63.4788 82.5126 63.5843C83.3792 62.4781 84.7803 61.4635 84.9965 60.2389C85.4413 57.7024 81.5241 53.032 78.1812 52.2393C79.3506 56.145 80.4128 59.7094 81.477 63.2699L81.4829 63.2679ZM16.2912 78.0215C18.163 85.7344 22.8608 89.517 30.9878 89.7393C27.1049 88.4158 23.7521 86.9169 20.8128 84.696C20.9431 84.3961 21.0773 84.098 21.2075 83.798C25.0717 85.4265 28.9379 87.0608 32.8021 88.6892C32.8898 88.4668 32.9757 88.2483 33.0634 88.0259C32.2581 87.6855 31.3693 87.4666 30.6571 86.9848C25.9741 83.847 19.4405 83.6351 16.2932 78.0175L16.2912 78.0215ZM43.6903 107.924C43.8374 107.681 43.9865 107.434 44.1295 107.189C45.3023 107.261 46.5955 107.043 47.6346 107.452C52.8188 109.513 57.9381 111.739 63.0784 113.911C63.217 113.634 63.3615 113.356 63.5 113.08C61.9019 110.889 58.9525 111.145 56.6914 110.223C54.1419 109.182 51.4433 108.5 48.8611 107.525C46.3469 106.574 43.8936 105.457 41.4116 104.408C41.3035 104.601 41.1932 104.788 41.0851 104.981C41.9509 105.964 42.8167 106.947 43.6825 107.93L43.6903 107.924ZM38.8454 87.3055C33.9796 85.2515 29.1079 83.1996 24.2421 81.1456C28.8745 83.7538 33.3825 86.6499 38.8454 87.3055ZM60.8772 115.965C60.9476 115.779 61.0221 115.594 61.0926 115.407C56.0986 113.301 51.1046 111.195 46.1147 109.091C46.0442 109.278 45.9737 109.464 45.9033 109.651C50.8932 111.755 55.8872 113.861 60.8772 115.965ZM26.5595 58.9787C26.4543 59.227 26.353 59.4773 26.2478 59.7255C28.6904 60.9166 31.1311 62.1117 33.5737 63.3028C33.6833 63.0762 33.7948 62.8456 33.9044 62.6191C31.4574 61.4063 29.0105 60.1935 26.5595 58.9787Z" fill="#0281A1"/>
<path d="M99.2282 35.5792C98.4571 36.5698 97.7864 37.6089 96.9235 38.462C96.5869 38.7897 95.6842 38.927 95.2966 38.7052C94.9853 38.5301 94.965 37.6718 94.9836 37.1216C95.0189 36.0254 95.0138 34.8899 95.3006 33.8466C95.8989 31.6885 96.5609 29.5317 97.4555 27.4875C97.695 26.9411 98.8737 26.54 99.5905 26.5826C99.9369 26.603 100.543 27.8573 100.468 28.4831C100.187 30.8439 99.6692 33.1734 99.2322 35.5811L99.2282 35.5792Z" fill="#0281A1"/>
<path d="M104.235 73.3195C104.065 73.0066 103.389 72.3069 103.533 71.9256C103.766 71.3319 104.601 70.5048 105.1 70.5594C108.441 70.9248 111.77 71.4308 115.07 72.0755C115.559 72.1697 116.126 73.2087 116.158 73.8276C116.176 74.1796 115.136 74.9571 114.646 74.8966C111.306 74.4877 107.982 73.9104 104.239 73.3214L104.235 73.3195Z" fill="#0281A1"/>
<path d="M115.088 50.2235C114.395 51.0017 114.211 51.3497 113.924 51.5147C111.989 52.5897 110.083 53.7377 108.052 54.6C107.442 54.8591 106.334 54.4702 105.733 54.0131C105.489 53.8315 105.758 52.274 106.197 52.0205C108.325 50.7932 110.54 49.6818 112.836 48.811C113.303 48.6344 114.247 49.6698 115.088 50.2235Z" fill="#0281A1"/>
</g>
<defs>
<clipPath id="clip0_2001_2428">
<rect width="96" height="103" fill="white" transform="translate(45.1405 0.235352) rotate(25.8089)"/>
</clipPath>
</defs>
</svg>
