<svg width="45" height="89" viewBox="0 0 45 89" fill="none" xmlns="http://www.w3.org/2000/svg">
<g clip-path="url(#clip0_2001_2433)">
<path d="M43.8051 70.9097C43.7451 70.6397 43.5851 70.4797 43.3951 70.3997C38.5351 52.6497 31.4651 35.2597 25.3351 17.9097C25.1851 17.4897 24.8651 17.2697 24.5151 17.2197C24.5751 15.6797 23.7651 14.2997 22.2251 13.5697C22.2251 13.5097 22.2351 13.4497 22.2251 13.3797C21.7451 10.9597 20.3651 9.90973 18.6051 9.61973C18.8651 9.43973 19.0251 9.12973 18.9051 8.72973C18.1551 6.17973 16.9351 2.18973 14.4451 0.78973C11.9251 -0.63027 7.6551 0.46973 5.1251 1.36973C2.8251 2.18973 0.575101 3.44973 0.265101 6.08973C-0.114899 9.30973 2.4251 12.1697 2.8751 15.2597C2.8951 15.3797 2.9451 15.4597 3.0151 15.5197C2.7651 15.8497 2.5451 16.1997 2.3951 16.5997C1.7451 18.3197 2.2851 20.0597 3.9051 20.8997C3.9651 20.9297 4.0251 20.9397 4.0851 20.9497C3.9851 21.1997 3.8751 21.4597 3.8151 21.7397C3.4051 23.6697 4.2551 25.2897 6.0451 26.0097C6.1051 26.0397 6.1651 26.0397 6.2251 26.0397C14.7951 42.6797 19.9651 61.1997 27.6251 78.2897C27.7251 78.5197 27.9151 78.6397 28.1251 78.6797C28.1451 78.7097 28.1551 78.7397 28.1751 78.7597C30.6151 81.2997 33.4951 83.3897 36.3951 85.3797C37.7951 86.3497 41.0351 89.4897 42.9851 88.2397C44.4951 87.2697 44.4351 84.0597 44.5951 82.4697C44.9851 78.5697 44.6551 74.7197 43.8151 70.8997L43.8051 70.9097ZM23.6251 19.6697C23.6251 19.6697 23.7051 19.6197 23.7451 19.5897C29.5351 36.0497 34.7551 53.0097 41.6151 69.0697C40.8451 68.6297 39.8451 68.5097 39.1251 68.9197C38.4451 69.2997 38.0951 69.8897 37.9551 70.5497C36.5951 68.2097 35.4051 65.8097 34.2951 63.3797C34.2751 63.2997 34.2751 63.2297 34.2551 63.1497C34.2251 63.0097 34.1451 62.9097 34.0451 62.8197C28.1051 49.4597 25.2151 34.9097 18.2051 21.8797C20.0051 21.1297 21.8151 20.3897 23.6351 19.6797L23.6251 19.6697ZM31.1251 60.0097C30.8151 60.1497 30.4951 60.2797 30.1851 60.4197C30.3851 59.2197 30.2251 58.2397 29.6851 56.8597C29.5251 56.4597 29.1451 56.3097 28.8151 56.4297C28.8451 55.6897 28.8751 54.9497 28.9051 54.2197C29.6051 56.1897 30.3551 58.1197 31.1951 60.0097C31.1751 60.0097 31.1551 60.0097 31.1351 60.0197L31.1251 60.0097ZM28.2551 53.0497C27.9551 53.0797 27.7251 53.0997 27.5451 53.1297C27.6851 52.4197 27.7751 51.7297 27.8251 51.0097C28.0451 51.7097 28.2851 52.3997 28.5151 53.0897C28.4351 53.0497 28.3451 53.0397 28.2551 53.0397V53.0497ZM26.6851 48.9497C26.4751 49.2697 26.2651 49.5997 26.0651 49.9197C26.0651 48.6297 26.0351 47.3397 25.9251 46.0097C25.8751 45.3797 25.1351 45.1997 24.7751 45.6997C24.7451 45.7397 24.7151 45.7797 24.6851 45.8197C24.8151 44.5097 24.8951 43.2097 24.9151 41.8897C25.6151 43.8397 26.2751 45.8097 26.8551 47.8297C26.9351 48.1097 27.0251 48.3897 27.1051 48.6697C26.9451 48.6997 26.7851 48.7897 26.6751 48.9497H26.6851ZM23.9051 40.1797C23.4951 40.5297 23.1651 40.8497 22.9051 41.1897C22.8551 39.8697 22.8051 38.5397 22.7551 37.2197C22.7351 36.7597 22.0751 36.3597 21.7351 36.7997C21.4251 37.1997 21.1651 37.4397 21.0151 37.5897C21.1351 36.5497 21.4851 33.1297 21.4651 33.4197C21.5151 32.7697 20.6851 32.7297 20.3751 33.1297C20.1351 33.3297 19.9451 33.4997 19.7751 33.6597C19.7551 32.6397 19.6851 31.6197 19.5351 30.5997C19.4851 30.1097 18.7751 29.7797 18.5051 30.3197C18.3451 30.6397 18.4951 27.6797 18.4851 27.1097C18.4851 26.6697 17.9151 26.4197 17.6051 26.7397C16.7751 27.5997 16.7651 23.3597 16.7651 23.3297C16.7251 22.8997 16.1751 22.6997 15.9351 23.0997C15.5051 23.7997 15.3751 23.9097 15.3651 24.2197C15.2451 23.8797 15.1251 23.5297 15.0051 23.1897C15.6351 22.9297 16.2551 22.6697 16.8851 22.3997C19.3251 28.3297 21.9751 34.0797 24.2151 40.0197C24.1051 40.0397 23.9951 40.0897 23.8951 40.1697L23.9051 40.1797ZM21.8951 41.9697C21.6051 41.2197 21.3251 40.4697 21.0451 39.7197C22.1651 38.6697 22.0351 40.3297 21.8951 41.9697ZM22.9751 43.7897C23.7851 40.7597 23.6051 43.5897 23.3951 45.8697C23.1751 45.2897 22.9551 44.7097 22.7251 44.1397C22.8351 44.0697 22.9251 43.9597 22.9751 43.7997V43.7897ZM25.0251 50.1397C24.7951 49.5397 24.5651 48.9397 24.3351 48.3497C25.4551 46.8597 25.2751 48.4997 25.0251 50.1397ZM25.9451 52.4497C26.1451 52.1297 26.3551 51.8197 26.5551 51.4997C26.4951 52.0897 26.3851 52.6797 26.2251 53.2597C26.1251 52.9897 26.0251 52.7297 25.9151 52.4597C25.9151 52.4597 25.9251 52.4497 25.9351 52.4397L25.9451 52.4497ZM27.0351 54.8697C27.3251 54.6297 27.4151 55.4897 27.4251 56.4097C27.2451 55.9297 27.0551 55.4397 26.8751 54.9597C26.9351 54.9297 26.9851 54.9097 27.0351 54.8597V54.8697ZM30.6351 64.9297C30.6351 64.9297 30.6351 64.9597 30.6351 64.9797C30.2851 64.0397 29.9351 63.0997 29.5851 62.1597C31.5651 61.3297 31.0351 62.3697 30.6351 64.9297ZM31.8051 65.6097C31.8851 65.7597 31.9751 65.9197 32.0551 66.0697C31.7651 67.8997 32.0051 68.7597 33.3851 70.0397C33.7151 70.3497 34.3151 70.3297 34.5351 69.8897C34.9351 69.1097 35.1651 68.4997 35.2451 67.8597C35.7751 68.7297 36.3151 69.5897 36.8951 70.4397C36.0851 69.9397 35.1651 69.7597 34.1951 70.2797C33.6051 70.5997 33.2151 71.0297 32.9851 71.5297C32.2951 69.5597 31.5851 67.5897 30.8651 65.6197C31.1051 65.8497 31.4751 65.9097 31.7951 65.6197L31.8051 65.6097ZM5.5851 3.08973C7.4251 2.40973 10.1451 1.61973 12.1151 2.04973C15.2651 2.72973 16.4451 6.53973 17.2351 9.18973C17.2751 9.32973 17.3451 9.43973 17.4251 9.52973C14.3051 9.54973 10.4651 11.3297 8.2351 12.3197C6.8451 12.9297 5.1651 13.5697 3.9051 14.5997C4.0451 10.2297 -0.674899 5.40973 5.5751 3.09973L5.5851 3.08973ZM4.5451 20.0697C0.585101 16.9197 7.7151 14.1497 9.5651 13.3397C12.3351 12.1397 19.0451 8.69973 20.6151 13.1197C17.1251 12.7097 12.8951 15.3797 10.0151 16.5997C8.0951 17.4097 5.7651 18.3297 4.5451 20.0797C4.5451 20.0797 4.5451 20.0797 4.5451 20.0697ZM6.5151 25.3197C6.5151 25.3197 6.4451 25.2297 6.3851 25.1997C1.8651 22.4497 7.3451 19.4297 8.8951 18.6597C10.1651 18.0197 11.5551 17.5397 12.8751 16.9997C13.9051 16.5697 14.9251 16.1297 15.9551 15.7197C17.3651 15.1697 24.4251 12.4397 22.9351 17.8997C22.8951 18.0297 22.9051 18.1497 22.9351 18.2497C17.5051 20.3097 12.0351 22.5097 6.9851 25.4097C6.8351 25.2997 6.6651 25.2797 6.5151 25.3297V25.3197ZM28.0651 74.7997C24.8551 66.3097 21.2451 57.9397 17.8351 49.5397C14.7551 41.9497 12.3251 33.0097 7.5751 26.2197C9.5951 25.4497 11.5951 24.6297 13.5951 23.7997C19.1651 40.4197 24.9051 57.5397 32.7251 73.2697C32.7451 73.5297 32.7751 73.7797 32.8251 74.0397C31.6751 73.3497 30.3151 73.0497 29.1151 73.7597C28.7051 73.9997 28.3451 74.3797 28.0651 74.8097V74.7997ZM40.0351 85.9997C39.5451 85.8497 39.0351 85.5997 38.5251 85.2797C38.7251 85.2797 38.9551 85.1097 38.8851 84.8697C38.7851 84.5397 38.8751 84.2497 39.0951 84.0697C39.3151 84.4097 39.4751 84.7797 39.5251 85.1997C39.5351 85.2597 39.5351 85.3297 39.5551 85.3897C39.6751 85.8497 40.1551 85.8597 40.4251 85.6097C40.5651 85.7097 40.7451 85.7697 40.9151 85.7497C40.9151 85.7797 40.8951 85.7997 40.8851 85.8297C40.7951 86.1497 40.9651 86.4197 41.2151 86.5597C40.8451 86.7097 40.4551 86.5297 40.0451 85.9997H40.0351ZM39.3451 82.9997C39.8551 82.6097 40.4251 82.3097 41.0351 82.1197C40.9351 82.2897 40.8451 82.4697 40.7651 82.6397C40.5051 82.4697 40.1351 82.5297 39.9451 82.8197C39.8551 82.9697 39.7851 83.1197 39.7251 83.2697C39.6851 83.2197 39.6551 83.1697 39.6051 83.1297C39.5351 83.0497 39.4351 83.0197 39.3451 82.9997ZM42.9851 82.9697C42.8151 82.8797 42.6151 82.8597 42.4351 82.9297C42.3551 82.6497 42.2751 82.3597 42.1551 82.0797C42.1151 81.9997 42.0551 81.9497 41.9951 81.8997C42.3551 81.8497 42.7151 81.8197 43.0951 81.8297C43.0651 82.2097 43.0351 82.5797 42.9951 82.9497L42.9851 82.9697ZM43.1451 80.6797C40.7551 80.4197 38.3651 81.8497 37.4251 84.0497C37.2551 84.4597 37.7751 84.7997 38.0351 84.4097C38.0751 84.3497 38.1251 84.2997 38.1651 84.2397C38.1251 84.5297 38.1351 84.8297 38.2651 85.1197C36.8551 84.2097 35.4351 82.9197 34.3151 82.0897C32.5751 80.8097 30.8751 79.4797 29.0851 78.2597C29.1851 78.0897 29.2251 77.8797 29.1451 77.6497C28.9751 77.1797 28.7851 76.7197 28.6151 76.2497C28.7551 75.5197 29.2851 74.8797 30.0951 74.7097C31.5051 74.3997 32.7651 75.5897 33.6151 76.5297C34.2151 77.1897 35.1451 76.2297 34.5851 75.5597C34.4451 75.3897 34.2851 75.2197 34.1151 75.0497C33.7751 73.7897 33.5051 72.1997 34.7551 71.5297C36.1551 70.7797 37.4751 72.8997 38.0251 73.8597C38.4951 74.6797 39.7751 73.9397 39.2951 73.1197C39.1951 72.9497 39.0851 72.7797 38.9651 72.5997C38.8951 71.8597 38.9351 71.0797 39.3251 70.5397C39.6351 70.0997 40.1351 69.9297 40.6351 70.1497C41.1551 70.3797 41.2451 70.7897 41.4251 71.2697C41.5651 71.6597 42.0151 71.8197 42.3351 71.6797C42.8751 74.2497 43.1951 76.8497 43.1751 79.4797C43.1751 79.8797 43.1551 80.2797 43.1351 80.6797H43.1451Z" fill="#0281A1"/>
<path d="M5.1751 5.93972C5.2551 5.65972 4.8251 5.45972 4.6951 5.73972C3.8751 7.50972 3.8251 9.92972 5.0651 11.5397C5.3051 11.8497 5.8451 11.5097 5.7151 11.1597C5.0451 9.32972 4.6451 7.89972 5.1751 5.93972Z" fill="#0281A1"/>
<path d="M7.5351 10.5998C6.6651 9.52977 6.3451 8.40977 6.3951 7.03977C6.4051 6.72977 5.9351 6.66977 5.8551 6.96977C5.4551 8.44977 5.9051 10.0998 6.9151 11.2298C7.3051 11.6598 7.8951 11.0398 7.5451 10.5998H7.5351Z" fill="#0281A1"/>
<path d="M27.3751 68.4298C27.0251 67.4998 26.8051 66.5398 26.5251 65.5898C26.3751 65.0898 25.6751 65.2998 25.7551 65.7998C26.0451 67.5598 26.9251 70.0298 28.2551 71.2698C28.3751 71.3798 28.5751 71.2698 28.5251 71.1098C28.2551 70.1798 27.7151 69.3298 27.3751 68.4198V68.4298Z" fill="#0281A1"/>
<path d="M27.3651 63.9098C27.1351 63.4998 26.4651 63.7798 26.6051 64.2298C27.0951 65.7998 27.9451 67.4298 28.7751 68.8498C28.9051 69.0798 29.2851 68.9298 29.2051 68.6698C28.7551 67.0898 28.1651 65.3498 27.3651 63.9098Z" fill="#0281A1"/>
<path d="M22.8751 27.7897C22.4451 26.8597 21.7751 26.0997 21.4151 25.1197C21.0851 24.2197 20.9851 23.3097 20.8351 22.3797C20.7651 21.9697 20.2251 22.1297 20.1751 22.4697C19.9351 24.3397 20.7951 27.1597 22.3951 28.2697C22.7151 28.4897 23.0051 28.0797 22.8751 27.7897Z" fill="#0281A1"/>
<path d="M25.4151 28.0097C24.6751 26.3497 23.8351 24.6697 22.9651 23.0797C22.7851 22.7597 22.2351 22.9797 22.3651 23.3297C23.0151 25.0797 23.7551 26.8397 24.5451 28.5197C24.8251 29.1197 25.6851 28.5997 25.4251 28.0097H25.4151Z" fill="#0281A1"/>
</g>
<defs>
<clipPath id="clip0_2001_2433">
<rect width="44.52" height="88.42" fill="white" transform="translate(0.225098 0.109741)"/>
</clipPath>
</defs>
</svg>
