<svg width="90" height="88" viewBox="0 0 90 88" fill="none" xmlns="http://www.w3.org/2000/svg">
<g clip-path="url(#clip0_2001_2424)">
<path d="M86.8581 61.2599C81.4205 54.9943 75.3032 49.16 69.4124 43.2847C73.2435 39.5253 76.539 35.088 79.7109 30.7534C82.2238 27.3022 86.7963 22.8443 86.2608 18.3043C86.096 16.9485 85.0456 15.9419 83.6038 16.2911C73.6554 18.6741 63.6452 20.9544 53.7998 23.7072C53.7174 23.5428 53.6762 23.399 53.5526 23.2347C49.392 17.9756 45.2108 12.7166 41.009 7.47811C39.4024 5.46488 36.4571 -0.369354 32.9556 0.924861C29.7424 2.11636 30.8753 8.01223 30.8959 10.272C30.9782 17.4415 30.9576 24.7138 31.7815 31.8422C31.7815 31.8422 31.7815 31.8422 31.7815 31.8628C31.7403 31.8628 31.7197 31.8628 31.6785 31.8833C21.3388 36.1152 11.514 41.6618 1.50381 46.5922C0.000226391 47.3317 0.206197 50.1872 1.99814 50.4132C6.26174 50.9884 10.5459 51.5636 14.8095 52.1388C21.5036 53.0221 29.6394 51.9744 30.0514 60.4587C30.2367 64.2181 28.3624 68.5938 27.9299 72.4354C27.3943 77.1808 27.6003 81.5565 28.3006 86.2403C28.6096 88.2741 31.246 88.007 32.1935 86.7539C38.4344 78.475 44.6959 70.2373 50.8544 61.8968C58.5371 63.9305 66.3434 65.5534 74.1497 67.0531C77.3423 67.6694 85.3957 70.9357 88.3823 68.2857C90.9775 66.0054 88.3823 63.0266 86.8375 61.1983L86.8581 61.2599ZM68.6915 62.1022C63.0067 61.0956 57.3631 59.9863 51.6783 59.0002C51.4929 58.9591 51.3076 59.0002 51.1428 59.0002C50.2777 58.199 48.6505 57.973 47.7031 59.2056C42.4508 66.0465 37.2809 72.9489 32.1111 79.8514C32.2965 71.6547 35.3448 64.136 35.3242 55.9393C35.3242 54.2136 35.695 53.2276 34.6651 51.6663C33.4293 49.8174 28.589 49.7763 27.0854 49.5915C21.277 48.8108 15.448 48.0507 9.63966 47.2906C17.5489 43.3669 25.4582 39.3199 32.6878 34.2868C33.1203 33.9992 33.2645 33.4857 33.2233 33.0132C33.6971 32.9105 34.1296 32.5612 34.1914 31.8833C34.7063 27.3844 34.8299 22.8033 34.9535 18.2632C35.0153 15.983 35.0359 13.7232 35.0565 11.4429C35.0565 11.71 34.8917 8.44363 34.5415 6.49204C36.4571 9.10101 41.5857 14.9353 42.2037 15.7159C45.0049 19.2082 47.8061 22.7005 50.6073 26.1723C51.0604 26.727 51.5959 26.9119 52.0903 26.8502C52.3992 27.0557 52.8112 27.1584 53.2643 27.0762C62.7183 25.3711 72.09 23.1936 81.4617 21.0776C79.9375 24.6727 75.7975 28.9662 74.1497 31.1027C71.3691 34.7388 68.2796 38.1079 65.5813 41.7645C64.5927 42.4219 64.0572 43.8394 65.1282 44.9693C68.3825 48.3794 71.6781 51.7485 74.953 55.1175C76.7038 56.9253 82.9241 61.753 84.5924 65.0399C79.9787 65.3275 72.0076 62.6774 68.6503 62.1022H68.6915Z" fill="#0281A1"/>
<path d="M48.1561 26.2339C46.9203 24.9192 45.3961 23.9126 44.1397 22.5978C42.8215 21.2214 41.7298 19.6601 40.6176 18.1194C39.9379 17.1539 38.5785 17.9756 39.0522 19.0233C40.5146 22.3102 43.5012 26.3572 46.7967 27.9801C47.909 28.5348 49.0418 27.1789 48.1561 26.2339Z" fill="#0281A1"/>
<path d="M47.5794 32.8488C46.4878 31.1643 44.6753 29.8701 43.2129 28.5348C41.6063 27.0557 40.0409 25.556 38.3931 24.1386C37.4457 23.3168 36.1687 24.57 37.0131 25.5149C38.4549 27.1378 39.9997 28.6786 41.5033 30.2399C42.8833 31.6779 44.2015 33.4857 45.8905 34.5334C46.9203 35.1702 48.2591 33.876 47.5794 32.8488Z" fill="#0281A1"/>
</g>
<defs>
<clipPath id="clip0_2001_2424">
<rect width="89" height="87" fill="white" transform="translate(0.515137 0.760498)"/>
</clipPath>
</defs>
</svg>
