<svg width="1280" height="462" viewBox="0 0 1280 462" fill="none" xmlns="http://www.w3.org/2000/svg">
<path d="M1249.84 122.827C1249.92 122.661 1249.98 122.495 1249.98 122.302C1249.98 121.805 1249.7 121.391 1249.26 121.197L1248.95 116.502H1248.62L1248.32 121.197C1247.88 121.391 1247.6 121.805 1247.6 122.302C1247.6 122.495 1247.66 122.661 1247.74 122.827C1245.53 124.705 1242.74 126.279 1239.4 127.467C1237.13 128.296 1235.23 129.4 1233.79 130.698V128.516H1234.12V126.915H1234.73V124.815H1233.79V108.547H1234.12V106.918H1234.73V104.846H1233.74C1233.71 103.051 1233.57 101.255 1233.35 99.5154C1233.35 99.5154 1231.17 85.1805 1230.75 85.1805C1230.34 85.1805 1228.07 99.3496 1228.07 99.3496C1227.83 101.145 1227.69 102.995 1227.66 104.846H1226.64V106.918H1227.25V108.547H1227.6V124.815H1226.64C1223.93 117.027 1216.75 111.364 1208.16 110.867V110.121C1208.16 109.873 1207.97 109.652 1207.69 109.652H1207.3L1207 101.863C1207.86 102.139 1208.8 102.25 1209.76 102.084C1211.31 101.808 1212.61 100.952 1213.44 99.7363C1212.83 100.095 1212.16 100.372 1211.45 100.51C1208.38 101.034 1205.45 98.9906 1204.93 95.9247C1204.65 94.4056 1205.01 92.9418 1205.81 91.7541C1203.93 92.9418 1202.83 95.179 1203.24 97.5267C1203.6 99.4877 1204.93 101.034 1206.64 101.725L1206.34 109.652H1205.95C1205.95 109.652 1205.7 109.707 1205.62 109.79C1205.54 109.873 1205.48 109.983 1205.48 110.121V110.895C1196.89 111.502 1189.77 117.303 1187.2 125.202V108.437H1187.67V106.365H1188.44V103.714H1187.2V82.8328H1187.67V80.7337H1188.44V78.0821H1187.14C1187.09 75.7897 1186.95 73.4972 1186.64 71.2323C1186.64 71.2323 1183.85 52.8649 1183.33 52.8649C1182.78 52.8649 1179.88 71.0114 1179.88 71.0114C1179.57 73.3315 1179.41 75.7068 1179.32 78.0821H1178.05V80.7337H1178.83V82.8328H1179.27V103.714H1178.05V106.365H1178.83V108.437H1179.27V116.336C1173.77 105.509 1163.75 97.8305 1152.04 96.4219V94.8199C1152.04 94.0466 1151.65 93.4113 1151.18 93.4113H1149.55L1148.39 81.5899H1147.87L1146.68 93.4113H1145.05C1144.58 93.4113 1144.22 94.0466 1144.22 94.8199V96.4219C1135.05 97.5267 1126.96 102.443 1121.21 109.68C1119.69 95.5657 1111.54 83.8824 1090 75.2373C1075.91 69.5751 1071.19 61.2338 1069.7 57.2842C1071.97 57.0356 1073.68 55.9308 1073.68 54.605C1073.68 53.3621 1072.16 52.3402 1070.11 52.0087L1069.78 43.0874C1070.45 42.8665 1070.92 42.4798 1070.92 42.0102C1070.92 41.5407 1070.42 41.1264 1069.7 40.933L1069.37 32.1775C1072.52 32.868 1075.89 32.7575 1079.17 31.6527C1084.09 29.9955 1087.82 26.4877 1089.92 22.1514C1088.18 23.6705 1086.13 24.8581 1083.81 25.6315C1074.12 28.9183 1063.6 23.6981 1060.31 14.0034C1058.68 9.19751 1059.15 4.19826 1061.19 0C1055.61 4.77828 1053.18 12.6224 1055.67 19.997C1057.74 26.1563 1062.74 30.4926 1068.57 32.0117L1068.04 40.8502C1067.16 41.0159 1066.5 41.4578 1066.5 42.0102C1066.5 42.5626 1067.08 42.9769 1067.91 43.1427L1067.38 51.9811C1065.28 52.3125 1063.76 53.3621 1063.76 54.605C1063.76 55.986 1065.58 57.1184 1067.96 57.3118C1066.47 61.2338 1061.72 69.5751 1047.66 75.2373C1024.73 84.4348 1017 97.0848 1016.26 112.442C1010.48 103.686 1001.53 97.6648 991.259 96.4219V94.8199C991.259 94.0466 990.872 93.4113 990.403 93.4113H988.773L987.613 81.5899H987.116L985.928 93.4113H984.271C983.802 93.4113 983.443 94.0466 983.443 94.8199V96.4219C970.489 97.9686 959.634 107.139 954.635 119.789V108.437H955.077V106.365H955.85V103.714H954.635V82.8328H955.077V80.7337H955.85V78.0821H954.58C954.524 75.7897 954.386 73.4972 954.082 71.2323C954.082 71.2323 951.293 52.8649 950.74 52.8649C950.188 52.8649 947.315 71.0114 947.315 71.0114C946.984 73.3315 946.846 75.7068 946.763 78.0821H945.493V80.7337H946.266V82.8328H946.708V103.714H945.493V106.365H946.266V108.437H946.708V122.744C943.531 116.032 936.875 111.309 929.086 110.867V110.121C929.086 109.873 928.865 109.652 928.589 109.652H928.23L927.926 101.863C928.782 102.139 929.721 102.25 930.688 102.084C932.235 101.808 933.533 100.952 934.362 99.7363C933.754 100.095 933.091 100.372 932.345 100.51C929.279 101.034 926.379 98.9906 925.827 95.9247C925.578 94.4056 925.937 92.9418 926.738 91.7541C924.833 92.9418 923.755 95.179 924.17 97.5267C924.501 99.4877 925.827 101.034 927.567 101.725L927.263 109.652H926.877C926.877 109.652 926.628 109.707 926.545 109.79C926.435 109.873 926.379 109.983 926.379 110.121V110.895C917.955 111.502 910.912 117.137 908.261 124.815H907.57V108.547H907.901V106.918H908.509V104.846H907.515C907.487 103.051 907.377 101.255 907.128 99.5154C907.128 99.5154 904.946 85.1805 904.532 85.1805C904.118 85.1805 901.853 99.3496 901.853 99.3496C901.604 101.145 901.494 102.995 901.438 104.846H900.416V106.918H901.024V108.547H901.383V124.815H900.416V126.915H901.024V128.516H901.383V130.45C899.975 129.262 898.179 128.24 896.052 127.467C892.71 126.279 889.921 124.705 887.711 122.827C887.794 122.661 887.849 122.495 887.849 122.302C887.849 121.805 887.573 121.391 887.159 121.197L886.855 116.502H886.496L886.192 121.197C885.778 121.391 885.474 121.805 885.474 122.302C885.474 122.495 885.529 122.661 885.612 122.827C883.402 124.677 880.585 126.279 877.271 127.467C872.189 129.29 868.791 132.577 868.791 136.305C868.791 137.355 869.068 138.377 869.592 139.371H867.604V130.781H867.714C868.046 130.781 868.322 130.505 868.322 130.174V129.815C868.322 129.483 868.046 129.207 867.714 129.207H866.913C866.913 128.986 866.969 128.765 866.969 128.516C866.969 126.887 866.112 125.451 864.814 124.65C864.013 124.153 863.323 123.49 862.77 122.744C862.881 122.633 862.936 122.495 862.936 122.357C862.936 122.136 862.798 121.943 862.632 121.888L862.494 119.816H862.328L862.19 121.888C862.024 121.943 861.886 122.136 861.886 122.357C861.886 122.495 861.942 122.633 862.052 122.744C861.5 123.49 860.809 124.153 860.008 124.65C858.71 125.451 857.854 126.887 857.854 128.516C857.854 128.765 857.854 128.986 857.909 129.207H857.08C856.749 129.207 856.473 129.483 856.473 129.815V130.174C856.473 130.505 856.749 130.781 857.08 130.781H857.219V139.786C856.528 137.383 854.733 135.477 852.413 134.648V134.538C852.413 133.378 851.695 132.411 850.673 132.052L850.313 130.919C850.313 130.919 850.424 130.698 850.424 130.56C850.424 130.312 850.258 130.091 850.037 129.98L849.816 126.417H849.789H849.733L849.513 129.98C849.292 130.091 849.126 130.312 849.126 130.56C849.126 130.698 849.181 130.809 849.264 130.919L848.877 132.052C847.855 132.411 847.137 133.378 847.137 134.538V134.648C844.182 135.725 842.027 138.543 842.027 141.912C842.027 142.713 842.193 143.459 842.414 144.205C715.444 183.812 118.076 196.711 0 156.358V461.588H1280V139.537C1270.5 138.377 1259.84 128.185 1249.84 122.827ZM859.566 139.426H857.881V134.703C857.881 133.488 858.24 132.466 858.71 132.162C859.207 132.466 859.566 133.488 859.566 134.703V139.426ZM864.538 139.371H863.516V139.426H860.284V134.179C860.284 132.853 861.196 131.72 862.411 131.389C863.626 131.72 864.538 132.853 864.538 134.179V139.371ZM866.941 139.371H865.256V134.703C865.256 133.488 865.615 132.466 866.085 132.162C866.582 132.466 866.941 133.488 866.941 134.703V139.371Z" fill="#E9E3D8"/>
</svg>
