<svg width="75" height="75" viewBox="0 0 75 75" fill="none" xmlns="http://www.w3.org/2000/svg">
<circle cx="37.5" cy="37.5" r="37" fill="#DDECF4" stroke="#BFAF9B"/>
<g clip-path="url(#clip0_2001_1746)">
<path fill-rule="evenodd" clip-rule="evenodd" d="M20.5644 21.7741C20.3238 21.7741 20.093 21.8697 19.9229 22.0398C19.7527 22.21 19.6571 22.4407 19.6571 22.6813V43.8507C19.6571 44.0913 19.7527 44.3221 19.9229 44.4922C20.093 44.6624 20.3238 44.758 20.5644 44.758H54.4354C54.676 44.758 54.9068 44.6624 55.0769 44.4922C55.247 44.3221 55.3426 44.0913 55.3426 43.8507V41.1289C55.3426 40.4608 55.8842 39.9193 56.5523 39.9193C57.2204 39.9193 57.762 40.4608 57.762 41.1289V43.8507C57.762 44.733 57.4115 45.5791 56.7876 46.203C56.1638 46.8268 55.3176 47.1773 54.4354 47.1773H20.5644C19.6821 47.1773 18.836 46.8268 18.2121 46.203C17.5883 45.5791 17.2378 44.733 17.2378 43.8507V22.6813C17.2378 21.7991 17.5883 20.9529 18.2121 20.3291C18.836 19.7052 19.6821 19.3547 20.5644 19.3547H35.9878C36.6559 19.3547 37.1975 19.8963 37.1975 20.5644C37.1975 21.2325 36.6559 21.7741 35.9878 21.7741H20.5644Z" fill="black"/>
<path fill-rule="evenodd" clip-rule="evenodd" d="M25.7056 54.4355C25.7056 53.7674 26.2472 53.2258 26.9152 53.2258H48.0846C48.7527 53.2258 49.2943 53.7674 49.2943 54.4355C49.2943 55.1036 48.7527 55.6452 48.0846 55.6452H26.9152C26.2472 55.6452 25.7056 55.1036 25.7056 54.4355Z" fill="black"/>
<path fill-rule="evenodd" clip-rule="evenodd" d="M31.1491 44.7581C31.8172 44.7581 32.3588 45.2996 32.3588 45.9677V54.4355C32.3588 55.1036 31.8172 55.6452 31.1491 55.6452C30.481 55.6452 29.9395 55.1036 29.9395 54.4355V45.9677C29.9395 45.2996 30.481 44.7581 31.1491 44.7581Z" fill="black"/>
<path fill-rule="evenodd" clip-rule="evenodd" d="M43.8508 44.7581C44.5189 44.7581 45.0605 45.2996 45.0605 45.9677V54.4355C45.0605 55.1036 44.5189 55.6452 43.8508 55.6452C43.1827 55.6452 42.6411 55.1036 42.6411 54.4355V45.9677C42.6411 45.2996 43.1827 44.7581 43.8508 44.7581Z" fill="black"/>
<g clip-path="url(#clip1_2001_1746)">
<path d="M53.2256 25.4031H41.1288C39.7927 25.4031 38.7095 26.4863 38.7095 27.8224V35.0805C38.7095 36.4167 39.7927 37.4999 41.1288 37.4999H53.2256C54.5618 37.4999 55.645 36.4167 55.645 35.0805V27.8224C55.645 26.4863 54.5618 25.4031 53.2256 25.4031Z" stroke="#403A34" stroke-width="2" stroke-linecap="round" stroke-linejoin="round"/>
<path d="M47.1772 32.6613C47.8453 32.6613 48.3869 32.1197 48.3869 31.4516C48.3869 30.7835 47.8453 30.2419 47.1772 30.2419C46.5091 30.2419 45.9675 30.7835 45.9675 31.4516C45.9675 32.1197 46.5091 32.6613 47.1772 32.6613Z" stroke="#403A34" stroke-width="2" stroke-linecap="round" stroke-linejoin="round"/>
<path d="M42.3386 25.4032V20.5645C42.3386 19.2812 42.8484 18.0505 43.7558 17.1431C44.6633 16.2356 45.894 15.7258 47.1773 15.7258C48.4606 15.7258 49.6914 16.2356 50.5988 17.1431C51.5063 18.0505 52.016 19.2812 52.016 20.5645V25.4032" stroke="#403A34" stroke-width="2" stroke-linecap="round" stroke-linejoin="round"/>
</g>
</g>
<defs>
<clipPath id="clip0_2001_1746">
<rect width="50.8064" height="50.8064" fill="white" transform="translate(12.0967 12.0967)"/>
</clipPath>
<clipPath id="clip1_2001_1746">
<rect width="29.0323" height="29.0323" fill="white" transform="translate(32.6611 12.0967)"/>
</clipPath>
</defs>
</svg>
