<svg width="75" height="76" viewBox="0 0 75 76" fill="none" xmlns="http://www.w3.org/2000/svg">
<path d="M21.889 35.806C20.8605 34.7774 19.1891 34.7774 18.1605 35.806C17.132 36.8345 17.132 38.5059 18.1605 39.5345L30.3104 51.6844C30.8247 52.1987 31.4675 52.4558 32.1746 52.4558C32.2389 52.4558 32.2389 52.4558 32.3032 52.4558C33.0104 52.3915 33.7175 52.0701 34.2318 51.4915L64.6386 15.0419C65.5386 13.9491 65.41 12.2777 64.3171 11.3134C63.2243 10.4134 61.5529 10.542 60.5886 11.6348L31.9818 45.8987L21.889 35.806Z" fill="#4E517E"/>
<path d="M56.9886 6.36345C42.2031 -2.89359 23.239 -0.707898 10.8963 11.6348C-3.6321 26.1632 -3.6321 49.8844 10.8963 64.4128C18.1605 71.677 27.739 75.3412 37.2532 75.3412C46.7673 75.3412 56.3458 71.677 63.61 64.4128C76.017 52.0058 78.1384 32.9774 68.8171 18.1919C68.0457 16.9705 66.4385 16.5848 65.2171 17.3562C63.9957 18.1276 63.61 19.7347 64.3814 20.9561C72.417 33.6846 70.5528 50.013 59.8815 60.6843C47.4102 73.1556 27.0318 73.1556 14.5605 60.6843C2.08926 48.213 2.08926 27.8346 14.5605 15.3633C25.2319 4.75633 41.496 2.89206 54.2244 10.7991C55.4458 11.5705 57.0529 11.1848 57.8243 9.96341C58.5958 8.74199 58.2101 7.13487 56.9886 6.36345Z" fill="#D9AE63"/>
</svg>
