<svg width="90" height="91" viewBox="0 0 90 91" fill="none" xmlns="http://www.w3.org/2000/svg">
<g clip-path="url(#clip0_1084_2443)">
<path d="M43.8996 7.70227C40.925 7.71314 38.0062 7.79438 35.6492 7.94415C32.0652 8.17183 28.0753 8.47576 26.8513 8.61425C20.3946 9.3448 17.9932 9.74422 14.8251 10.6149C10.2299 11.8778 7.76634 13.1721 5.39493 15.5704C4.39224 16.5844 3.85365 17.3215 3.25168 18.502C1.72161 21.5025 1.1628 25.2176 1.22703 31.9627L1.24944 34.3236L0.949271 34.5232C0.576813 34.7709 0.240568 35.2715 0.112527 35.7694C-0.026799 36.3112 -0.03355 47.5418 0.105188 48.0654C0.404936 49.1972 1.47497 49.9189 2.45202 49.6487C2.62607 49.6006 2.81738 49.5401 2.87735 49.5144C2.98029 49.4701 2.9876 50.2022 3.00483 62.6249C3.02518 77.3 2.98966 76.1532 3.46183 77.3967C4.01064 78.842 4.67044 79.7945 5.5707 80.4405C6.15256 80.8581 6.93439 81.0617 8.30655 81.1534C8.34494 81.1559 10.4901 81.1565 11.8424 81.1576C11.8506 81.1348 11.8713 81.1105 11.8815 81.0893C11.8643 81.0137 11.8544 80.9288 11.8544 80.8342V80.715C11.8544 80.2431 12.0916 80.0069 12.3288 80.0069C12.4721 80.0069 12.6152 80.0932 12.7062 80.2654C12.8713 80.1769 13.0436 80.1143 13.2277 80.0787C13.4057 80.0354 13.5848 79.994 13.7674 79.977C13.8491 79.9708 13.9313 79.9645 14.0131 79.9638C14.1495 79.9626 14.2847 79.9765 14.4137 80.0317C14.5274 80.0902 14.6322 80.1612 14.7355 80.2367C14.823 80.3022 14.9114 80.3668 15.0036 80.4254C15.009 80.4289 15.0091 80.4296 15.011 80.4312C15.0525 80.4414 15.0943 80.4501 15.1353 80.4619C15.2946 80.5024 15.4544 80.541 15.6132 80.5834C15.7288 80.6132 15.8439 80.645 15.9597 80.6739C16.3298 80.7662 16.5296 80.9676 16.5743 81.1627C18.9925 81.1645 20.9423 81.1666 22.838 81.1697C22.8374 81.1654 22.837 81.1628 22.8364 81.1584C22.7968 80.973 22.7577 80.7874 22.7159 80.6025C22.6495 80.2419 22.5342 79.8941 22.4165 79.548C22.2249 79.0478 22.0984 78.5283 22.0035 78.002C21.9847 77.8275 21.9364 77.6246 21.9208 77.4294C18.8656 77.4266 10.7704 77.4365 10.7117 77.4274C10.6246 77.415 10.0682 77.381 9.47548 77.3521C8.52167 77.3055 8.35807 77.281 8.05154 77.1389C7.49756 76.8821 7.07823 76.5082 6.87291 76.0879L6.69254 75.7188V55.173V34.6268L6.86213 34.2631C7.05178 33.8564 7.51715 33.3217 7.88431 33.0879C8.32425 32.8076 9.02159 32.571 9.7073 32.469C10.3127 32.379 13.8093 32.3688 44.6367 32.3688C75.464 32.3688 78.9611 32.379 79.5664 32.469C80.2521 32.571 80.9495 32.8076 81.3894 33.0879C81.7566 33.3217 82.2215 33.8564 82.4112 34.2631L82.5808 34.6268V55.173V75.7188L82.4004 76.088C82.1952 76.5079 81.7775 76.8808 81.2202 77.1409C80.9404 77.2715 80.7169 77.3145 80.081 77.3602C79.6441 77.3917 59.4095 77.4123 41.4712 77.4208V78.4357V79.1508C41.4757 79.2249 41.465 79.3003 41.474 79.374C41.4871 79.5568 41.4944 79.7399 41.5014 79.923C41.5055 79.9817 41.5153 80.0399 41.5253 80.0977C41.5639 80.177 41.5877 80.2632 41.6138 80.3481C41.6497 80.4619 41.6833 80.576 41.7309 80.6855C41.7476 80.7208 41.7618 80.7571 41.776 80.7935C41.8343 80.9425 41.8563 81.0759 41.8521 81.191C43.1586 81.1918 43.3835 81.1949 45.1748 81.1945L81.3149 81.1871L82.0114 81.0489C83.0033 80.8525 83.2545 80.7621 83.7026 80.4406C84.6029 79.7945 85.2627 78.842 85.8115 77.3967C86.2402 76.2677 86.2421 76.2469 86.2685 71.5048L86.2921 67.2267L86.5567 67.2745C86.9189 67.3399 87.4019 67.3236 87.7176 67.2353C88.3629 67.0547 88.9329 66.4524 89.0654 65.8108C89.113 65.5804 89.129 63.608 89.1172 59.4343L89.1002 53.3917L88.9491 53.0567C88.7541 52.6229 88.234 52.1423 87.755 51.9537C87.474 51.843 87.265 51.811 86.8372 51.8124L86.2836 51.814V50.6403C86.2836 49.5466 86.2913 49.4693 86.3945 49.5136C86.4554 49.5398 86.6473 49.6006 86.8213 49.6487C87.7984 49.9189 88.8684 49.1972 89.1682 48.0655C89.3069 47.5419 89.3001 36.3113 89.1608 35.7695C89.0327 35.2715 88.6966 34.7709 88.3241 34.5232L88.0239 34.3237L88.0467 31.9628C88.0834 28.1094 87.8702 24.8059 87.4495 22.7051C87.0502 20.7115 86.3284 18.8386 85.4132 17.4208C84.3335 15.7481 82.3686 13.9764 80.3336 12.8407C78.0471 11.5645 73.8589 10.2688 69.7573 9.56859C68.1656 9.2969 63.0844 8.65785 60.903 8.45511C59.886 8.36059 53.9757 7.95855 52.485 7.88246C49.9047 7.75075 46.8742 7.69139 43.8996 7.70227ZM44.1209 10.1389C45.7131 10.1371 47.346 10.1472 48.9235 10.1703C53.1968 10.233 54.2648 10.2748 56.1877 10.4541C56.7447 10.5061 57.8556 10.5772 58.6562 10.6125C61.3066 10.7294 66.259 11.2017 67.4224 11.4484C67.7531 11.5185 68.351 11.6317 68.7513 11.7C70.856 12.059 72.6642 12.4623 74.4478 12.9711C78.0012 13.9847 79.8868 14.9067 81.7579 16.5445C83.3791 17.9635 84.249 19.2577 84.9164 21.2441C85.5706 23.1911 85.8382 25.1332 85.9691 28.8859C86.0445 31.0457 86.0329 32.8639 85.9452 32.655C85.9158 32.585 85.8597 32.4419 85.8204 32.337C85.61 31.7748 85.0488 30.9524 84.5606 30.4909C83.927 29.8919 83.6409 29.693 82.9088 29.3448C81.9085 28.869 81.1719 28.6774 79.5745 28.4767C78.591 28.3531 10.6823 28.3531 9.6988 28.4767C8.0731 28.6809 7.19589 28.9163 6.22356 29.4093C5.56079 29.7453 5.27799 29.9491 4.6706 30.5289C4.19069 30.9871 3.57465 31.9273 3.41277 32.4484C3.37202 32.5796 3.31742 32.6868 3.29108 32.6868C3.16704 32.6868 3.29247 27.8614 3.46801 25.8805C3.80147 22.1193 4.68604 19.5842 6.31743 17.7123C6.90548 17.0376 8.10351 15.9988 8.93005 15.4469C9.76486 14.8895 11.1034 14.223 12.2357 13.8012C14.3746 13.0044 17.4582 12.2226 20.522 11.7C20.9223 11.6317 21.5206 11.5185 21.8513 11.4484C23.0589 11.1923 27.8732 10.7394 31.0919 10.5791C32.1188 10.528 33.1869 10.4593 33.4654 10.4266C34.9317 10.2543 39.3443 10.1441 44.1209 10.1389ZM44.6367 43.2396C29.4065 43.2396 14.1758 43.2638 13.908 43.3118C12.9096 43.4907 12.352 43.8109 11.9278 44.4494C11.0982 45.698 11.0598 46.311 11.0598 58.3216C11.0598 70.3323 11.0982 70.9452 11.9278 72.1939C12.3744 72.866 12.9483 73.1785 14.0483 73.3485C14.1386 73.3625 17.9125 73.3658 20.658 73.3722C20.6417 73.226 20.6189 73.0806 20.5962 72.9354C20.5418 72.5986 20.4771 72.2636 20.4247 71.9264C20.4229 71.9146 20.4219 71.9034 20.4204 71.8919C16.6477 71.878 13.8912 71.8581 13.7636 71.8138C13.3782 71.68 13.155 71.492 12.984 71.1569C12.555 70.3163 12.5158 69.2454 12.5158 58.3216C12.5158 48.9527 12.5559 47.0042 12.7673 46.1223C12.9552 45.3383 13.2438 44.9804 13.8277 44.8062C14.1169 44.7198 17.5052 44.7091 44.6367 44.7091C71.7681 44.7091 75.1568 44.7198 75.446 44.8062C76.3186 45.0666 76.5506 45.6402 76.6799 47.8577C76.7893 49.7337 76.7893 66.9092 76.6799 68.7851C76.5506 71.0026 76.3186 71.5767 75.446 71.8371C75.1568 71.9234 71.7691 71.9336 44.6092 71.9318C41.6132 71.9316 41.6782 71.9287 39.2403 71.9283C39.3658 71.9885 39.4917 72.0509 39.5969 72.1434C39.6342 72.1799 39.672 72.2156 39.7081 72.2533C39.8208 72.3717 39.9252 72.4977 40.0152 72.6346C40.1308 72.8102 40.2407 72.993 40.2911 73.1998C40.31 73.2777 40.3197 73.3506 40.3231 73.4188C56.8891 73.4211 74.9774 73.3933 75.334 73.3338C76.344 73.1651 76.9155 72.8411 77.3455 72.1939C78.1761 70.9438 78.2136 70.3457 78.2136 58.3216C78.2136 46.2975 78.1761 45.6994 77.3455 44.4494C76.9213 43.8109 76.3638 43.4907 75.3653 43.3118C75.0975 43.2638 59.8668 43.2396 44.6367 43.2396ZM19.3828 46.8083C18.3729 46.8083 17.4946 47.1464 16.7806 47.8108C15.8103 48.7136 15.3617 50.0766 15.6066 51.3756C15.9126 52.9981 17.2072 54.2536 18.8261 54.4982C19.5404 54.6061 20.3183 54.4948 20.9968 54.1872C22.3625 53.5682 23.24 52.1964 23.2428 50.6756C23.244 50.0202 23.1521 49.6165 22.8561 48.9759C22.6513 48.5326 22.5191 48.3517 22.0878 47.9265C21.2843 47.1342 20.4957 46.8083 19.3828 46.8083ZM69.8905 46.8083C68.7787 46.8083 67.9893 47.1344 67.1879 47.9245C66.6263 48.4782 66.3194 49.01 66.1267 49.7636C65.8423 50.8758 66.1531 52.2171 66.907 53.1312C67.5566 53.9187 68.3513 54.3457 69.5108 54.5301C69.8639 54.5862 70.6421 54.4853 71.1275 54.3204C72.4429 53.8737 73.4067 52.7564 73.6671 51.3756C73.9786 49.7236 73.1624 48.0166 71.6899 47.2408C71.1006 46.9303 70.5924 46.8083 69.8905 46.8083ZM19.4759 47.7774C20.6498 47.7937 21.7645 48.5943 22.1125 49.7458C22.3128 50.4084 22.2662 51.2029 21.9931 51.7891C21.6373 52.5527 20.8825 53.1682 20.072 53.356C18.8258 53.6448 17.5029 53.0166 16.9448 51.871C16.1088 50.155 17.1051 48.1633 18.9714 47.8197C19.1395 47.7887 19.3082 47.775 19.4759 47.7774ZM69.9674 47.7809C70.9479 47.8368 71.9107 48.4553 72.3467 49.3525C73.1207 50.9452 72.2482 52.8826 70.5577 53.325C70.1486 53.432 69.5578 53.4445 69.1755 53.3541C68.3929 53.169 67.6295 52.5387 67.2802 51.7891C67.0071 51.2029 66.961 50.4084 67.1612 49.7458C67.4775 48.6993 68.4309 47.9187 69.5475 47.7921C69.6868 47.7763 69.8273 47.7729 69.9674 47.7809ZM43.8254 50.4939C40.1614 50.4938 36.5114 50.5184 36.2989 50.5681C35.4226 50.7728 35.4374 50.7657 35.0423 51.1613C34.5494 51.6548 34.3894 52.0548 34.316 52.9783C34.2868 53.3456 34.2631 55.4355 34.2631 57.622C34.2631 59.8086 34.2868 61.8981 34.316 62.2654C34.3834 63.1137 34.546 63.5552 34.9569 64.0071C35.3114 64.3969 35.5284 64.5172 36.1004 64.6418C36.4289 64.7134 37.8505 64.7314 43.7783 64.7381C51.1874 64.7465 51.4347 64.7393 52.1029 64.5059C52.6934 64.2996 53.2346 63.5292 53.3677 62.7053C53.4564 62.1558 53.4567 53.0962 53.3684 52.5333C53.2831 51.9915 53.0364 51.491 52.6762 51.1291C52.3673 50.8187 52.0741 50.686 51.4369 50.5684C51.1678 50.5188 47.4895 50.494 43.8254 50.4939ZM43.8335 51.6377C47.4703 51.6369 51.1132 51.662 51.3179 51.7138C51.6563 51.7994 51.9379 52.0941 52.0542 52.4844C52.1709 52.8762 52.1705 62.3643 52.0534 62.7592C51.9381 63.1492 51.6566 63.4442 51.3179 63.5299C50.9154 63.6318 36.66 63.6177 36.3383 63.5152C36.041 63.4203 35.9231 63.3161 35.7554 63.0011L35.6175 62.7426V57.622C35.6175 52.5087 35.6176 52.5009 35.7531 52.2468C35.926 51.9226 36.0603 51.81 36.3843 51.7173C36.5656 51.6654 40.1967 51.6385 43.8335 51.6377ZM19.3828 60.2935C18.3729 60.2935 17.4946 60.6316 16.7806 61.296C15.8103 62.1988 15.3617 63.5618 15.6066 64.8608C15.9126 66.4833 17.2072 67.7388 18.8261 67.9834C18.853 67.9875 18.881 67.9862 18.908 67.9896V67.3552V66.9635C17.5246 66.6911 16.4578 65.3535 16.669 63.792C16.8463 62.4813 18.0274 61.4542 19.3036 61.3872C19.4859 61.3776 19.6702 61.3874 19.8537 61.419C21.2203 61.6543 22.1381 62.6856 22.216 64.0249C22.3432 64.1738 22.4616 64.3304 22.5494 64.5067C22.6101 64.627 22.6597 64.7516 22.7024 64.8794C22.7418 64.9842 22.7796 65.0898 22.8279 65.1908C22.8794 65.3075 22.9356 65.4227 22.9786 65.5429C23.1439 65.109 23.2419 64.6443 23.2428 64.1608C23.244 63.5053 23.1521 63.1016 22.8561 62.4611C22.6513 62.0177 22.5191 61.8369 22.0878 61.4116C21.2843 60.6194 20.4957 60.2935 19.3828 60.2935ZM69.8905 60.2935C68.7787 60.2935 67.9893 60.6196 67.1879 61.4097C66.6263 61.9634 66.3194 62.4951 66.1267 63.2488C65.8423 64.361 66.1531 65.7023 66.907 66.6164C67.5566 67.4039 68.3513 67.8309 69.5108 68.0153C69.8639 68.0714 70.6421 67.9704 71.1275 67.8056C72.4429 67.3589 73.4067 66.2417 73.6671 64.8608C73.9786 63.2088 73.1624 61.5019 71.6899 60.726C71.1006 60.4155 70.5924 60.2935 69.8905 60.2935ZM69.8527 61.3849C70.8675 61.3948 71.8882 62.0215 72.3467 62.965C73.1451 64.608 72.1845 66.592 70.4097 66.9655C68.6656 67.3325 67.0426 66.0156 67.0426 64.2338C67.0426 62.7801 67.9831 61.6663 69.4196 61.419C69.5626 61.3944 69.7077 61.3835 69.8527 61.3849ZM21.9301 65.5088C21.9137 65.5417 21.8884 65.5687 21.8707 65.6008C21.8961 65.5926 21.9217 65.5845 21.9444 65.5767C21.9494 65.5744 21.9527 65.5728 21.9576 65.5705C21.9481 65.5501 21.9391 65.5295 21.9301 65.5088ZM21.6026 73.3109C21.6048 73.3326 21.609 73.354 21.6111 73.3757C21.6306 73.3757 21.6405 73.3756 21.6555 73.3757C21.6493 73.3581 21.6439 73.3402 21.6381 73.3225C21.6264 73.3172 21.6141 73.3172 21.6026 73.3109ZM22.8299 77.7667C22.8316 77.7719 22.8334 77.7771 22.8353 77.7822C22.8357 77.7791 22.8361 77.776 22.8365 77.7729C22.8343 77.7708 22.8321 77.7688 22.8299 77.7667ZM40.8856 81.1254C40.8554 81.1473 40.8248 81.1682 40.7944 81.1899C40.8372 81.1899 40.8699 81.1898 40.9126 81.1899C40.9056 81.1734 40.8984 81.1572 40.8918 81.1398C40.89 81.1349 40.8875 81.1303 40.8856 81.1254ZM27.8044 81.1689C27.804 81.1711 27.8032 81.1729 27.8028 81.1751C27.813 81.1751 27.822 81.1751 27.8322 81.1751C27.8229 81.1729 27.8136 81.1708 27.8044 81.1689Z" fill="#D9AE63"/>
<path d="M26.0021 98.5374C25.7548 98.4291 25.3471 97.9705 24.5811 96.939C24.2427 96.4832 23.7389 95.8678 23.4617 95.5714C23.1845 95.2749 22.6848 94.7032 22.3514 94.3009C21.2235 92.94 16.7227 88.642 15.3942 87.6571C14.9197 87.3054 14.1792 86.7562 13.7486 86.4367C12.7727 85.7126 12.017 85.008 11.699 84.5256C11.5647 84.3219 11.3509 83.9977 11.2239 83.8053C10.9246 83.3519 10.8138 83.0568 10.7179 82.4583C10.5467 81.39 10.8094 80.5848 11.5558 79.8903C12.0365 79.4431 12.8247 79.0433 13.329 78.991C13.9194 78.9298 15.6299 79.3622 16.7591 79.8582C18.1604 80.4736 20.1971 81.5201 20.863 81.9667C21.2381 82.2183 21.5568 82.4121 21.5714 82.3975C21.6007 82.368 21.0994 80.0544 20.9493 79.5267C20.8973 79.3435 20.7246 78.6068 20.5656 77.8896C20.0432 75.5329 19.9733 75.2467 19.7138 74.3998C19.5725 73.9387 19.3268 73.0253 19.1678 72.3701C19.0089 71.7149 18.7822 70.8353 18.6641 70.4155C17.4261 66.014 17.203 64.2734 17.7399 63.2046C18.2051 62.2787 19.4191 61.6056 20.6242 61.6056C21.4526 61.6056 22.3547 61.9549 22.7624 62.4337C23.2547 63.0117 23.7026 64.3123 24.1673 66.5132C24.394 67.5871 24.9151 69.3023 25.0146 69.3023C25.0385 69.3023 25.214 69.1837 25.4045 69.0387C26.3241 68.3389 27.4514 68.0684 28.4066 68.3184C29.2176 68.5307 29.8412 69.0093 30.1785 69.6783C30.2683 69.8563 30.3644 70.0021 30.3921 70.0021C30.4199 70.0021 30.5262 69.9142 30.6284 69.8069C31.4075 68.989 33.0967 68.7085 34.3731 69.185C34.8755 69.3726 35.4885 69.9969 35.7512 70.5887C35.9472 71.0303 36.0244 71.0917 36.1669 70.9192C36.3002 70.7577 36.9128 70.4738 37.4599 70.3198C38.151 70.1254 38.9942 70.1607 39.5406 70.4069C40.4563 70.8195 41.1527 71.5275 41.6123 72.5133C41.9277 73.1896 42.0891 73.8215 42.4252 75.6951C42.6677 77.0465 42.8447 77.9049 42.9957 78.4621C43.0658 78.7205 43.4152 80.8093 43.4746 81.3246C43.5137 81.6642 43.3407 86.8259 43.2817 87.0812C43.2655 87.1512 43.2098 88.7112 43.1578 90.5479C43.1058 92.3847 43.0462 93.9866 43.0254 94.1079C42.9703 94.4277 42.8375 94.6538 42.5959 94.8389C42.3004 95.0654 40.2643 95.5686 34.8493 96.7531C33.2434 97.1044 32.647 97.2344 31.9694 97.3807C30.1214 97.7797 29.3671 97.9515 28.7063 98.1239C28.3127 98.2266 27.7186 98.3816 27.3861 98.4685C26.7167 98.6432 26.2921 98.6644 26.0021 98.5374ZM28.1031 96.5229C28.7936 96.3456 30.213 96.0174 31.2574 95.7935C32.3017 95.5697 33.6831 95.2699 34.3271 95.1274C34.9711 94.9849 35.6262 94.8424 35.7828 94.8107C36.6564 94.6339 41.2973 93.5454 41.3387 93.5076C41.3484 93.4987 41.3979 92.2209 41.4487 90.668C41.5482 87.6277 41.6383 85.7572 41.7365 84.6959C41.9288 82.6169 41.9281 82.2654 41.7297 81.0065C41.5258 79.713 41.4134 79.1248 41.1923 78.1947C41.1116 77.8552 40.9706 77.1539 40.8789 76.6362C40.357 73.6886 40.1776 73.1121 39.5881 72.4886C39.1502 72.0254 38.8332 71.8848 38.2196 71.8817C37.7691 71.8795 37.6748 71.9008 37.3651 72.0751C36.674 72.4639 36.4175 73.1146 36.6545 73.8776C36.9565 74.8498 37.4076 77.0032 37.4629 77.7365C37.5181 78.4681 37.3943 78.8186 37.0172 78.9984C36.7647 79.1189 36.417 79.104 36.2511 78.9657C36.0339 78.7845 35.8119 77.9885 35.4896 76.2358C35.4413 75.9734 35.3182 75.4152 35.2159 74.9954C35.1137 74.5756 34.9575 73.8743 34.8688 73.437C34.5651 71.939 34.2946 71.2202 33.9081 70.8847C33.5753 70.5959 32.6219 70.5674 32.1078 70.831C31.2303 71.281 30.8955 72.0671 31.073 73.2613C31.1674 73.8958 31.5951 75.9465 31.8344 76.912C31.9692 77.4556 31.9834 77.5966 31.9252 77.8137C31.8275 78.1785 31.5484 78.3985 31.1832 78.3985C30.6182 78.3985 30.3765 78.107 30.1544 77.1581C29.8138 75.7026 29.4515 73.9092 29.3576 73.2143C29.2296 72.2666 28.88 70.8571 28.6834 70.496C28.4885 70.1378 28.1058 69.9384 27.6131 69.9384C26.9875 69.9384 26.082 70.4902 25.8681 71.0019C25.739 71.3106 25.7578 72.2566 25.902 72.7109C26.3284 74.0541 26.5598 74.9036 26.836 76.1404C27.2946 78.1934 27.2708 78.0399 27.1708 78.304C26.9307 78.938 26.0771 79.0122 25.7192 78.4302C25.5953 78.2288 25.376 77.4146 25.0852 76.0768C25.0092 75.7269 24.8345 75.0542 24.6971 74.5819C24.5596 74.1096 24.3472 73.3797 24.2251 72.9599C24.0128 72.2298 23.4415 69.9907 23.0891 68.5072C22.9977 68.1224 22.808 67.3925 22.6676 66.8852C22.5271 66.3779 22.3192 65.5907 22.2055 65.1359C22.0919 64.6811 21.9541 64.2051 21.8993 64.0781C21.5004 63.1531 20.5285 62.929 19.6297 63.555C19.3049 63.7812 19.1396 64.1318 19.1393 64.5952C19.1385 65.4573 19.5452 67.314 20.3999 70.3519C20.4984 70.7018 20.6831 71.4255 20.8105 71.9602C20.9379 72.4949 21.1795 73.3966 21.3475 73.9639C21.5155 74.5312 21.7583 75.4677 21.8872 76.045C22.248 77.6607 22.3454 78.0841 22.6489 79.3527C22.9177 80.4762 23.4489 82.8782 23.5373 83.3698C23.5603 83.4977 23.5431 83.7639 23.4991 83.9615C23.4343 84.2524 23.3743 84.3564 23.1834 84.5083C22.886 84.7451 22.6135 84.7517 21.9869 84.5375C21.4578 84.3567 21.2577 84.2454 20.1178 83.4984C19.3211 82.9763 16.9469 81.7613 16.2274 81.5076C16.037 81.4404 15.6668 81.3024 15.4046 81.2008C13.9338 80.6309 13.4345 80.6169 12.8542 81.1289C12.5866 81.3651 12.4729 81.6637 12.4729 82.1307C12.4729 82.3937 12.5263 82.5735 12.7193 82.9609C13.0824 83.6898 13.806 84.3881 15.4025 85.5505C17.1593 86.8297 17.4509 87.0681 18.4405 88.0337C18.9105 88.4923 19.8789 89.4147 20.5925 90.0835C22.2212 91.6098 23.1104 92.5176 23.7039 93.2601C23.9595 93.5798 24.4417 94.138 24.7756 94.5005C25.2747 95.0424 25.7159 95.5968 26.5734 96.7599C26.6658 96.8853 26.7314 96.8751 28.1031 96.5229Z" fill="#D9AE63"/>
<path d="M16.4187 59.2395L14.8765 56.1222L16.4187 59.2395Z" fill="#D9AE63"/>
<path d="M16.4187 59.2395L14.8765 56.1222" stroke="#D9AE63" stroke-width="1.53838" stroke-linecap="round"/>
<path d="M21.4846 58.9382L22.9817 55.7988L21.4846 58.9382Z" fill="#D9AE63"/>
<path d="M21.4846 58.9382L22.9817 55.7988" stroke="#D9AE63" stroke-width="1.53838" stroke-linecap="round"/>
<path d="M25.0135 61.7786L27.7577 59.6541L25.0135 61.7786Z" fill="#D9AE63"/>
<path d="M25.0135 61.7786L27.7577 59.6541" stroke="#D9AE63" stroke-width="1.53838" stroke-linecap="round"/>
<path d="M10.0084 61.9805L13.3579 62.8683L10.0084 61.9805Z" fill="#D9AE63"/>
<path d="M10.0084 61.9805L13.3579 62.8683" stroke="#D9AE63" stroke-width="1.53838" stroke-linecap="round"/>
<path d="M11.6116 70.3209L14.359 68.2006L11.6116 70.3209Z" fill="#D9AE63"/>
<path d="M11.6116 70.3209L14.359 68.2006" stroke="#D9AE63" stroke-width="1.53838" stroke-linecap="round"/>
</g>
<defs>
<clipPath id="clip0_1084_2443">
<rect width="89.2643" height="90.9173" fill="white" transform="translate(0.44873)"/>
</clipPath>
</defs>
</svg>
