<svg width="69" height="68" viewBox="0 0 69 68" fill="none" xmlns="http://www.w3.org/2000/svg">
<path d="M58.8361 13.0614C64.0707 18.2961 65.8156 27.0205 65.8156 34C65.8156 40.9795 64.0707 49.7039 58.8361 54.9385M48.3668 23.5306C50.1117 25.2755 51.8566 28.7653 51.8566 34C51.8566 39.2346 50.1117 42.7244 48.3668 44.4692M3 28.7653V39.2346C3 43.0894 4.74488 46.2141 11.7244 47.959C18.7039 49.7039 23.9385 65.4078 34.4078 65.4078C41.3873 65.4078 41.3873 2.59216 34.4078 2.59216C23.9385 2.59216 18.7039 18.2961 11.7244 20.0409C4.74488 21.7858 3 24.9107 3 28.7653Z" stroke="#D9AE63" stroke-width="4.95913" stroke-linecap="round" stroke-linejoin="round"/>
</svg>
