<svg width="89" height="72" viewBox="0 0 89 72" fill="none" xmlns="http://www.w3.org/2000/svg">
<path d="M38.7835 13.977C44.6686 10.7726 50.0144 7.75678 55.4596 4.9242C60.1719 2.4843 65.2402 1.1701 70.4551 0.405668C72.5247 0.0382065 74.651 0.151061 76.67 0.735526C79.068 1.49472 79.9791 2.59425 79.555 5.02891C79.178 7.19655 79.555 9.16522 80.0367 11.2229C80.8325 14.5686 81.4765 17.9457 82.131 21.3228C83.2934 27.3388 84.3562 33.3653 85.5762 39.3865C85.9322 41.1352 86.6966 42.795 87.2464 44.5071C87.7045 45.7759 88.0908 47.0695 88.4035 48.3816C89.0161 51.3399 87.4715 53.7379 84.5185 54.4238C81.9006 55.0312 79.2303 55.471 76.6124 56.094C68.6858 57.9744 61.5535 62.3054 56.2293 68.4715C54.9427 69.9336 53.1739 70.8849 51.2448 71.1523C50.5104 71.2912 49.7555 71.2797 49.0257 71.1187C48.2958 70.9576 47.6062 70.6502 46.9985 70.2151C41.3229 66.4296 34.8566 64.4242 28.5003 62.2304C23.898 60.6597 19.0758 60.6597 14.2588 61.0262C12.4729 61.2196 10.678 61.3192 8.88164 61.3246C6.40509 61.2618 5.6616 60.5393 5.43646 58.1255C5.08741 54.251 4.78024 50.3695 4.51496 46.481C3.81335 36.0094 2.94421 25.5743 1.08548 15.2336C0.677088 12.9507 0.954588 12.223 2.95991 11.2857C4.46037 10.6057 6.01574 10.0539 7.60934 9.63645C17.4789 6.93999 26.8982 8.58928 36.0556 12.6523C37.0086 13.0869 37.9353 13.5633 38.7835 13.977ZM52.6794 63.487C54.3601 62.0838 55.8209 60.8272 57.2974 59.6387C63.5277 54.6611 70.9322 51.3672 78.801 50.0728C79.9424 49.8843 81.199 49.811 81.9425 48.6015C78.0156 34.5538 75.2825 20.2285 73.1987 5.9033C66.8266 4.40061 49.0929 13.1602 43.1502 19.061C42.7994 23.0192 43.7942 26.9566 44.4801 30.9097C45.1451 34.7318 46.2655 38.4964 46.6582 42.3395C47.119 46.8371 48.5012 51.0676 49.6898 55.3558C50.4071 57.9318 51.5275 60.4241 52.6794 63.487ZM7.37372 15.6105C7.43655 16.7048 7.41561 17.4536 7.52556 18.1866C9.14344 29.1818 10.6409 40.1457 10.7508 51.2666C10.7528 52.7801 11.144 54.2676 11.887 55.5862C13.018 55.5862 14.0494 55.6542 15.0704 55.5862C22.1216 54.9618 29.2218 55.9705 35.82 58.5339C38.1919 59.4659 40.5323 60.4502 42.9146 61.3665C43.7176 61.6118 44.534 61.8111 45.3597 61.9634C45.2211 61.1131 45.0376 60.2707 44.81 59.4397C41.8779 51.0624 40.6894 42.2767 38.9615 33.6218C38.2599 30.1138 38.04 26.4958 37.6892 22.9198C37.5007 20.9616 36.642 19.7154 34.8723 18.7049C29.8875 15.9053 24.3631 14.2006 18.6674 13.7047C14.801 13.3424 10.9072 13.9995 7.37372 15.6105Z" fill="#D9AE63"/>
<path d="M52.6794 63.487C51.5275 60.4031 50.4071 57.9317 49.6898 55.3505C48.5012 51.0623 47.119 46.8108 46.6582 42.3342C46.2655 38.4911 45.145 34.7265 44.4801 30.9044C43.7942 26.9513 42.8099 23.014 43.1502 19.0609C49.0929 13.1601 66.8266 4.40056 73.2144 5.90324C75.3087 20.2285 78.0313 34.5537 81.9582 48.6015C81.199 49.811 79.9424 49.8843 78.8167 50.0728C70.9479 51.3671 63.5434 54.661 57.3131 59.6386C55.8 60.8272 54.3601 62.0838 52.6794 63.487Z" fill="white"/>
<path d="M7.37366 15.6106C10.9061 13.996 14.8 13.3353 18.6674 13.6943C24.372 14.1865 29.9057 15.8913 34.8985 18.6945C36.6891 19.705 37.5164 20.9511 37.7153 22.9093C38.0661 26.4854 38.286 30.1034 38.9876 33.6114C40.7155 42.2662 41.904 51.0467 44.8361 59.4293C45.0638 60.2602 45.2473 61.1026 45.3858 61.953C44.5601 61.8007 43.7437 61.6014 42.9407 61.3561C40.5636 60.4398 38.2284 59.4555 35.8461 58.5235C29.2365 55.9544 22.1231 54.9456 15.0599 55.5757C14.0389 55.6543 13.0074 55.5757 11.8765 55.5757C11.1335 54.2572 10.7422 52.7696 10.7403 51.2562C10.6303 40.1352 9.1329 29.1505 7.51503 18.1761C7.41554 17.4536 7.43649 16.7049 7.37366 15.6106Z" fill="white"/>
</svg>
