<svg width="326" height="40" viewBox="0 0 326 40" fill="none" xmlns="http://www.w3.org/2000/svg">
<g style="mix-blend-mode:multiply" opacity="0.75">
<path d="M180.888 1.40275C184.972 1.40275 189.057 1.48243 193.141 1.37287C196.672 1.28324 200.204 1.26332 203.761 1.25336C206.37 1.25336 208.979 1.2932 211.588 1.37287C212.589 1.40275 213.59 1.40275 214.592 1.343C216.041 1.25336 217.49 1.23345 218.966 1.24341C224.579 1.27328 230.192 1.11394 235.778 0.914754C238.387 0.825122 240.996 0.805203 243.605 0.735489C254.356 0.476552 265.16 0.446674 275.938 0.566184C282.474 0.635898 288.982 0.894836 295.544 0.874917C298.864 0.874917 302.132 0.695653 305.452 0.695653C307.771 0.695653 309.589 1.09402 311.513 1.44259C312.409 1.60193 312.936 1.95051 313.147 2.34887C314.069 4.06184 314.86 5.77482 315.044 7.52763C315.044 7.72681 315.044 7.95587 315.255 8.12517C316.625 9.27048 316.362 10.5154 316.915 11.7105C317.864 13.772 318.048 15.8734 319.34 17.915C319.471 18.1142 319.603 18.3233 319.577 18.5225C319.419 19.7375 320.473 20.8729 321.131 22.0281C321.395 22.4763 321.026 22.9045 321.237 23.3228C321.948 24.6673 321.843 26.0516 322.976 27.3662C323.187 27.6152 323.319 27.8841 323.292 28.1431C322.976 30.1448 324.267 32.0769 324.9 34.0389C325.005 34.3874 325.137 34.736 325.111 35.0846C325.031 35.6921 324.452 35.951 322.871 35.9809C318.971 36.0606 315.097 36.1701 311.118 36.0606C303.212 35.8514 295.386 35.3535 287.48 35.1642C280.866 35.0149 274.252 34.9551 267.638 34.9153C260.654 34.8754 253.618 34.7958 246.872 33.9293C243.605 33.511 240.179 33.4612 236.832 33.4214C232.063 33.3716 227.293 33.2521 222.523 33.1923C207.134 32.9932 191.718 32.9434 176.329 33.0529C169.319 33.1027 162.31 33.0927 155.327 33.2421C150.109 33.3517 144.891 33.5509 139.674 33.6604C134.667 33.76 129.713 33.9891 124.732 34.1086C116.748 34.3078 108.79 34.5269 100.831 34.8854C95.034 35.1443 89.184 35.3136 83.4129 35.6722C76.746 36.0805 69.9473 36.19 63.3593 36.8274C61.8046 36.9768 60.1708 37.0067 58.5897 37.1262C51.7909 37.6341 44.9659 38.0524 38.2725 38.7296C35.6637 38.9886 33.0285 39.1977 30.3934 39.4268C28.6278 39.5761 26.9677 39.5363 25.7555 38.9686C23.7791 38.0424 20.8804 37.4648 19.2203 36.4091C18.6932 36.0805 17.6919 35.9311 16.7696 35.7917C12.8959 35.1842 11.4729 33.9393 10.8404 32.5052C10.6823 32.1367 10.4715 31.7682 10.208 31.4097C9.28568 30.1448 8.57419 28.8701 8.04715 27.5754C7.67823 26.6293 7.44107 25.6632 6.70322 24.747C6.30794 24.2391 6.14983 23.7212 6.17619 23.1934C6.20254 22.6157 5.78091 22.1078 4.75319 21.6696C3.2775 21.0422 2.69776 20.3351 3.2248 19.4886C3.75183 18.6619 3.25115 17.8553 2.30249 17.1183C1.45924 16.4709 1.43288 15.8634 2.14438 15.1862C2.82952 14.5389 2.61871 13.8915 1.53829 13.2741C0.0362445 12.4076 0.141651 12.2582 2.01262 11.4714C3.11939 11.0034 4.43697 10.7046 6.01808 10.5054C19.1939 8.85219 32.7914 7.79652 46.3098 6.65122C55.3221 5.88437 64.4397 5.28682 73.5311 4.68927C78.9859 4.33074 84.5197 4.14152 90.0009 3.87262C94.2699 3.66348 98.5388 3.4145 102.808 3.26511C108.157 3.07589 113.48 2.74724 118.882 2.62773C123.784 2.51818 128.685 2.30903 133.587 2.15965C136.512 2.07001 139.41 2.02022 142.335 1.94055C145.392 1.86087 148.475 1.76128 151.532 1.67165C152.138 1.65173 152.771 1.61189 153.377 1.61189C162.547 1.68161 171.691 1.2932 180.861 1.40275H180.888Z" fill="#DDECF4"/>
</g>
</svg>
