<svg width="183" height="39" viewBox="0 0 183 39" fill="none" xmlns="http://www.w3.org/2000/svg">
<g style="mix-blend-mode:multiply" opacity="0.75">
<path d="M101.917 0.902782C104.213 0.902782 106.51 0.982456 108.806 0.872905C110.791 0.783273 112.776 0.763355 114.776 0.753395C116.243 0.753395 117.709 0.793232 119.176 0.872905C119.739 0.902783 120.302 0.902782 120.865 0.843028C121.68 0.753395 122.495 0.733477 123.324 0.743436C126.48 0.773314 129.635 0.613967 132.776 0.414785C134.243 0.325152 135.709 0.305234 137.176 0.23552C143.22 -0.0234177 149.295 -0.0532952 155.354 0.0662145C159.028 0.135929 162.687 0.394866 166.376 0.374948C168.243 0.374948 170.08 0.195683 171.946 0.195683C173.25 0.195683 174.272 0.594049 175.354 0.942619C175.857 1.10197 176.154 1.45054 176.272 1.8489C176.791 3.56187 177.235 5.27485 177.339 7.02766C177.339 7.22684 177.339 7.4559 177.457 7.6252C178.228 8.77051 178.08 10.0154 178.391 11.2105C178.924 13.272 179.028 15.3734 179.754 17.415C179.828 17.6142 179.902 17.8234 179.887 18.0225C179.798 19.2376 180.391 20.3729 180.761 21.5282C180.909 21.9763 180.702 22.4046 180.82 22.8229C181.22 24.1673 181.161 25.5517 181.798 26.8663C181.917 27.1152 181.991 27.3841 181.976 27.6431C181.798 29.6449 182.524 31.5769 182.88 33.5389C182.939 33.8875 183.013 34.236 182.998 34.5846C182.954 35.1921 182.628 35.451 181.739 35.4809C179.546 35.5606 177.368 35.6701 175.131 35.5606C170.687 35.3515 166.287 34.8535 161.843 34.6643C158.124 34.5149 154.406 34.4551 150.687 34.4153C146.761 34.3755 142.806 34.2958 139.013 33.4293C137.176 33.0111 135.25 32.9613 133.369 32.9214C130.687 32.8716 128.006 32.7521 125.324 32.6924C116.672 32.4932 108.006 32.4434 99.354 32.5529C95.4133 32.6027 91.4725 32.5928 87.5466 32.7422C84.6133 32.8517 81.68 33.0509 78.7467 33.1604C75.9319 33.26 73.1467 33.4891 70.3467 33.6086C65.8578 33.8078 61.3838 34.0269 56.9097 34.3854C53.6505 34.6444 50.3616 34.8137 47.1172 35.1722C43.369 35.5805 39.5468 35.6901 35.8431 36.3275C34.9691 36.4768 34.0506 36.5067 33.1617 36.6262C29.3395 37.1341 25.5024 37.5524 21.7395 38.2296C20.2728 38.4886 18.7914 38.6977 17.3099 38.9268C16.3173 39.0762 15.384 39.0363 14.7025 38.4687C13.5914 37.5425 11.9618 36.9648 11.0284 35.9092C10.7321 35.5805 10.1692 35.4311 9.65066 35.2917C7.47289 34.6842 6.6729 33.4393 6.31734 32.0052C6.22845 31.6367 6.10994 31.2682 5.96179 30.9097C5.44327 29.6449 5.04327 28.3701 4.74698 27.0754C4.53957 26.1293 4.40624 25.1633 3.99143 24.247C3.7692 23.7391 3.68032 23.2212 3.69513 22.6934C3.70995 22.1158 3.47291 21.6078 2.89513 21.1696C2.06551 20.5422 1.73958 19.8351 2.03588 18.9886C2.33217 18.162 2.05069 17.3553 1.51736 16.6183C1.04329 15.971 1.02847 15.3635 1.42847 14.6862C1.81366 14.0389 1.69514 13.3915 1.08773 12.7741C0.243293 11.9076 0.302552 11.7582 1.3544 10.9715C1.97662 10.5034 2.71736 10.2046 3.60624 10.0054C11.0136 8.35222 18.658 7.29655 26.258 6.15125C31.3246 5.3844 36.4505 4.78685 41.5616 4.1893C44.6283 3.83077 47.7394 3.64155 50.8209 3.37265C53.2208 3.16351 55.6208 2.91453 58.0208 2.76514C61.0282 2.57592 64.0208 2.24727 67.0578 2.12776C69.8134 2.01821 72.5689 1.80906 75.3245 1.65968C76.9689 1.57004 78.5985 1.52025 80.243 1.44058C81.9615 1.3609 83.6948 1.26131 85.4133 1.17168C85.754 1.15176 86.1096 1.11192 86.4503 1.11192C91.6059 1.18164 96.7466 0.793232 101.902 0.902782H101.917Z" fill="#DBD1BE"/>
</g>
</svg>
