<svg width="307" height="40" viewBox="0 0 307 40" fill="none" xmlns="http://www.w3.org/2000/svg">
<g style="mix-blend-mode:multiply" opacity="0.75">
<path d="M170.488 1.40275C174.329 1.40275 178.171 1.48243 182.013 1.37287C185.334 1.28324 188.655 1.26332 192.001 1.25336C194.455 1.25336 196.909 1.2932 199.363 1.37287C200.304 1.40275 201.246 1.40275 202.188 1.343C203.551 1.25336 204.914 1.23345 206.302 1.24341C211.582 1.27328 216.861 1.11394 222.115 0.914754C224.569 0.825122 227.023 0.805203 229.477 0.735489C239.589 0.476552 249.751 0.446674 259.888 0.566184C266.035 0.635898 272.157 0.894836 278.328 0.874917C281.451 0.874917 284.525 0.695653 287.648 0.695653C289.829 0.695653 291.539 1.09402 293.348 1.44259C294.191 1.60193 294.687 1.9505 294.885 2.34887C295.752 4.06184 296.496 5.77482 296.669 7.52762C296.669 7.72681 296.669 7.95587 296.868 8.12517C298.157 9.27047 297.909 10.5154 298.429 11.7105C299.321 13.772 299.495 15.8734 300.709 17.915C300.833 18.1142 300.957 18.3233 300.932 18.5225C300.784 19.7375 301.775 20.8729 302.395 22.0281C302.643 22.4763 302.296 22.9045 302.494 23.3228C303.163 24.6673 303.064 26.0516 304.13 27.3662C304.328 27.6152 304.452 27.8841 304.427 28.143C304.13 30.1448 305.344 32.0769 305.939 34.0389C306.038 34.3874 306.162 34.736 306.137 35.0846C306.063 35.6921 305.518 35.951 304.031 35.9809C300.362 36.0606 296.719 36.1701 292.976 36.0606C285.541 35.8514 278.18 35.3535 270.744 35.1642C264.523 35.0149 258.302 34.9551 252.081 34.9153C245.513 34.8754 238.895 34.7958 232.55 33.9293C229.477 33.511 226.255 33.4612 223.107 33.4214C218.621 33.3716 214.135 33.2521 209.648 33.1923C195.174 32.9931 180.674 32.9434 166.2 33.0529C159.607 33.1027 153.014 33.0927 146.446 33.2421C141.539 33.3517 136.631 33.5509 131.724 33.6604C127.014 33.76 122.355 33.9891 117.67 34.1086C110.16 34.3078 102.675 34.5269 95.1901 34.8854C89.7374 35.1443 84.235 35.3136 78.8071 35.6722C72.5364 36.0805 66.1418 36.19 59.9455 36.8274C58.4832 36.9768 56.9465 37.0067 55.4594 37.1262C49.0648 37.6341 42.6454 38.0524 36.3499 38.7296C33.8962 38.9886 31.4177 39.1977 28.9391 39.4268C27.2785 39.5761 25.717 39.5363 24.5769 38.9686C22.718 38.0424 19.9917 37.4648 18.4302 36.4091C17.9345 36.0805 16.9926 35.9311 16.1252 35.7917C12.4817 35.1842 11.1433 33.9393 10.5485 32.5052C10.3998 32.1367 10.2015 31.7682 9.95362 31.4096C9.08614 30.1448 8.41694 28.8701 7.92123 27.5754C7.57424 26.6293 7.35117 25.6632 6.65719 24.747C6.28541 24.2391 6.1367 23.7212 6.16148 23.1934C6.18627 22.6157 5.7897 22.1078 4.82308 21.6696C3.4351 21.0422 2.88983 20.3351 3.38553 19.4886C3.88124 18.6619 3.41032 17.8553 2.51805 17.1183C1.72492 16.4709 1.70013 15.8634 2.36934 15.1862C3.01375 14.5389 2.81547 13.8915 1.79928 13.274C0.386516 12.4076 0.485657 12.2582 2.24541 11.4714C3.28639 11.0034 4.52565 10.7046 6.01277 10.5054C18.4054 8.85219 31.1946 7.79652 43.9094 6.65122C52.386 5.88437 60.9617 5.28682 69.5126 4.68927C74.6431 4.33074 79.848 4.14152 85.0034 3.87262C89.0186 3.66348 93.0338 3.4145 97.049 3.26511C102.08 3.07589 107.087 2.74724 112.168 2.62773C116.778 2.51818 121.388 2.30903 125.998 2.15965C128.749 2.07001 131.476 2.02022 134.227 1.94055C137.102 1.86087 140.002 1.76128 142.877 1.67165C143.447 1.65173 144.042 1.61189 144.612 1.61189C153.237 1.68161 161.838 1.2932 170.463 1.40275H170.488Z" fill="#E9E3D8"/>
</g>
</svg>
