<svg width="71" height="133" viewBox="0 0 71 133" fill="none" xmlns="http://www.w3.org/2000/svg">
<path d="M0.485062 59.695V38.2999H38.7287V132.839H14.6593V59.695H0.485062Z" fill="#4E517E"/>
<path d="M44.0588 18.7167C46.333 19.2761 48.6526 19.6437 50.9116 20.235C51.321 21.0181 51.23 21.9611 51.2755 22.8241C51.2755 24.5502 51.1391 26.2763 51.1845 27.9864C51.1845 29.297 52.079 30.176 53.2464 29.3449C54.1713 28.6417 54.7777 27.5549 55.3841 26.548C55.9603 25.5571 56.4606 24.5342 56.9609 23.4954C57.2641 22.8721 57.5218 22.2328 57.8857 21.6415C58.1131 21.2899 58.5528 21.3538 58.9015 21.3857C60.2053 21.6095 61.4485 22.1049 62.7524 22.3607C64.0714 22.6483 65.3904 22.936 66.7094 23.2237C67.2097 23.3196 67.7252 23.4155 68.2104 23.5433C68.6197 23.6233 69.0897 23.7191 69.4839 23.5114C70.1055 23.1917 70.1661 22.3926 69.8629 21.8173C68.8926 20.0113 67.3007 18.6048 65.9059 17.1824C65.1478 16.4472 64.3595 15.728 63.6469 14.9768C63.0405 14.4974 63.1163 13.7942 63.283 13.1069C63.6924 11.5886 64.3898 10.1822 65.0569 8.79173C65.2843 8.32824 65.5269 7.84876 65.7543 7.38528C65.9362 7.01769 66.1485 6.60215 66.0575 6.18661C65.6936 4.79615 64.0108 5.45142 63.1163 5.835C61.676 6.50625 60.3266 7.35331 58.8712 8.00859C58.1738 8.45609 57.4309 7.81681 56.8699 7.41725C56.1119 6.77796 55.4448 6.02679 54.7777 5.27562C53.6709 4.02901 52.5793 2.76641 51.5029 1.50381C50.9268 0.848536 50.2142 -0.318162 49.2894 0.448986C49.2742 0.448986 49.2591 0.480945 49.2439 0.480945C47.7733 1.6956 49.2439 7.80082 49.5471 9.63878C49.6078 9.99039 49.6988 10.358 49.7746 10.7096C49.7746 10.8055 49.7897 10.9174 49.7291 10.9973C48.9862 11.7484 47.9249 12.0681 47.0001 12.5156C45.0292 13.3786 42.9824 14.1138 40.9205 14.7371C40.405 14.881 39.8744 15.0408 39.4651 15.4084C37.7519 17.3902 42.9369 18.429 44.074 18.7487L44.0588 18.7167ZM46.7424 17.9655C44.7563 17.55 42.7398 17.1824 40.9054 16.2554C42.7398 15.6002 44.6046 15.0408 46.424 14.2896C47.743 13.7302 49.1378 13.2987 50.3052 12.4197C50.3507 12.3877 50.381 12.3558 50.4265 12.3238C51.1542 11.7165 51.3513 10.7575 51.0784 9.83056C50.9116 9.04743 50.7145 8.24833 50.5629 7.46519C50.3204 6.25054 50.1687 5.09982 50.0171 3.90115C49.9565 3.14998 49.8807 2.36685 50.0475 1.63167C51.5181 3.29382 52.8522 5.1158 54.338 6.76197C55.5206 7.99261 56.7941 9.60681 58.5831 9.67074C59.1744 9.67074 59.6899 9.31913 60.1902 9.03145C61.585 8.24832 63.0405 7.49716 64.4808 6.93778C63.6166 8.87163 62.5856 10.7575 62.0398 12.8352C61.7063 14.0659 61.8731 15.2006 62.8434 16.0477C63.6014 16.8628 64.3291 17.6938 65.0872 18.5089C66.1788 19.7076 67.3917 20.7944 68.362 22.1049C65.9211 21.5456 63.4801 21.0341 61.024 20.5866C59.9476 20.2031 58.765 19.6277 57.6431 20.1231C56.779 20.4747 56.4757 21.4497 56.0967 22.2488C55.657 23.1438 55.187 24.0228 54.7474 24.8539C54.1258 25.9567 53.5345 27.0914 52.6703 28.0024C52.6097 25.653 52.9584 23.2876 52.6248 20.9542C52.3065 19.0204 51.6394 18.7806 49.9262 18.5729C48.8649 18.3971 47.8036 18.2053 46.7424 17.9975V17.9655Z" fill="#D9AE63"/>
</svg>
