<svg width="32" height="30" viewBox="0 0 32 30" fill="none" xmlns="http://www.w3.org/2000/svg">
<path d="M5.05885 18.7167C7.333 19.2761 9.65264 19.6437 11.9116 20.235C12.321 21.0181 12.23 21.9611 12.2755 22.8241C12.2755 24.5502 12.1391 26.2763 12.1845 27.9864C12.1845 29.297 13.079 30.176 14.2464 29.3449C15.1713 28.6417 15.7777 27.5549 16.3841 26.548C16.9603 25.5571 17.4606 24.5342 17.9609 23.4954C18.2641 22.8721 18.5218 22.2328 18.8857 21.6415C19.1131 21.2899 19.5528 21.3538 19.9015 21.3857C21.2053 21.6095 22.4485 22.1049 23.7524 22.3607C25.0714 22.6483 26.3904 22.936 27.7094 23.2237C28.2097 23.3196 28.7252 23.4155 29.2104 23.5433C29.6197 23.6233 30.0897 23.7191 30.4839 23.5114C31.1055 23.1917 31.1661 22.3926 30.8629 21.8173C29.8926 20.0113 28.3007 18.6048 26.9059 17.1824C26.1478 16.4472 25.3595 15.728 24.6469 14.9768C24.0405 14.4974 24.1163 13.7942 24.283 13.1069C24.6924 11.5886 25.3898 10.1822 26.0569 8.79173C26.2843 8.32824 26.5269 7.84876 26.7543 7.38528C26.9362 7.01769 27.1485 6.60215 27.0575 6.18661C26.6936 4.79615 25.0108 5.45142 24.1163 5.835C22.676 6.50625 21.3266 7.35331 19.8712 8.00859C19.1738 8.45609 18.4309 7.81681 17.8699 7.41725C17.1119 6.77796 16.4448 6.02679 15.7777 5.27562C14.6709 4.02901 13.5793 2.76641 12.5029 1.50381C11.9268 0.848536 11.2142 -0.318162 10.2894 0.448986C10.2742 0.448986 10.2591 0.480945 10.2439 0.480945C8.7733 1.6956 10.2439 7.80082 10.5471 9.63878C10.6078 9.99039 10.6988 10.358 10.7746 10.7096C10.7746 10.8055 10.7897 10.9174 10.7291 10.9973C9.98619 11.7484 8.92491 12.0681 8.00009 12.5156C6.02915 13.3786 3.98241 14.1138 1.92051 14.7371C1.40504 14.881 0.874405 15.0408 0.465057 15.4084C-1.24814 17.3902 3.93693 18.429 5.07401 18.7487L5.05885 18.7167ZM7.74235 17.9655C5.75626 17.55 3.73984 17.1824 1.90535 16.2554C3.73984 15.6002 5.60465 15.0408 7.42397 14.2896C8.74298 13.7302 10.1378 13.2987 11.3052 12.4197C11.3507 12.3877 11.381 12.3558 11.4265 12.3238C12.1542 11.7165 12.3513 10.7575 12.0784 9.83056C11.9116 9.04743 11.7145 8.24833 11.5629 7.46519C11.3204 6.25054 11.1687 5.09982 11.0171 3.90115C10.9565 3.14998 10.8807 2.36685 11.0475 1.63167C12.5181 3.29382 13.8522 5.1158 15.338 6.76197C16.5206 7.99261 17.7941 9.60681 19.5831 9.67074C20.1744 9.67074 20.6899 9.31913 21.1902 9.03145C22.585 8.24832 24.0405 7.49716 25.4808 6.93778C24.6166 8.87163 23.5856 10.7575 23.0398 12.8352C22.7063 14.0659 22.8731 15.2006 23.8434 16.0477C24.6014 16.8628 25.3291 17.6938 26.0872 18.5089C27.1788 19.7076 28.3917 20.7944 29.362 22.1049C26.9211 21.5456 24.4801 21.0341 22.024 20.5866C20.9476 20.2031 19.765 19.6277 18.6431 20.1231C17.779 20.4747 17.4757 21.4497 17.0967 22.2488C16.657 23.1438 16.187 24.0228 15.7474 24.8539C15.1258 25.9567 14.5345 27.0914 13.6703 28.0024C13.6097 25.653 13.9584 23.2876 13.6248 20.9542C13.3065 19.0204 12.6394 18.7806 10.9262 18.5729C9.86489 18.3971 8.80362 18.2053 7.74235 17.9975V17.9655Z" fill="#D9AE63"/>
</svg>
