<svg width="68" height="97" viewBox="0 0 68 97" fill="none" xmlns="http://www.w3.org/2000/svg">
<path d="M0.148676 78.9138C28.4971 58.6776 42.6714 42.5868 42.6714 30.6412C42.6714 23.3312 39.5067 19.6762 33.1773 19.6762C29.6115 19.6762 26.9817 20.9243 25.2879 23.4204C23.6833 25.9164 22.7918 29.7943 22.6135 35.0539H0.282395C0.817272 23.5541 4.29397 14.9069 10.7125 9.11239C17.131 3.3179 25.2433 0.420649 35.0494 0.420649C45.3012 0.420649 53.0123 3.00589 58.1828 8.17636C63.4424 13.3468 66.0722 20.0774 66.0722 28.368C66.0722 37.55 62.551 46.5538 55.5084 55.3792C48.4659 64.1155 40.0416 71.5147 30.2355 77.5766H67.5431V96.0299H0.148676V78.9138Z" fill="#4E517E"/>
</svg>
