<svg width="84" height="140" viewBox="0 0 84 140" fill="none" xmlns="http://www.w3.org/2000/svg">
<path d="M0.148676 121.914C28.4971 101.678 42.6714 85.5868 42.6714 73.6412C42.6714 66.3312 39.5067 62.6762 33.1773 62.6762C29.6115 62.6762 26.9817 63.9243 25.2879 66.4204C23.6833 68.9164 22.7918 72.7943 22.6135 78.0539H0.282395C0.817272 66.5541 4.29397 57.9069 10.7125 52.1124C17.131 46.3179 25.2433 43.4206 35.0494 43.4206C45.3012 43.4206 53.0123 46.0059 58.1828 51.1764C63.4424 56.3468 66.0722 63.0774 66.0722 71.368C66.0722 80.55 62.551 89.5538 55.5084 98.3792C48.4659 107.116 40.0416 114.515 30.2355 120.577H67.5431V139.03H0.148676V121.914Z" fill="#4E517E"/>
<path d="M65.0462 25.0501C65.2127 22.8299 65.6568 20.5265 65.7955 19.8605C66.0453 18.6117 65.8788 17.9179 64.6022 17.4184C61.2165 16.0585 56.9705 14.8097 54.2508 12.312C54.1676 12.2288 54.0843 12.1455 54.0288 12.0345C53.89 11.7015 54.2786 11.3407 54.6393 11.2852C55.2499 11.1742 56.0824 11.202 56.693 11.2852C59.6624 11.8125 62.6318 12.3953 65.6013 13.0613C66.6003 13.2834 66.7669 12.8393 67.0166 12.09C68.0712 8.87083 69.1813 5.67939 70.3191 2.51569C70.4856 2.04391 71.4014 -0.0374615 72.2062 0.1568C72.789 0.295559 72.7612 2.48794 72.789 3.07073C72.9555 5.20761 72.789 7.37223 72.4005 9.48136C72.2062 10.6192 71.4569 12.8671 72.5947 13.7551C73.566 14.5044 75.2589 14.3657 76.6465 14.6154C78.5891 14.9485 80.5595 15.2537 82.5021 15.6145C82.7241 15.67 82.9184 16.114 83.0294 16.3915C83.0571 16.4748 82.7518 16.7801 82.5576 16.8078C80.1709 17.3351 77.7843 17.8901 75.3699 18.3342C73.7048 18.6394 71.5957 18.3342 70.4856 19.25C69.431 20.1103 69.4588 22.2471 68.9592 23.8012C68.3209 25.6884 67.6549 27.5477 66.9334 29.3793C66.8224 29.6291 66.4338 29.9899 66.2396 29.9344C65.0185 29.6291 64.852 27.3535 65.0185 25.0223L65.0462 25.0501ZM67.2386 20.8873C67.0444 21.7199 66.9056 22.5802 67.0721 23.4127C67.2942 23.4127 67.6827 23.3017 67.7937 23.052C68.1822 21.8309 68.4875 20.6098 68.876 19.3887C69.32 17.9456 70.0693 16.8633 71.7899 16.8356C73.122 16.8356 74.4818 16.8356 75.7862 16.7246C76.5355 16.6413 77.8398 16.0585 78.5336 16.336C76.4522 15.559 74.0933 15.8088 71.9287 15.2815C70.7354 14.9762 70.1248 14.2547 70.2913 13.0058C70.5411 11.1465 70.8186 9.31486 71.0406 7.45549C71.0684 7.12247 70.9573 6.78945 70.9018 6.45643C70.6798 6.67844 70.3746 6.90046 70.2913 7.17798C69.875 8.26029 69.5698 9.39811 69.1535 10.4804C67.2109 15.7533 68.3209 15.1705 62.9649 14.2547C61.7715 14.0326 60.4672 13.4499 59.2461 13.7274C60.9667 15.115 62.8539 15.4202 64.9352 15.9475C66.1841 16.2528 67.2386 16.4193 67.5439 17.7791C67.7937 18.8614 67.5161 19.916 67.2941 20.9706L67.2386 20.8873ZM75.8139 10.1752C75.5364 10.4804 75.4809 10.8412 75.8139 11.2852C76.4522 12.1178 81.0867 9.03735 81.725 8.23255C81.4753 8.56557 76.924 8.98183 75.8139 10.1752ZM55.6662 25.3831C55.8604 25.4386 56.1102 25.5219 56.3045 25.4664C58.3303 24.6338 60.3562 23.8013 62.3821 22.9409C62.6874 22.8022 63.0204 22.6357 63.2701 22.4137C63.7419 21.9974 64.1027 21.4701 63.4921 20.9706C63.2146 20.7486 62.6041 20.6653 62.2988 20.8318C60.384 21.9141 58.4969 23.052 56.6097 24.1898C56.2212 24.4395 55.8882 24.7726 55.5829 25.0223C55.6384 25.2443 55.6384 25.3831 55.6662 25.3831ZM62.3266 6.0124C61.494 5.23535 60.606 4.59706 60.0232 4.37505C60.3007 5.73488 61.3275 6.90046 62.049 8.06603C62.6041 8.92634 63.1591 10.2584 64.1582 10.7024C65.185 9.48137 63.8529 7.48325 62.3266 6.04016V6.0124ZM78.3393 26.9649C77.368 25.8271 76.3967 24.6893 75.3421 23.607C75.0091 23.274 74.4818 23.1352 74.0655 22.9132C74.2598 23.4127 74.3153 24.0233 74.6483 24.4118C75.6752 25.6606 76.7852 26.8539 77.8675 28.0195C78.0063 28.1583 78.367 28.075 78.7833 28.1028C78.5891 27.5755 78.5613 27.187 78.3393 26.9372V26.9649Z" fill="#D9AE63"/>
</svg>
