<svg width="30" height="30" viewBox="0 0 30 30" fill="none" xmlns="http://www.w3.org/2000/svg">
<path d="M11.0462 25.0501C11.2127 22.8299 11.6568 20.5265 11.7955 19.8605C12.0453 18.6117 11.8788 17.9179 10.6022 17.4184C7.21653 16.0585 2.97049 14.8097 0.250823 12.312C0.167567 12.2288 0.0843073 12.1455 0.0288039 12.0345C-0.109955 11.7015 0.278573 11.3407 0.639345 11.2852C1.24988 11.1742 2.08245 11.202 2.69299 11.2852C5.66242 11.8125 8.63183 12.3953 11.6013 13.0613C12.6003 13.2834 12.7669 12.8393 13.0166 12.09C14.0712 8.87083 15.1813 5.67939 16.3191 2.51569C16.4856 2.04391 17.4014 -0.0374615 18.2062 0.1568C18.789 0.295559 18.7612 2.48794 18.789 3.07073C18.9555 5.20761 18.789 7.37223 18.4005 9.48136C18.2062 10.6192 17.4569 12.8671 18.5947 13.7551C19.566 14.5044 21.2589 14.3657 22.6465 14.6154C24.5891 14.9485 26.5595 15.2537 28.5021 15.6145C28.7241 15.67 28.9184 16.114 29.0294 16.3915C29.0571 16.4748 28.7518 16.7801 28.5576 16.8078C26.1709 17.3351 23.7843 17.8901 21.3699 18.3342C19.7048 18.6394 17.5957 18.3342 16.4856 19.25C15.431 20.1103 15.4588 22.2471 14.9592 23.8012C14.3209 25.6884 13.6549 27.5477 12.9334 29.3793C12.8224 29.6291 12.4338 29.9899 12.2396 29.9344C11.0185 29.6291 10.852 27.3535 11.0185 25.0223L11.0462 25.0501ZM13.2386 20.8873C13.0444 21.7199 12.9056 22.5802 13.0721 23.4127C13.2942 23.4127 13.6827 23.3017 13.7937 23.052C14.1822 21.8309 14.4875 20.6098 14.876 19.3887C15.32 17.9456 16.0693 16.8633 17.7899 16.8356C19.122 16.8356 20.4818 16.8356 21.7862 16.7246C22.5355 16.6413 23.8398 16.0585 24.5336 16.336C22.4522 15.559 20.0933 15.8088 17.9287 15.2815C16.7354 14.9762 16.1248 14.2547 16.2913 13.0058C16.5411 11.1465 16.8186 9.31486 17.0406 7.45549C17.0684 7.12247 16.9573 6.78945 16.9018 6.45643C16.6798 6.67844 16.3746 6.90046 16.2913 7.17798C15.875 8.26029 15.5698 9.39811 15.1535 10.4804C13.2109 15.7533 14.3209 15.1705 8.96486 14.2547C7.77153 14.0326 6.46721 13.4499 5.24614 13.7274C6.96674 15.115 8.85387 15.4202 10.9352 15.9475C12.1841 16.2528 13.2386 16.4193 13.5439 17.7791C13.7937 18.8614 13.5161 19.916 13.2941 20.9706L13.2386 20.8873ZM21.8139 10.1752C21.5364 10.4804 21.4809 10.8412 21.8139 11.2852C22.4522 12.1178 27.0867 9.03735 27.725 8.23255C27.4753 8.56557 22.924 8.98183 21.8139 10.1752ZM1.66619 25.3831C1.86045 25.4386 2.1102 25.5219 2.30446 25.4664C4.33034 24.6338 6.35622 23.8013 8.38209 22.9409C8.68736 22.8022 9.02036 22.6357 9.27013 22.4137C9.74191 21.9974 10.1027 21.4701 9.49214 20.9706C9.21463 20.7486 8.60411 20.6653 8.29884 20.8318C6.38397 21.9141 4.49685 23.052 2.60973 24.1898C2.22121 24.4395 1.8882 24.7726 1.58293 25.0223C1.63844 25.2443 1.63843 25.3831 1.66619 25.3831ZM8.32658 6.0124C7.49403 5.23535 6.60597 4.59706 6.02318 4.37505C6.3007 5.73488 7.3275 6.90046 8.04904 8.06603C8.60408 8.92634 9.15914 10.2584 10.1582 10.7024C11.185 9.48137 9.85292 7.48325 8.32658 6.04016V6.0124ZM24.3393 26.9649C23.368 25.8271 22.3967 24.6893 21.3421 23.607C21.0091 23.274 20.4818 23.1352 20.0655 22.9132C20.2598 23.4127 20.3153 24.0233 20.6483 24.4118C21.6752 25.6606 22.7852 26.8539 23.8675 28.0195C24.0063 28.1583 24.367 28.075 24.7833 28.1028C24.5891 27.5755 24.5613 27.187 24.3393 26.9372V26.9649Z" fill="#D9AE63"/>
</svg>
