<svg width="77" height="150" viewBox="0 0 77 150" fill="none" xmlns="http://www.w3.org/2000/svg">
<path d="M35.2223 49.8792C41.8192 49.8792 47.4799 51.0381 52.2047 53.3559C56.9294 55.5846 60.4953 58.7047 62.9022 62.7163C65.3983 66.6387 66.6463 71.096 66.6463 76.0882C66.6463 82.2393 65.0417 87.1869 61.8325 90.931C58.7123 94.6751 54.7899 97.0375 50.0652 98.0181V98.6867C62.2782 102.609 68.3847 110.231 68.3847 121.553C68.3847 126.991 67.1367 131.849 64.6406 136.128C62.1445 140.318 58.4895 143.616 53.6756 146.023C48.9508 148.341 43.2455 149.5 36.5595 149.5C25.6837 149.5 17.0365 146.826 10.618 141.477C4.28864 136.128 0.856518 127.971 0.321641 117.006H22.6527C22.831 121.196 23.9899 124.495 26.1294 126.901C28.2689 129.308 31.3891 130.512 35.4898 130.512C38.7882 130.512 41.3734 129.531 43.2455 127.57C45.2067 125.609 46.1873 123.068 46.1873 119.948C46.1873 112.192 40.5711 108.314 29.3387 108.314H25.0597V89.7275H29.205C39.2785 89.9058 44.3152 86.2954 44.3152 78.8963C44.3152 75.687 43.4238 73.2355 41.6409 71.5417C39.9471 69.7588 37.6293 68.8673 34.6875 68.8673C31.4782 68.8673 28.9375 69.9817 27.0655 72.2103C25.1934 74.3498 24.1237 77.2471 23.8562 80.9021H1.52511C1.97084 70.9177 5.09096 63.2511 10.8855 57.9024C16.68 52.5536 24.7922 49.8792 35.2223 49.8792Z" fill="#4E517E"/>
<path d="M50.3753 19.4857C52.6494 20.0451 54.969 20.4127 57.228 21.0041C57.6374 21.7872 57.5464 22.7301 57.5919 23.5932C57.5919 25.3193 57.4555 27.0453 57.5009 28.7554C57.5009 30.066 58.3954 30.945 59.5628 30.114C60.4877 29.4107 61.0941 28.3239 61.7005 27.3171C62.2767 26.3262 62.777 25.3033 63.2773 24.2644C63.5805 23.6411 63.8382 23.0018 64.2021 22.4105C64.4295 22.0589 64.8692 22.1228 65.2179 22.1548C66.5218 22.3785 67.765 22.874 69.0688 23.1297C70.3878 23.4174 71.7068 23.7051 73.0258 23.9927C73.5261 24.0886 74.0416 24.1845 74.5268 24.3124C74.9361 24.3923 75.4061 24.4882 75.8003 24.2804C76.4219 23.9608 76.4826 23.1617 76.1793 22.5863C75.209 20.7803 73.6171 19.3739 72.2223 17.9515C71.4642 17.2163 70.6759 16.4971 69.9633 15.7459C69.3569 15.2664 69.4327 14.5632 69.5994 13.876C70.0088 12.3577 70.7062 10.9512 71.3733 9.56077C71.6007 9.09728 71.8433 8.61781 72.0707 8.15432C72.2526 7.78673 72.4649 7.37119 72.3739 6.95565C72.01 5.5652 70.3272 6.22047 69.4327 6.60404C67.9924 7.2753 66.643 8.12236 65.1876 8.77763C64.4902 9.22513 63.7473 8.58585 63.1863 8.18629C62.4283 7.547 61.7612 6.79583 61.0941 6.04466C59.9873 4.79805 58.8958 3.53545 57.8193 2.27285C57.2432 1.61758 56.5306 0.450881 55.6058 1.21803C55.5906 1.21803 55.5755 1.24999 55.5603 1.24999C54.0897 2.46464 55.5603 8.56987 55.8635 10.4078C55.9242 10.7594 56.0152 11.127 56.091 11.4786C56.091 11.5745 56.1061 11.6864 56.0455 11.7663C55.3026 12.5175 54.2413 12.8371 53.3165 13.2846C51.3456 14.1477 49.2988 14.8829 47.2369 15.5062C46.7214 15.65 46.1908 15.8098 45.7815 16.1774C44.0683 18.1592 49.2533 19.1981 50.3904 19.5177L50.3753 19.4857ZM53.0588 18.7346C51.0727 18.319 49.0562 17.9514 47.2218 17.0245C49.0562 16.3692 50.9211 15.8098 52.7404 15.0587C54.0594 14.4993 55.4542 14.0678 56.6216 13.1887C56.6671 13.1568 56.6974 13.1248 56.7429 13.0928C57.4706 12.4855 57.6677 11.5266 57.3948 10.5996C57.228 9.81647 57.0309 9.01737 56.8793 8.23424C56.6368 7.01959 56.4851 5.86886 56.3335 4.67019C56.2729 3.91902 56.1971 3.1359 56.3639 2.40071C57.8345 4.06287 59.1687 5.88484 60.6544 7.53101C61.837 8.76165 63.1105 10.3759 64.8995 10.4398C65.4908 10.4398 66.0063 10.0882 66.5066 9.80049C67.9014 9.01736 69.3569 8.2662 70.7972 7.70682C69.933 9.64067 68.902 11.5266 68.3562 13.6043C68.0227 14.8349 68.1895 15.9697 69.1598 16.8167C69.9178 17.6318 70.6456 18.4629 71.4036 19.278C72.4952 20.4766 73.7081 21.5634 74.6784 22.874C72.2375 22.3146 69.7965 21.8032 67.3404 21.3557C66.264 20.9721 65.0815 20.3967 63.9595 20.8922C63.0954 21.2438 62.7921 22.2187 62.4131 23.0178C61.9734 23.9128 61.5035 24.7918 61.0638 25.6229C60.4422 26.7257 59.8509 27.8604 58.9867 28.7714C58.9261 26.422 59.2748 24.0567 58.9412 21.7233C58.6229 19.7894 57.9558 19.5497 56.2426 19.3419C55.1813 19.1661 54.12 18.9743 53.0588 18.7665V18.7346Z" fill="#D9AE63"/>
</svg>
