<svg width="69" height="101" viewBox="0 0 69 101" fill="none" xmlns="http://www.w3.org/2000/svg">
<path d="M35.2223 0.879219C41.8192 0.879219 47.4799 2.03812 52.2047 4.35592C56.9294 6.58457 60.4953 9.70468 62.9022 13.7163C65.3983 17.6387 66.6463 22.096 66.6463 27.0882C66.6463 33.2393 65.0417 38.1869 61.8325 41.931C58.7123 45.6751 54.7899 48.0375 50.0652 49.0181V49.6867C62.2782 53.6091 68.3847 61.2311 68.3847 72.5527C68.3847 77.9906 67.1367 82.8491 64.6406 87.1281C62.1445 91.3179 58.4895 94.6164 53.6756 97.0233C48.9508 99.3411 43.2455 100.5 36.5595 100.5C25.6837 100.5 17.0365 97.8256 10.618 92.4768C4.28864 87.1281 0.856518 78.9712 0.321641 68.0062H22.6527C22.831 72.1961 23.9899 75.4945 26.1294 77.9015C28.2689 80.3084 31.3891 81.5119 35.4898 81.5119C38.7882 81.5119 41.3734 80.5313 43.2455 78.5701C45.2067 76.6088 46.1873 74.0682 46.1873 70.9481C46.1873 63.1923 40.5711 59.3145 29.3387 59.3145H25.0597V40.7275H29.205C39.2785 40.9058 44.3152 37.2954 44.3152 29.8963C44.3152 26.687 43.4238 24.2355 41.6409 22.5417C39.9471 20.7588 37.6293 19.8673 34.6875 19.8673C31.4782 19.8673 28.9375 20.9817 27.0655 23.2103C25.1934 25.3498 24.1237 28.2471 23.8562 31.9021H1.52511C1.97084 21.9177 5.09096 14.2511 10.8855 8.90237C16.68 3.5536 24.7922 0.879219 35.2223 0.879219Z" fill="#4E517E"/>
</svg>
