<svg width="32" height="31" viewBox="0 0 32 31" fill="none" xmlns="http://www.w3.org/2000/svg">
<path d="M5.37525 19.4857C7.64941 20.0451 9.96905 20.4127 12.228 21.0041C12.6374 21.7872 12.5464 22.7301 12.5919 23.5932C12.5919 25.3193 12.4555 27.0453 12.5009 28.7554C12.5009 30.066 13.3954 30.945 14.5628 30.114C15.4877 29.4107 16.0941 28.3239 16.7005 27.3171C17.2767 26.3262 17.777 25.3033 18.2773 24.2644C18.5805 23.6411 18.8382 23.0018 19.2021 22.4105C19.4295 22.0589 19.8692 22.1228 20.2179 22.1548C21.5218 22.3785 22.765 22.874 24.0688 23.1297C25.3878 23.4174 26.7068 23.7051 28.0258 23.9927C28.5261 24.0886 29.0416 24.1845 29.5268 24.3124C29.9361 24.3923 30.4061 24.4882 30.8003 24.2804C31.4219 23.9608 31.4826 23.1617 31.1793 22.5863C30.209 20.7803 28.6171 19.3739 27.2223 17.9515C26.4642 17.2163 25.6759 16.4971 24.9633 15.7459C24.3569 15.2664 24.4327 14.5632 24.5994 13.876C25.0088 12.3577 25.7062 10.9512 26.3733 9.56077C26.6007 9.09728 26.8433 8.61781 27.0707 8.15432C27.2526 7.78673 27.4649 7.37119 27.3739 6.95565C27.01 5.5652 25.3272 6.22047 24.4327 6.60404C22.9924 7.2753 21.643 8.12236 20.1876 8.77763C19.4902 9.22513 18.7473 8.58585 18.1863 8.18629C17.4283 7.547 16.7612 6.79583 16.0941 6.04466C14.9873 4.79805 13.8958 3.53545 12.8193 2.27285C12.2432 1.61758 11.5306 0.450881 10.6058 1.21803C10.5906 1.21803 10.5755 1.24999 10.5603 1.24999C9.0897 2.46464 10.5603 8.56987 10.8635 10.4078C10.9242 10.7594 11.0152 11.127 11.091 11.4786C11.091 11.5745 11.1061 11.6864 11.0455 11.7663C10.3026 12.5175 9.24131 12.8371 8.31649 13.2846C6.34556 14.1477 4.29882 14.8829 2.23692 15.5062C1.72145 15.65 1.19081 15.8098 0.781463 16.1774C-0.931733 18.1592 4.25333 19.1981 5.39041 19.5177L5.37525 19.4857ZM8.05876 18.7346C6.07266 18.319 4.05624 17.9514 2.22176 17.0245C4.05624 16.3692 5.92105 15.8098 7.74038 15.0587C9.05939 14.4993 10.4542 14.0678 11.6216 13.1887C11.6671 13.1568 11.6974 13.1248 11.7429 13.0928C12.4706 12.4855 12.6677 11.5266 12.3948 10.5996C12.228 9.81647 12.0309 9.01737 11.8793 8.23424C11.6368 7.01959 11.4851 5.86886 11.3335 4.67019C11.2729 3.91902 11.1971 3.1359 11.3639 2.40071C12.8345 4.06287 14.1687 5.88484 15.6544 7.53101C16.837 8.76165 18.1105 10.3759 19.8995 10.4398C20.4908 10.4398 21.0063 10.0882 21.5066 9.80049C22.9014 9.01736 24.3569 8.2662 25.7972 7.70682C24.933 9.64067 23.902 11.5266 23.3562 13.6043C23.0227 14.8349 23.1895 15.9697 24.1598 16.8167C24.9178 17.6318 25.6456 18.4629 26.4036 19.278C27.4952 20.4766 28.7081 21.5634 29.6784 22.874C27.2375 22.3146 24.7965 21.8032 22.3404 21.3557C21.264 20.9721 20.0815 20.3967 18.9595 20.8922C18.0954 21.2438 17.7921 22.2187 17.4131 23.0178C16.9734 23.9128 16.5035 24.7918 16.0638 25.6229C15.4422 26.7257 14.8509 27.8604 13.9867 28.7714C13.9261 26.422 14.2748 24.0567 13.9412 21.7233C13.6229 19.7894 12.9558 19.5497 11.2426 19.3419C10.1813 19.1661 9.12003 18.9743 8.05876 18.7665V18.7346Z" fill="#D9AE63"/>
</svg>
