<svg width="1280" height="657" viewBox="0 0 1280 657" fill="none" xmlns="http://www.w3.org/2000/svg">
<rect width="1280" height="657"/>
<path d="M70.179 198.774C75.3276 199.976 80.5792 200.765 85.6935 202.035C86.6202 203.717 86.4142 205.742 86.5172 207.596C86.5172 211.303 86.2083 215.01 86.3113 218.682C86.3113 221.497 88.3365 223.385 90.9794 221.6C93.0732 220.09 94.4462 217.756 95.8192 215.593C97.1235 213.465 98.2561 211.268 99.3888 209.037C100.075 207.699 100.659 206.326 101.483 205.056C101.997 204.3 102.993 204.438 103.782 204.506C106.734 204.987 109.549 206.051 112.501 206.6C115.487 207.218 118.473 207.836 121.459 208.454C122.592 208.66 123.759 208.866 124.857 209.14C125.784 209.312 126.848 209.518 127.741 209.072C129.148 208.385 129.285 206.669 128.599 205.433C126.402 201.554 122.798 198.534 119.64 195.479C117.924 193.9 116.139 192.356 114.526 190.742C113.153 189.713 113.324 188.202 113.702 186.726C114.629 183.466 116.208 180.445 117.718 177.459C118.233 176.463 118.782 175.434 119.297 174.438C119.709 173.649 120.189 172.756 119.983 171.864C119.16 168.878 115.35 170.285 113.324 171.109C110.064 172.551 107.009 174.37 103.714 175.777C102.135 176.738 100.453 175.365 99.1829 174.507C97.4667 173.134 95.9564 171.521 94.4461 169.908C91.9404 167.23 89.4691 164.519 87.0321 161.807C85.7277 160.4 84.1145 157.894 82.0208 159.542C81.9864 159.542 81.9521 159.61 81.9178 159.61C78.5883 162.219 81.9178 175.331 82.6043 179.278C82.7416 180.033 82.9475 180.823 83.1192 181.578C83.1192 181.784 83.1535 182.024 83.0162 182.196C81.3343 183.809 78.9316 184.495 76.8379 185.456C72.3757 187.31 67.7419 188.889 63.0738 190.228C61.9068 190.536 60.7055 190.88 59.7787 191.669C55.9001 195.925 67.6389 198.156 70.2132 198.843L70.179 198.774ZM76.2543 197.195C71.7578 196.303 67.1927 195.513 63.0395 193.523C67.1927 192.115 71.4146 190.914 75.5335 189.301C78.5197 188.099 81.6776 187.173 84.3205 185.285C84.4235 185.216 84.4921 185.148 84.5951 185.079C86.2426 183.775 86.6888 181.715 86.071 179.724C85.6934 178.042 85.2472 176.326 84.904 174.644C84.3548 172.036 84.0116 169.564 83.6684 166.99C83.5311 165.377 83.3594 163.695 83.737 162.116C87.0664 165.686 90.087 169.599 93.4508 173.134C96.1281 175.777 99.0113 179.244 103.062 179.381C104.4 179.381 105.567 178.626 106.7 178.008C109.858 176.326 113.153 174.713 116.414 173.512C114.457 177.665 112.123 181.715 110.887 186.177C110.132 188.82 110.51 191.257 112.707 193.076C114.423 194.827 116.07 196.612 117.787 198.362C120.258 200.937 123.004 203.271 125.201 206.085C119.674 204.884 114.148 203.786 108.588 202.824C106.151 202.001 103.473 200.765 100.933 201.829C98.977 202.584 98.2905 204.678 97.4324 206.394C96.437 208.316 95.3729 210.204 94.3775 211.989C92.9702 214.357 91.6316 216.794 89.6751 218.751C89.5378 213.705 90.3273 208.625 89.5721 203.614C88.8513 199.461 87.3411 198.946 83.4624 198.5C81.0597 198.122 78.657 197.71 76.2543 197.264V197.195Z" fill="#4E517E"/>
<path d="M111.443 82.2088C111.207 82.6821 111.101 83.2606 111.023 83.8129C110.839 84.9699 111.811 86.2322 112.784 85.9692C115.046 85.3381 117.281 84.6281 119.516 83.8918C124.539 82.2351 123.961 82.4191 125.696 87.1526C126.354 88.9145 126.906 90.729 127.563 92.4646C128.01 93.6479 128.273 95.3572 129.72 95.2257C131.035 95.0943 131.324 93.4375 131.771 92.2542C132.165 91.2023 132.481 90.0978 132.875 89.046C133.664 86.9422 134.085 84.3914 135.4 82.8925C136.688 81.3936 138.924 80.9465 140.712 80.0261C142.684 79.0005 144.683 78.0538 146.576 76.8968C147.812 76.1342 147.838 74.0304 146.786 72.9785C146.418 72.6104 145.997 72.2685 145.603 71.953C143.946 70.6907 142.316 69.4022 140.607 68.1925C138.45 66.6673 137.319 64.6161 137.661 61.5657C137.872 59.6723 137.977 57.7526 137.951 55.8592C137.951 54.334 137.74 52.8088 137.504 51.3099C137.346 50.2317 135.821 49.6006 135.058 50.2843C133.875 51.3362 132.718 52.4406 131.639 53.624C130.43 54.9388 129.299 56.3326 128.194 57.7526C127.195 59.0675 125.959 59.3041 124.592 59.0675C123.777 58.9097 122.988 58.5678 122.172 58.41C119.569 57.9104 116.939 57.4108 114.31 57.0426C112.732 56.8059 111.811 58.2523 112.416 59.9616C112.837 61.1975 113.468 62.3283 113.968 63.5379C114.915 65.7732 115.861 68.0084 116.755 70.27C116.939 70.7433 116.834 71.3744 116.861 71.7952C116.729 72.1107 116.65 72.2685 116.545 72.4263C114.836 75.6871 113.126 78.9216 111.443 82.2088ZM118.465 73.8463C119.306 72.2948 119.569 70.6644 118.78 68.9551C117.623 66.4306 116.466 63.8798 115.335 61.3027C115.23 61.0397 115.283 60.5401 115.44 60.3297C115.625 60.0667 116.019 59.8038 116.282 59.8564C118.412 60.2245 120.542 60.6716 122.672 61.0923C123.645 61.2764 124.644 61.4342 125.617 61.6709C126.88 61.9864 127.931 61.592 128.826 60.5927C130.745 58.4626 132.612 56.3063 134.532 54.1762C134.69 54.0185 135.058 54.0448 135.321 54.0973C135.426 54.0973 135.584 54.3603 135.584 54.5444C135.663 55.2807 135.794 56.0433 135.768 56.8059C135.715 59.4882 135.636 62.1705 135.505 64.8265C135.426 66.3254 135.952 67.2721 137.057 68.1136C139.555 70.007 141.974 72.0318 144.393 74.0304C145.13 74.6352 145.025 75.1349 144.052 75.5819C141.264 76.8705 138.503 78.2116 135.689 79.395C134.348 79.9735 133.428 80.8413 132.928 82.4191C132.244 84.5755 131.455 86.7055 130.666 88.8356C130.377 89.6508 130.298 90.8079 129.325 90.8341C129.115 90.8341 128.878 89.5193 128.615 88.8093C127.853 86.6792 127.143 84.5229 126.275 82.4454C125.617 80.7887 124.513 80.105 123.014 80.5258C120.411 81.2358 117.86 82.1036 115.283 82.8925C115.125 82.9451 114.836 82.9451 114.809 82.8925C114.704 82.5769 114.546 82.2088 114.625 81.9195C114.809 81.1832 115.125 80.4995 115.756 78.685C116.282 77.7383 117.334 75.7923 118.386 73.8463H118.465Z" fill="#4E517E"/>
<path d="M187.494 136.76C190.091 136.023 192.635 135.075 195.249 134.391C196.073 134.917 196.477 135.865 196.985 136.672C197.898 138.338 198.67 140.058 199.634 141.689C200.319 142.935 201.705 143.286 202.441 141.847C203.003 140.637 203.038 139.268 203.108 137.953C203.161 136.689 203.143 135.409 203.108 134.146C203.108 133.374 203.003 132.619 203.056 131.847C203.108 131.391 203.582 131.198 203.95 131.04C205.389 130.514 206.915 130.304 208.371 129.812C209.862 129.356 211.336 128.882 212.827 128.426C213.389 128.233 213.95 128.04 214.529 127.9C214.985 127.742 215.511 127.567 215.792 127.146C216.248 126.497 215.897 125.69 215.283 125.304C213.354 124.111 210.985 123.654 208.81 123.058C207.652 122.777 206.477 122.532 205.354 122.198C204.477 122.076 204.178 121.374 203.985 120.602C203.582 118.918 203.547 117.181 203.477 115.462C203.459 114.883 203.459 114.304 203.441 113.725C203.441 113.286 203.424 112.76 203.108 112.391C201.985 111.269 200.652 112.83 199.95 113.707C198.845 115.146 197.933 116.725 196.81 118.163C196.354 118.988 195.249 118.777 194.459 118.707C193.354 118.532 192.284 118.181 191.214 117.812C189.424 117.234 187.652 116.637 185.898 116.023C184.968 115.725 183.617 114.988 183.091 116.251C183.091 116.269 183.073 116.304 183.056 116.321C182.214 118.321 186.933 123.356 188.214 124.953C188.477 125.268 188.757 125.549 189.003 125.865C189.073 125.953 189.126 126.058 189.108 126.163C188.757 127.304 187.845 128.198 187.143 129.146C185.6 131.093 183.933 132.917 182.179 134.672C181.74 135.093 181.284 135.549 181.056 136.128C180.372 138.988 186.179 137.075 187.494 136.742V136.76ZM189.828 134.549C187.6 135.251 185.354 136.04 183.003 136.181C184.512 134.514 186.108 132.935 187.547 131.216C188.582 129.935 189.775 128.742 190.477 127.233C190.494 127.181 190.529 127.128 190.547 127.075C190.968 126.093 190.652 125.04 189.88 124.304C189.284 123.637 188.687 122.988 188.091 122.321C187.196 121.286 186.424 120.269 185.652 119.198C185.196 118.514 184.687 117.812 184.477 117.005C186.863 117.777 189.161 118.777 191.547 119.532C193.407 120.058 195.547 120.883 197.389 119.953C197.968 119.619 198.319 118.988 198.67 118.444C199.67 116.918 200.74 115.374 201.898 114.041C202.056 116.391 202.003 118.777 202.564 121.076C202.898 122.444 203.652 123.444 205.091 123.707C206.284 124.058 207.476 124.461 208.669 124.812C210.406 125.339 212.213 125.725 213.897 126.444C211.126 127.268 208.371 128.146 205.652 129.093C204.371 129.339 202.862 129.426 201.985 130.549C201.301 131.374 201.512 132.479 201.547 133.461C201.582 134.584 201.582 135.672 201.547 136.724C201.512 138.128 201.512 139.549 201.126 140.917C199.81 138.689 198.915 136.233 197.336 134.163C195.985 132.479 195.196 132.637 193.336 133.374C192.178 133.812 190.985 134.198 189.81 134.602L189.828 134.549Z" fill="#4E517E"/>
<path d="M66.4571 122.53C64.9413 120.609 63.5883 118.415 63.2055 117.772C62.4792 116.576 61.8287 116.138 60.424 116.683C56.6726 118.099 52.3074 120.245 48.2491 120.245C48.1199 120.24 47.9906 120.234 47.8631 120.186C47.5032 120.019 47.5495 119.439 47.8003 119.125C48.2119 118.582 48.9064 117.985 49.4625 117.599C52.258 115.818 55.0948 114.082 57.9935 112.414C58.9672 111.85 58.7719 111.367 58.417 110.575C56.8773 107.185 55.4032 103.777 53.9722 100.37C53.7562 99.8646 52.9501 97.499 53.746 97.058C54.3208 96.737 55.9283 98.5322 56.384 98.9833C58.1074 100.589 59.5819 102.465 60.8354 104.461C61.5241 105.526 62.5887 107.903 64.1699 107.776C65.5132 107.66 66.7802 106.289 68.0891 105.46C69.9091 104.285 71.7309 103.068 73.5715 101.915C73.7924 101.795 74.2798 102.01 74.5759 102.152C74.6603 102.199 74.6402 102.673 74.5036 102.84C72.9638 105.041 71.4446 107.265 69.8204 109.419C68.6996 110.904 66.7655 112.225 66.5478 113.792C66.3338 115.272 67.9449 116.981 68.6959 118.61C69.5822 120.612 70.4255 122.612 71.2031 124.631C71.2989 124.916 71.2527 125.497 71.0542 125.596C69.8389 126.257 68.0123 124.539 66.414 122.528L66.4571 122.53ZM65.1369 117.531C65.5986 118.349 66.1259 119.149 66.8796 119.699C67.0593 119.534 67.2913 119.155 67.1954 118.87C66.6021 117.593 65.9414 116.378 65.3481 115.101C64.6347 113.602 64.4365 112.169 65.8086 110.868C66.8868 109.877 67.9875 108.866 68.9607 107.807C69.5053 107.182 70.1278 105.741 70.8957 105.45C68.6333 106.368 66.9097 108.324 64.7655 109.507C63.5727 110.147 62.5421 110.016 61.7485 108.882C60.5683 107.191 59.4312 105.502 58.2286 103.832C58.0035 103.542 57.6661 103.355 57.3736 103.127C57.3589 103.471 57.2769 103.878 57.4158 104.165C57.8835 105.35 58.4823 106.498 58.95 107.684C61.2976 113.396 61.7629 112.099 56.7467 115.339C55.6157 116.047 54.1267 116.545 53.3447 117.677C55.7689 117.521 57.5234 116.365 59.6001 115.245C60.8379 114.563 61.8152 113.914 63.0733 114.788C64.0801 115.478 64.6394 116.538 65.2437 117.557L65.1369 117.531ZM64.1141 102.485C64.1165 102.938 64.3397 103.272 64.9394 103.383C66.075 103.583 67.5362 97.644 67.4545 96.518C67.4999 96.9732 64.1255 100.694 64.1141 102.485ZM59.1122 129.773C59.3107 129.674 59.5748 129.555 59.6908 129.366C60.7116 127.186 61.7325 125.006 62.7327 122.804C62.8766 122.464 63.0224 122.082 63.0595 121.717C63.1319 121.029 63.0319 120.334 62.1663 120.383C61.7767 120.41 61.2206 120.797 61.0973 121.158C60.352 123.458 59.6704 125.782 58.9888 128.106C58.86 128.597 58.8381 129.114 58.7766 129.543C58.9866 129.681 59.0898 129.794 59.1122 129.773ZM50.1025 109.142C48.8509 109.132 47.6575 109.276 47.0208 109.53C48.2564 110.424 49.954 110.604 51.4046 111.011C52.4934 111.295 53.933 111.96 55.0717 111.577C54.9951 109.825 52.4314 109.198 50.1231 109.165L50.1025 109.142ZM78.6404 114.197C77.0083 113.999 75.3762 113.8 73.718 113.708C73.2008 113.686 72.6709 113.965 72.1689 114.095C72.6975 114.355 73.1963 114.808 73.7547 114.875C75.5143 115.122 77.2999 115.263 79.0425 115.402C79.258 115.411 79.4881 115.075 79.8457 114.788C79.2964 114.506 78.9851 114.212 78.6197 114.175L78.6404 114.197Z" fill="#4E517E"/>
</svg>
