<svg width="1280" height="782" viewBox="0 0 1280 782" fill="none" xmlns="http://www.w3.org/2000/svg">
<rect width="1280" height="782" fill="url(#paint0_linear_0_1)"/>
<path d="M1145.23 504.095C1149.42 503.575 1154.99 501.554 1160.33 498.811C1170.7 493.469 1178.72 485.672 1184.82 475.797C1185.6 474.526 1186.2 473.14 1186.81 471.783C1187.1 471.148 1186.81 470.57 1186.2 470.31C1185.86 470.137 1185.31 470.079 1185.02 470.252C1182.02 471.898 1179.04 473.602 1176.07 475.306C1173.21 476.952 1170.18 478.251 1167 479.031C1159.44 480.937 1151.78 481.687 1143.96 480.648C1138.79 479.984 1134.14 478.309 1129.81 475.479C1119.9 468.924 1113.72 459.684 1110.52 448.393C1109.74 445.679 1109.19 442.82 1109.16 439.99C1109.1 431.905 1109.97 423.935 1112.6 416.225C1114.04 411.981 1115.63 407.794 1117.13 403.578C1117.33 403.029 1117.51 402.452 1117.65 401.874C1117.83 401.181 1117.02 400.401 1116.29 400.546C1115.72 400.661 1115.08 400.719 1114.59 400.979C1112.37 402.221 1110.09 403.347 1108.04 404.819C1095.22 413.915 1086.81 426.014 1083.32 441.405C1081.99 447.267 1081.73 453.216 1082.25 459.164C1082.71 464.708 1084.39 469.964 1086.67 475.017C1091.09 484.835 1097.9 492.631 1107.2 498.002C1118.46 504.528 1130.59 506.578 1145.23 504.066V504.095ZM1114.79 403.116C1114.79 403.116 1114.79 403.376 1114.74 403.404C1114.68 403.462 1114.59 403.491 1114.53 403.52C1114.62 403.376 1114.71 403.26 1114.79 403.116ZM1086.38 468.549C1085.69 466.268 1084.85 464.044 1084.56 461.647C1082.94 448.509 1085.08 436.121 1092.04 424.715C1097.01 416.543 1103.5 409.873 1111.62 404.733C1112.48 404.184 1113.32 403.607 1114.42 403.607C1114.88 404.704 1114.16 405.599 1113.87 406.523C1112.97 409.209 1111.96 411.865 1111.04 414.551C1108.33 422.52 1107.11 430.779 1107.23 439.153C1107.29 442.993 1108.04 446.921 1109.13 450.617C1111.07 457.085 1114.13 463.062 1118.63 468.173C1124.18 474.411 1130.53 479.464 1138.76 481.774C1142.08 482.727 1145.49 482.987 1148.92 483.131C1155.1 483.42 1161.11 482.294 1167.09 480.994C1170.75 480.186 1174.1 478.569 1177.4 476.836C1178.96 476.028 1180.28 474.642 1182.22 474.67C1182.31 474.439 1182.42 474.208 1182.51 473.977C1183.23 474.526 1182.51 474.526 1182.25 474.67C1182.54 475.479 1182.1 476.114 1181.7 476.749C1178.81 481.139 1175.38 485.066 1171.45 488.56C1166.48 492.949 1160.97 496.443 1154.82 498.869C1137.2 505.856 1120.31 504.557 1104.57 493.815C1095.56 487.665 1089.58 479.031 1086.38 468.52V468.549Z" fill="#D9AE63"/>
<path d="M1224.11 543.617C1224.22 543.716 1224.36 543.789 1224.5 543.853C1224.79 543.993 1225.2 543.837 1225.2 543.561C1225.22 542.919 1225.21 542.277 1225.19 541.633C1225.15 540.186 1225.15 540.352 1226.53 540.27C1227.04 540.236 1227.56 540.234 1228.07 540.198C1228.41 540.174 1228.88 540.24 1228.96 539.85C1229.03 539.495 1228.62 539.289 1228.34 539.079C1228.1 538.893 1227.83 538.723 1227.59 538.537C1227.1 538.165 1226.47 537.854 1226.18 537.391C1225.88 536.936 1225.94 536.315 1225.84 535.773C1225.73 535.176 1225.64 534.577 1225.48 533.99C1225.38 533.606 1224.83 533.434 1224.47 533.627C1224.35 533.694 1224.22 533.778 1224.11 533.856C1223.65 534.191 1223.18 534.517 1222.73 534.87C1222.16 535.315 1221.54 535.45 1220.76 535.121C1220.28 534.917 1219.79 534.738 1219.29 534.596C1218.89 534.476 1218.47 534.411 1218.06 534.355C1217.77 534.312 1217.48 534.662 1217.6 534.916C1217.78 535.309 1217.98 535.699 1218.21 536.074C1218.46 536.495 1218.73 536.901 1219.02 537.302C1219.29 537.668 1219.25 538.01 1219.08 538.35C1218.98 538.551 1218.82 538.731 1218.72 538.932C1218.38 539.575 1218.04 540.225 1217.74 540.886C1217.55 541.281 1217.86 541.636 1218.36 541.612C1218.71 541.599 1219.06 541.522 1219.42 541.486C1220.08 541.414 1220.74 541.342 1221.4 541.285C1221.54 541.274 1221.7 541.351 1221.81 541.378C1221.88 541.437 1221.92 541.47 1221.95 541.51C1222.67 542.215 1223.38 542.917 1224.11 543.617ZM1222.47 541.119C1222.13 540.776 1221.73 540.579 1221.22 540.651C1220.46 540.756 1219.7 540.858 1218.94 540.952C1218.86 540.959 1218.73 540.906 1218.69 540.848C1218.64 540.779 1218.6 540.655 1218.63 540.59C1218.9 540.061 1219.18 539.538 1219.46 539.012C1219.59 538.772 1219.71 538.522 1219.84 538.286C1220.03 537.98 1220.01 537.673 1219.81 537.36C1219.41 536.689 1218.99 536.03 1218.58 535.36C1218.55 535.306 1218.59 535.212 1218.62 535.147C1218.63 535.119 1218.71 535.099 1218.76 535.113C1218.96 535.15 1219.17 535.176 1219.37 535.243C1220.07 535.467 1220.76 535.699 1221.45 535.943C1221.84 536.081 1222.12 536.018 1222.43 535.794C1223.13 535.289 1223.85 534.814 1224.56 534.337C1224.78 534.191 1224.9 534.258 1224.94 534.548C1225.06 535.38 1225.19 536.21 1225.28 537.04C1225.33 537.437 1225.48 537.747 1225.86 538.002C1226.37 538.351 1226.86 538.725 1227.36 539.099C1227.55 539.239 1227.85 539.351 1227.78 539.608C1227.76 539.663 1227.4 539.622 1227.19 539.635C1226.57 539.667 1225.95 539.684 1225.34 539.748C1224.85 539.79 1224.59 540.026 1224.58 540.452C1224.56 541.19 1224.59 541.927 1224.59 542.664C1224.59 542.71 1224.57 542.786 1224.56 542.788C1224.46 542.791 1224.36 542.803 1224.29 542.76C1224.11 542.654 1223.95 542.517 1223.53 542.209C1223.32 541.997 1222.89 541.568 1222.47 541.139L1222.47 541.119Z" fill="#4E517E"/>
<path d="M1016.58 528.264C1014.8 528.743 1013.06 529.354 1011.26 529.797C1010.71 529.438 1010.44 528.779 1010.1 528.228C1009.5 527.089 1008.99 525.891 1008.35 524.765C1007.9 523.903 1006.95 523.651 1006.44 524.633C1006.04 525.448 1006 526.395 1005.93 527.281C1005.88 528.144 1005.88 529.018 1005.9 529.881C1005.9 530.408 1005.96 530.935 1005.9 531.451C1005.86 531.762 1005.54 531.894 1005.27 531.99C1004.29 532.325 1003.24 532.457 1002.24 532.768C1001.22 533.068 1000.21 533.368 999.187 533.667C998.804 533.787 998.42 533.919 998.025 534.014C997.701 534.11 997.354 534.23 997.15 534.506C996.827 534.949 997.066 535.5 997.486 535.776C998.792 536.602 1000.41 536.95 1001.88 537.369C1002.67 537.585 1003.46 537.753 1004.24 537.992C1004.84 538.088 1005.03 538.567 1005.15 539.106C1005.41 540.257 1005.41 541.455 1005.44 542.629C1005.44 543.024 1005.44 543.42 1005.44 543.815C1005.44 544.114 1005.44 544.474 1005.66 544.725C1006.41 545.504 1007.35 544.45 1007.84 543.863C1008.6 542.892 1009.25 541.814 1010.03 540.856C1010.35 540.304 1011.1 540.448 1011.64 540.508C1012.39 540.64 1013.12 540.892 1013.84 541.155C1015.05 541.574 1016.25 541.994 1017.46 542.437C1018.09 542.653 1019 543.168 1019.37 542.317C1019.37 542.305 1019.39 542.281 1019.4 542.269C1020 540.916 1016.82 537.429 1015.97 536.327C1015.8 536.111 1015.61 535.907 1015.43 535.704C1015.39 535.644 1015.35 535.572 1015.36 535.5C1015.61 534.721 1016.25 534.122 1016.73 533.475C1017.81 532.169 1018.97 530.935 1020.18 529.761C1020.48 529.474 1020.8 529.174 1020.96 528.779C1021.46 526.826 1017.47 528.072 1016.56 528.288L1016.58 528.264ZM1014.97 529.749C1016.49 529.294 1018.03 528.779 1019.64 528.719C1018.58 529.833 1017.48 530.899 1016.49 532.062C1015.77 532.924 1014.94 533.727 1014.44 534.745C1014.41 534.781 1014.4 534.817 1014.39 534.853C1014.09 535.524 1014.31 536.231 1014.81 536.746C1015.21 537.201 1015.61 537.657 1016.01 538.124C1016.61 538.831 1017.12 539.55 1017.64 540.293C1017.94 540.772 1018.27 541.251 1018.42 541.802C1016.8 541.239 1015.24 540.532 1013.61 540.005C1012.35 539.634 1010.9 539.035 1009.62 539.658C1009.21 539.885 1008.98 540.304 1008.72 540.676C1008.03 541.706 1007.27 542.749 1006.47 543.647C1006.39 542.042 1006.45 540.412 1006.1 538.843C1005.9 537.908 1005.38 537.213 1004.4 537.01C1003.58 536.758 1002.78 536.471 1001.97 536.219C1000.78 535.836 999.558 535.56 998.42 535.057C1000.31 534.518 1002.21 533.955 1004.08 533.332C1004.96 533.188 1005.98 533.128 1006.59 532.385C1007.06 531.834 1006.94 531.079 1006.93 530.408C1006.93 529.641 1006.93 528.899 1006.95 528.18C1007 527.221 1007.01 526.251 1007.29 525.328C1008.16 526.862 1008.75 528.551 1009.8 529.977C1010.71 531.139 1011.25 531.043 1012.52 530.552C1013.32 530.264 1014.13 530.013 1014.94 529.761L1014.97 529.749Z" fill="#4E517E"/>
<path d="M1231.16 424.459C1231.07 424.627 1231.04 424.833 1231.01 425.029C1230.94 425.441 1231.29 425.89 1231.63 425.796C1232.44 425.572 1233.23 425.319 1234.03 425.057C1235.82 424.468 1235.61 424.533 1236.23 426.217C1236.46 426.844 1236.66 427.49 1236.89 428.107C1237.05 428.528 1237.15 429.136 1237.66 429.09C1238.13 429.043 1238.23 428.453 1238.39 428.032C1238.53 427.658 1238.64 427.265 1238.78 426.891C1239.06 426.143 1239.21 425.235 1239.68 424.702C1240.14 424.169 1240.93 424.01 1241.57 423.682C1242.27 423.317 1242.98 422.98 1243.66 422.569C1244.1 422.297 1244.11 421.549 1243.73 421.175C1243.6 421.044 1243.45 420.922 1243.31 420.81C1242.72 420.361 1242.14 419.903 1241.53 419.472C1240.77 418.93 1240.36 418.2 1240.49 417.115C1240.56 416.441 1240.6 415.758 1240.59 415.084C1240.59 414.542 1240.51 413.999 1240.43 413.466C1240.37 413.082 1239.83 412.858 1239.56 413.101C1239.14 413.475 1238.73 413.868 1238.34 414.289C1237.91 414.757 1237.51 415.253 1237.12 415.758C1236.76 416.226 1236.32 416.31 1235.84 416.226C1235.55 416.17 1235.26 416.048 1234.97 415.992C1234.05 415.814 1233.11 415.636 1232.18 415.505C1231.62 415.421 1231.29 415.936 1231.5 416.544C1231.65 416.984 1231.88 417.386 1232.06 417.816C1232.39 418.611 1232.73 419.407 1233.05 420.211C1233.11 420.38 1233.08 420.604 1233.08 420.754C1233.04 420.866 1233.01 420.922 1232.97 420.978C1232.36 422.138 1231.76 423.289 1231.16 424.459ZM1233.66 421.484C1233.95 420.932 1234.05 420.352 1233.77 419.743C1233.36 418.845 1232.94 417.938 1232.54 417.021C1232.5 416.928 1232.52 416.75 1232.58 416.675C1232.65 416.581 1232.79 416.488 1232.88 416.507C1233.64 416.637 1234.39 416.797 1235.15 416.946C1235.5 417.012 1235.85 417.068 1236.2 417.152C1236.65 417.264 1237.02 417.124 1237.34 416.768C1238.02 416.011 1238.69 415.244 1239.37 414.486C1239.43 414.43 1239.56 414.439 1239.65 414.458C1239.69 414.458 1239.75 414.551 1239.75 414.617C1239.77 414.879 1239.82 415.15 1239.81 415.421C1239.79 416.376 1239.76 417.33 1239.72 418.275C1239.69 418.808 1239.88 419.145 1240.27 419.444C1241.16 420.118 1242.02 420.838 1242.88 421.549C1243.14 421.764 1243.1 421.942 1242.76 422.101C1241.77 422.559 1240.78 423.037 1239.78 423.458C1239.31 423.663 1238.98 423.972 1238.8 424.533C1238.56 425.301 1238.28 426.058 1238 426.816C1237.89 427.106 1237.87 427.518 1237.52 427.527C1237.44 427.527 1237.36 427.059 1237.27 426.807C1237 426.049 1236.74 425.282 1236.43 424.543C1236.2 423.953 1235.81 423.71 1235.27 423.86C1234.35 424.112 1233.44 424.421 1232.52 424.702C1232.47 424.721 1232.36 424.721 1232.36 424.702C1232.32 424.59 1232.26 424.459 1232.29 424.356C1232.36 424.094 1232.47 423.851 1232.69 423.205C1232.88 422.868 1233.25 422.176 1233.63 421.484H1233.66Z" fill="#4E517E"/>
<path d="M1086.15 546.429C1085.83 547.114 1085.57 547.823 1085.24 548.504C1084.96 548.595 1084.64 548.518 1084.36 548.494C1083.78 548.407 1083.21 548.277 1082.64 548.209C1082.2 548.142 1081.85 548.383 1082.06 548.788C1082.25 549.116 1082.57 549.358 1082.87 549.599C1083.17 549.826 1083.48 550.038 1083.8 550.246C1083.99 550.371 1084.19 550.482 1084.37 550.627C1084.47 550.718 1084.43 550.849 1084.39 550.96C1084.24 551.36 1084 551.727 1083.84 552.123C1083.66 552.523 1083.49 552.924 1083.32 553.324C1083.26 553.479 1083.19 553.633 1083.12 553.783C1083.07 553.908 1083.01 554.048 1083.06 554.183C1083.13 554.391 1083.39 554.453 1083.6 554.386C1084.26 554.169 1084.83 553.739 1085.38 553.372C1085.67 553.17 1085.96 552.962 1086.25 552.769C1086.45 552.6 1086.68 552.658 1086.9 552.75C1087.38 552.953 1087.81 553.242 1088.24 553.517C1088.39 553.614 1088.53 553.71 1088.67 553.807C1088.78 553.879 1088.91 553.971 1089.05 553.961C1089.54 553.913 1089.42 553.353 1089.34 553.054C1089.2 552.571 1088.99 552.103 1088.86 551.616C1088.76 551.375 1089.01 551.172 1089.18 551.018C1089.43 550.81 1089.72 550.636 1090.02 550.468C1090.5 550.183 1090.98 549.903 1091.47 549.623C1091.71 549.473 1092.15 549.309 1091.95 548.976C1091.95 548.972 1091.94 548.962 1091.94 548.957C1091.62 548.431 1089.49 548.595 1088.86 548.6C1088.74 548.6 1088.62 548.615 1088.49 548.619C1088.46 548.619 1088.42 548.619 1088.4 548.59C1088.19 548.32 1088.15 547.973 1088.05 547.659C1087.88 546.993 1087.76 546.322 1087.67 545.642C1087.65 545.473 1087.63 545.299 1087.53 545.15C1086.97 544.513 1086.32 546.091 1086.15 546.433L1086.15 546.429ZM1086.23 547.307C1086.49 546.704 1086.72 546.086 1087.15 545.555C1087.26 546.163 1087.33 546.776 1087.48 547.384C1087.59 547.823 1087.65 548.286 1087.88 548.692C1087.89 548.706 1087.9 548.721 1087.9 548.735C1088.06 548.991 1088.37 549.102 1088.7 549.063C1088.97 549.049 1089.24 549.03 1089.52 549.015C1089.94 549.001 1090.34 549.005 1090.74 549.02C1091 549.039 1091.26 549.054 1091.5 549.141C1090.85 549.522 1090.17 549.845 1089.54 550.236C1089.05 550.55 1088.44 550.868 1088.32 551.423C1088.29 551.606 1088.37 551.785 1088.44 551.959C1088.62 552.431 1088.78 552.928 1088.89 553.411C1088.29 553.044 1087.72 552.624 1087.06 552.354C1086.66 552.19 1086.27 552.185 1085.94 552.451C1085.63 552.649 1085.3 552.837 1084.99 553.035C1084.53 553.319 1084.09 553.643 1083.6 553.884C1083.93 553.146 1084.24 552.402 1084.53 551.655C1084.72 551.336 1084.99 550.993 1084.89 550.617C1084.82 550.328 1084.51 550.188 1084.27 550.024C1083.99 549.84 1083.73 549.652 1083.48 549.469C1083.15 549.223 1082.8 548.976 1082.55 548.663C1083.34 548.759 1084.11 548.986 1084.91 549.001C1085.57 548.996 1085.69 548.798 1085.86 548.272C1085.98 547.949 1086.11 547.625 1086.24 547.302L1086.23 547.307Z" fill="#4E517E"/>
<path d="M1019.33 454.011C1019.41 452.94 1019.62 451.829 1019.69 451.508C1019.81 450.906 1019.73 450.571 1019.11 450.33C1017.48 449.675 1015.43 449.072 1014.12 447.868C1014.08 447.828 1014.04 447.788 1014.01 447.734C1013.95 447.573 1014.13 447.4 1014.31 447.373C1014.6 447.319 1015 447.333 1015.3 447.373C1016.73 447.627 1018.16 447.908 1019.59 448.229C1020.08 448.336 1020.16 448.122 1020.28 447.761C1020.79 446.208 1021.32 444.669 1021.87 443.144C1021.95 442.916 1022.39 441.912 1022.78 442.006C1023.06 442.073 1023.05 443.13 1023.06 443.411C1023.14 444.442 1023.06 445.486 1022.87 446.503C1022.78 447.052 1022.42 448.136 1022.97 448.564C1023.44 448.925 1024.25 448.858 1024.92 448.979C1025.86 449.139 1026.81 449.287 1027.74 449.46C1027.85 449.487 1027.95 449.701 1028 449.835C1028.01 449.875 1027.87 450.023 1027.77 450.036C1026.62 450.29 1025.47 450.558 1024.31 450.772C1023.5 450.919 1022.49 450.772 1021.95 451.214C1021.44 451.629 1021.45 452.659 1021.21 453.409C1020.91 454.319 1020.58 455.215 1020.24 456.098C1020.18 456.219 1020 456.393 1019.9 456.366C1019.31 456.219 1019.23 455.122 1019.31 453.997L1019.33 454.011ZM1020.37 452.003C1020.28 452.405 1020.21 452.82 1020.29 453.221C1020.4 453.221 1020.58 453.168 1020.64 453.047C1020.83 452.458 1020.97 451.869 1021.16 451.281C1021.37 450.585 1021.74 450.063 1022.57 450.049C1023.21 450.049 1023.86 450.049 1024.49 449.996C1024.85 449.956 1025.48 449.675 1025.82 449.808C1024.81 449.434 1023.68 449.554 1022.63 449.3C1022.06 449.153 1021.76 448.805 1021.84 448.203C1021.96 447.306 1022.1 446.423 1022.2 445.526C1022.22 445.365 1022.16 445.205 1022.14 445.044C1022.03 445.151 1021.88 445.258 1021.84 445.392C1021.64 445.914 1021.5 446.463 1021.29 446.985C1020.36 449.527 1020.89 449.246 1018.31 448.805C1017.73 448.698 1017.11 448.417 1016.52 448.55C1017.35 449.22 1018.26 449.367 1019.26 449.621C1019.86 449.768 1020.37 449.849 1020.52 450.504C1020.64 451.026 1020.5 451.535 1020.4 452.043L1020.37 452.003ZM1024.52 446.837C1024.39 446.985 1024.36 447.159 1024.52 447.373C1024.83 447.774 1027.06 446.289 1027.37 445.901C1027.25 446.061 1025.05 446.262 1024.52 446.837ZM1014.79 454.171C1014.88 454.198 1015 454.238 1015.1 454.211C1016.07 453.81 1017.05 453.408 1018.03 452.994C1018.18 452.927 1018.34 452.846 1018.46 452.739C1018.68 452.539 1018.86 452.284 1018.56 452.043C1018.43 451.936 1018.14 451.896 1017.99 451.977C1017.07 452.498 1016.16 453.047 1015.25 453.596C1015.06 453.716 1014.9 453.877 1014.75 453.997C1014.78 454.104 1014.78 454.171 1014.79 454.171ZM1018.02 444.83C1017.61 444.455 1017.19 444.147 1016.9 444.04C1017.04 444.696 1017.53 445.258 1017.88 445.82C1018.15 446.235 1018.42 446.878 1018.9 447.092C1019.39 446.503 1018.75 445.539 1018.02 444.843V444.83ZM1025.74 454.934C1025.27 454.385 1024.8 453.837 1024.29 453.315C1024.13 453.154 1023.88 453.087 1023.68 452.98C1023.77 453.221 1023.8 453.516 1023.96 453.703C1024.45 454.305 1024.99 454.881 1025.51 455.443C1025.58 455.51 1025.75 455.469 1025.95 455.483C1025.86 455.229 1025.84 455.041 1025.74 454.921V454.934Z" fill="#4E517E"/>
<g filter="url(#filter0_f_0_1)">
<ellipse cx="857.252" cy="737.497" rx="9.07565" ry="1.21009" fill="#7A776B"/>
</g>
<g filter="url(#filter1_f_0_1)">
<ellipse cx="874.798" cy="730.236" rx="9.07565" ry="1.21009" fill="#7A776B"/>
</g>
<g filter="url(#filter2_f_0_1)">
<ellipse cx="900.815" cy="736.286" rx="9.07565" ry="1.21009" fill="#7A776B"/>
</g>
<g filter="url(#filter3_f_0_1)">
<ellipse cx="923.202" cy="731.446" rx="9.07565" ry="1.21009" fill="#7A776B"/>
</g>
<path d="M915.492 665.511C915.857 668.943 916.113 672.484 916.259 676.099C916.441 680.115 916.514 684.203 916.478 688.438V688.621L916.441 688.767C916.332 689.205 916.368 689.972 916.587 691.067C916.843 692.308 917.281 693.842 917.938 695.703L918.011 695.849V696.032C918.413 701.326 918.595 706.437 918.632 711.438C918.632 716.44 918.486 721.186 918.157 725.75V725.823C917.975 727.027 918.157 727.465 918.413 728.159C918.486 728.305 918.522 728.451 918.595 728.634C918.595 728.634 918.632 728.524 918.741 728.561C919.982 728.926 922.429 729.072 924.765 729.035C926.517 729.035 928.16 728.889 929.073 728.634C928.635 727.684 928.087 726.808 927.394 726.042C926.481 725.019 925.276 724.107 923.889 723.377L923.341 723.085L923.232 722.464C921.99 716.184 921.443 710.416 921.589 705.196C921.735 699.975 922.538 695.265 924.071 691.14C924.254 690.227 924.29 689.205 924.217 688.11C924.144 686.942 923.889 685.664 923.524 684.276L923.451 684.057V683.838C923.925 678.399 924.436 673.616 925.057 669.527C925.495 666.643 925.97 664.088 926.517 661.861C924.948 662.554 923.378 663.175 921.771 663.722C919.654 664.453 917.5 665 915.492 665.402V665.511ZM913.74 676.208C913.557 672.229 913.265 668.359 912.863 664.599L912.754 663.394L913.922 663.211C916.149 662.846 918.559 662.226 920.968 661.422C923.341 660.619 925.714 659.634 927.868 658.538L930.497 657.188L929.657 660.035C928.854 662.7 928.16 666.022 927.54 670.075C926.919 674.054 926.408 678.727 925.97 683.984C926.335 685.445 926.59 686.795 926.663 688.073C926.773 689.424 926.663 690.702 926.481 691.87V691.943L926.444 692.053C925.021 695.959 924.217 700.413 924.071 705.415C923.962 710.27 924.436 715.673 925.568 721.551C927.029 722.354 928.27 723.34 929.256 724.472C930.387 725.75 931.263 727.246 931.811 728.889L931.921 729.254L931.811 729.656C931.702 730.094 931.41 730.423 931.008 730.678C929.986 731.335 927.43 731.664 924.765 731.7C922.209 731.737 919.471 731.554 917.975 731.116C917.208 730.897 916.624 730.569 916.332 730.094L916.259 729.948V729.802C916.113 729.546 916.04 729.327 915.967 729.145C915.565 728.086 915.309 727.429 915.528 725.604C915.857 721.04 916.003 716.33 916.003 711.475C916.003 706.656 915.784 701.654 915.419 696.397C914.762 694.499 914.287 692.892 914.032 691.578C913.776 690.191 913.74 689.095 913.922 688.256C913.922 684.167 913.886 680.151 913.703 676.208H913.74Z" fill="#D9AE63"/>
<path d="M851.125 689.934C851.818 693.257 853.607 698.112 856.528 704.282C859.449 710.488 863.465 718.082 868.576 726.917C869.306 727.72 870.912 728.231 872.92 728.414C875.147 728.633 877.739 728.414 880.222 727.866C880.222 727.72 880.149 727.501 880.003 727.246C879.747 726.808 879.273 726.333 878.725 725.858C877.119 724.508 874.782 723.303 873.066 722.865L872.592 722.755L872.336 722.354C868.503 716.841 865.509 711.219 863.355 705.45C861.201 699.682 859.923 693.768 859.485 687.78V687.379L859.668 687.05C862.734 681.83 865.29 676.974 867.298 672.484C869.123 668.395 870.511 664.598 871.46 661.13C869.744 660.217 868.247 659.195 866.969 658.099C866.458 657.661 865.947 657.187 865.509 656.712C865.18 660.436 864.122 664.598 862.296 669.271C859.887 675.331 856.199 682.231 851.161 689.934H851.125ZM854.192 705.377C851.052 698.66 849.153 693.476 848.496 689.898L848.387 689.387L848.679 688.949C853.753 681.209 857.477 674.309 859.85 668.285C862.187 662.371 863.246 657.296 862.953 653.098L862.625 647.95L865.326 652.368C866.166 653.718 867.261 654.996 868.576 656.128C869.963 657.296 871.569 658.355 873.468 659.304L874.38 659.779L874.125 660.764C873.139 664.634 871.606 668.906 869.561 673.506C867.553 677.996 865.034 682.815 862.004 687.963C862.442 693.622 863.684 699.134 865.692 704.538C867.699 709.977 870.511 715.271 874.088 720.492C876.06 721.076 878.542 722.39 880.295 723.85C881.061 724.507 881.682 725.201 882.12 725.895C882.631 726.771 882.85 727.647 882.631 728.523C882.522 728.961 882.303 729.363 882.011 729.728L881.755 730.02L881.353 730.13C878.433 730.896 875.293 731.152 872.628 730.896C869.926 730.641 867.663 729.801 866.495 728.414L866.422 728.341V728.268C861.201 719.36 857.112 711.657 854.155 705.341L854.192 705.377Z" fill="#D9AE63"/>
<path d="M953.532 588.88C954.116 590.815 956.051 593.334 959.373 596.4L960.578 597.532L959.154 598.408C957.949 599.175 957.073 600.453 956.526 602.242C955.941 604.177 955.795 606.696 956.051 609.799V609.872V610.018C955.686 613.815 955.102 617.064 954.226 619.693C953.094 623.161 951.524 625.716 949.516 627.359C947.435 629.075 944.916 629.769 941.959 629.513C940.791 629.404 939.586 629.148 938.308 628.747L938.125 628.674L937.943 628.564C935.46 626.739 933.27 624.767 931.372 622.613C929.51 620.496 927.94 618.232 926.625 615.823C923.048 612.464 919.579 610.018 916.148 608.521C912.752 607.024 909.394 606.477 906.108 606.805H905.962H905.816C903.479 606.513 900.924 605.71 898.186 604.469C895.521 603.264 892.636 601.585 889.533 599.504C885.006 598.554 881.136 598.81 877.96 600.343C874.711 601.913 872.082 604.761 870.074 608.996V609.105L869.928 609.215C868.432 611.186 866.789 613.012 865 614.691C863.174 616.37 861.203 617.904 859.049 619.291H858.976L858.867 619.401C856.274 620.532 854.157 621.92 852.478 623.562C850.835 625.169 849.63 627.031 848.863 629.185L848.754 629.477L848.535 629.696C847.622 630.536 846.709 631.521 845.724 632.543C844.738 633.602 843.752 634.734 842.693 635.939H842.657C840.978 637.801 839.955 640.247 839.627 643.277C839.298 646.417 839.736 650.25 840.905 654.667V654.74C842.84 663.685 843.497 671.278 842.949 677.448C842.365 683.801 840.503 688.693 837.327 692.198C836.086 693.767 836.487 698.075 838.495 704.975C840.613 712.131 844.482 721.842 850.178 733.963V734.036L850.251 734.109C850.981 736.336 856.786 735.788 862.408 735.277L863.54 735.168C863.357 734.802 863.028 734.364 862.59 733.926C860.874 732.101 857.844 730.093 855.325 729.728L854.705 729.618L854.413 729.107C851.2 723.594 848.827 717.899 847.294 712.131C845.797 706.326 845.14 700.412 845.322 694.388V694.023L845.541 693.731C851.638 684.896 856.165 677.083 859.049 670.293C861.897 663.612 863.174 657.99 862.882 653.39L862.554 648.242L865.255 652.659C867.336 656.091 871.06 658.829 876.354 660.91C881.794 663.028 888.949 664.451 897.711 665.109L898.879 665.182V666.35C898.989 670.548 898.952 674.82 898.733 679.201C898.551 683.582 898.186 688.072 897.711 692.672V692.855L897.638 693.001C897.456 693.439 897.419 694.206 897.529 695.301C897.638 696.542 897.93 698.112 898.405 700.047V700.193V700.375C898.259 705.706 897.967 710.853 897.492 715.782C897.017 720.747 896.397 725.493 895.63 729.983V730.056C895.411 730.896 895.302 731.699 895.302 732.429C895.302 733.05 895.302 733.634 895.448 734.218C895.594 734.255 896.324 734.218 897.382 734.328C899.062 734.547 901.252 734.62 903.187 734.547C904.757 734.51 906.144 734.364 906.948 734.145C906.583 733.123 905.962 732.174 905.195 731.334C904.173 730.202 902.932 729.18 901.544 728.268L901.033 727.939L900.96 727.318C900.34 720.929 900.376 715.125 900.997 709.977C901.654 704.793 902.932 700.193 904.83 696.213C905.086 695.337 905.232 694.352 905.268 693.22C905.268 692.052 905.195 690.774 904.976 689.35V689.131V688.912C906.071 682.742 907.021 677.959 908.006 674.09C908.992 670.147 910.014 667.08 911.292 664.415L911.584 663.794L912.278 663.721C916.659 663.174 922.062 661.567 926.808 659.267C930.933 657.259 934.511 654.777 936.41 652.112L936.848 651.491L937.614 651.601C949.589 653.17 957.475 650.615 962.476 644.007C967.551 637.253 969.778 626.264 970.289 611.15C970.216 610.091 970.253 609.032 970.362 607.937C970.472 606.842 970.691 605.783 970.983 604.688L971.165 604.031L971.786 603.812C972.881 603.447 973.794 602.716 974.561 601.658C975.364 600.526 976.021 598.993 976.459 597.094L976.605 596.474L977.189 596.218C979.343 595.305 981.388 594.429 983.359 593.589C985.184 592.823 987.01 592.093 988.872 591.326C989.529 590.012 989.602 588.989 989.127 588.259C988.543 587.31 987.083 586.58 984.783 586.105L984.527 586.032L984.308 585.886C983.03 584.973 981.497 584.645 979.708 584.9C977.737 585.193 975.51 586.178 972.954 587.821L972.48 588.113L971.932 587.967C969.705 587.383 967.624 587.273 965.653 587.639C963.681 588.004 961.819 588.843 960.067 590.158L959.41 590.632L958.679 590.267C957.694 589.72 956.635 589.391 955.54 589.208C954.81 589.099 954.079 589.062 953.313 589.135L953.532 588.88ZM956.562 597.24C952.765 593.48 950.83 590.34 950.794 587.785V586.689L951.853 586.507C953.313 586.251 954.737 586.215 956.124 586.434C957.256 586.616 958.314 586.908 959.373 587.42C961.272 586.105 963.243 585.266 965.36 584.9C967.551 584.499 969.814 584.572 972.187 585.12C974.853 583.44 977.299 582.418 979.489 582.126C981.862 581.761 983.943 582.199 985.732 583.404C988.58 584.061 990.515 585.156 991.464 586.653C992.522 588.332 992.376 590.34 991.062 592.713L990.843 593.115L990.442 593.297C988.58 594.064 986.608 594.867 984.527 595.707C982.665 596.474 980.803 597.277 978.941 598.08C978.43 600.051 977.7 601.658 976.787 602.935C975.875 604.213 974.743 605.162 973.429 605.747C973.246 606.477 973.137 607.243 973.064 607.974C972.954 608.923 972.954 609.835 973.027 610.785V610.931C972.479 626.593 970.143 638.093 964.703 645.321C959.227 652.586 950.794 655.507 938.235 654.01C936.008 656.821 932.284 659.34 928.122 661.348C923.376 663.648 918.01 665.291 913.483 665.948C912.424 668.285 911.511 671.023 910.671 674.491C909.722 678.324 908.81 682.961 907.714 688.948C907.933 690.409 908.043 691.796 908.006 693.074C908.006 694.461 907.787 695.702 907.422 696.834V696.944L907.349 697.017C905.524 700.777 904.319 705.121 903.698 710.05C903.078 714.906 903.078 720.309 903.589 726.26C904.94 727.172 906.217 728.231 907.276 729.436C908.481 730.823 909.394 732.393 909.832 734.145V734.364V734.583C909.759 735.277 909.284 735.788 908.554 736.117C907.532 736.591 905.56 736.81 903.406 736.883C901.325 736.956 899.025 736.883 897.236 736.628C895.192 736.372 893.622 735.861 893.221 734.985V734.875L893.148 734.766C892.965 733.926 892.856 733.05 892.892 732.137C892.892 731.225 893.038 730.275 893.257 729.29C894.024 724.799 894.644 720.126 895.119 715.307C895.557 710.488 895.886 705.487 896.032 700.266C895.557 698.294 895.229 696.652 895.119 695.337C894.973 693.95 895.046 692.855 895.302 692.052C895.776 687.561 896.105 683.18 896.324 678.909C896.506 674.966 896.579 671.132 896.506 667.372C888 666.642 880.99 665.218 875.551 663.101C871.279 661.421 867.921 659.34 865.511 656.785C865.146 660.983 863.832 665.766 861.532 671.132C858.611 677.996 854.084 685.845 847.987 694.717C847.841 700.375 848.462 705.925 849.886 711.364C851.309 716.731 853.5 722.025 856.457 727.209C859.378 727.866 862.7 730.093 864.562 732.101C865.182 732.758 865.694 733.452 865.986 734.072C866.387 734.948 866.46 735.752 866.059 736.482C865.767 736.993 865.292 737.358 864.562 737.541H864.489H864.379C863.941 737.577 863.357 737.65 862.736 737.687C856.165 738.307 849.411 738.928 847.951 734.875C842.219 722.645 838.313 712.861 836.159 705.596C833.859 697.783 833.639 692.672 835.501 690.445H835.538C838.313 687.305 839.992 682.888 840.503 677.12C841.051 671.205 840.393 663.904 838.532 655.178C837.29 650.469 836.852 646.38 837.217 642.912C837.582 639.334 838.787 636.413 840.868 634.186C841.927 632.945 842.949 631.777 843.935 630.718C844.847 629.732 845.76 628.82 846.636 627.98C847.513 625.607 848.9 623.526 850.762 621.701C852.624 619.875 854.96 618.305 857.808 617.064C859.816 615.786 861.641 614.362 863.321 612.793C865 611.259 866.497 609.58 867.847 607.791C870.111 603.118 873.105 599.869 876.865 598.043C880.662 596.218 885.152 595.889 890.336 597.058L890.592 597.131L890.775 597.277C893.841 599.358 896.652 601.001 899.244 602.205C901.727 603.337 903.99 604.031 905.998 604.323C909.686 603.958 913.41 604.578 917.17 606.221C920.93 607.864 924.727 610.529 928.524 614.18L928.67 614.326L928.779 614.508C930.021 616.845 931.517 618.999 933.27 621.007C935.022 622.978 936.994 624.804 939.257 626.447C940.279 626.775 941.265 626.994 942.178 627.067C944.441 627.286 946.34 626.739 947.91 625.461C949.552 624.147 950.83 621.956 951.816 618.999C952.619 616.516 953.203 613.523 953.532 609.981C953.276 606.623 953.459 603.812 954.116 601.585C954.627 599.796 955.467 598.372 956.562 597.313V597.24Z" fill="#D9AE63"/>
<path d="M870.513 651.564C869.892 651.235 869.673 650.432 870.002 649.848C870.33 649.227 871.133 649.008 871.718 649.337C875.04 651.199 878.362 652.732 881.684 653.937C884.97 655.141 888.256 656.018 891.505 656.565C892.199 656.675 892.673 657.332 892.564 658.026C892.454 658.719 891.797 659.194 891.103 659.084C887.708 658.5 884.276 657.587 880.845 656.31C877.413 655.068 873.981 653.462 870.549 651.527L870.513 651.564Z" fill="#D9AE63"/>
<path d="M911.438 664.123C912.131 662.662 912.898 661.275 913.628 659.997C914.358 658.756 915.088 657.588 915.782 656.456L917.936 657.807C917.279 658.866 916.549 659.997 915.818 661.239C915.125 662.443 914.395 663.758 913.738 665.145L911.438 664.05V664.123Z" fill="#D9AE63"/>
<path d="M896.468 665.983C896.578 665.034 896.359 663.428 896.176 662.114C896.03 661.091 895.921 660.252 895.957 659.704L898.513 659.887C898.513 660.142 898.586 660.872 898.732 661.749C898.951 663.209 899.17 664.961 899.06 666.239L896.541 665.947L896.468 665.983Z" fill="#D9AE63"/>
<path d="M835.428 649.3C836.378 653.024 836.305 655.908 835.246 658.245C834.151 660.618 832.106 662.334 829.039 663.721L827.579 664.378L827.287 662.808C826.703 659.815 827.031 657.149 828.054 654.813C829.149 652.33 831.047 650.249 833.493 648.57L834.99 647.548L835.428 649.3ZM832.946 657.222C833.566 655.835 833.712 654.083 833.347 651.856C832.033 653.024 831.011 654.338 830.354 655.835C829.733 657.259 829.441 658.865 829.551 660.618C831.193 659.669 832.325 658.573 832.946 657.222Z" fill="#D9AE63"/>
<path d="M833.056 649.081C834.297 646.562 835.83 643.751 836.853 641.925C837.181 641.341 837.437 640.867 837.619 640.538L839.846 641.743C839.627 642.108 839.372 642.583 839.08 643.167C838.057 645.029 836.524 647.803 835.319 650.249L833.056 649.117V649.081Z" fill="#D9AE63"/>
<defs>
<filter id="filter0_f_0_1" x="846.483" y="734.593" width="21.5396" height="5.80816" filterUnits="userSpaceOnUse" color-interpolation-filters="sRGB">
<feFlood flood-opacity="0" result="BackgroundImageFix"/>
<feBlend mode="normal" in="SourceGraphic" in2="BackgroundImageFix" result="shape"/>
<feGaussianBlur stdDeviation="0.84706" result="effect1_foregroundBlur_0_1"/>
</filter>
<filter id="filter1_f_0_1" x="864.029" y="727.332" width="21.5396" height="5.80816" filterUnits="userSpaceOnUse" color-interpolation-filters="sRGB">
<feFlood flood-opacity="0" result="BackgroundImageFix"/>
<feBlend mode="normal" in="SourceGraphic" in2="BackgroundImageFix" result="shape"/>
<feGaussianBlur stdDeviation="0.84706" result="effect1_foregroundBlur_0_1"/>
</filter>
<filter id="filter2_f_0_1" x="890.045" y="733.382" width="21.5396" height="5.80816" filterUnits="userSpaceOnUse" color-interpolation-filters="sRGB">
<feFlood flood-opacity="0" result="BackgroundImageFix"/>
<feBlend mode="normal" in="SourceGraphic" in2="BackgroundImageFix" result="shape"/>
<feGaussianBlur stdDeviation="0.84706" result="effect1_foregroundBlur_0_1"/>
</filter>
<filter id="filter3_f_0_1" x="912.432" y="728.542" width="21.5396" height="5.80816" filterUnits="userSpaceOnUse" color-interpolation-filters="sRGB">
<feFlood flood-opacity="0" result="BackgroundImageFix"/>
<feBlend mode="normal" in="SourceGraphic" in2="BackgroundImageFix" result="shape"/>
<feGaussianBlur stdDeviation="0.84706" result="effect1_foregroundBlur_0_1"/>
</filter>
<linearGradient id="paint0_linear_0_1" x1="640" y1="0" x2="640" y2="782" gradientUnits="userSpaceOnUse">
<stop stop-color="white"/>
<stop offset="1" stop-color="#E9E2C8"/>
</linearGradient>
</defs>
</svg>
