<svg width="261" height="169" viewBox="0 0 261 169" fill="none" xmlns="http://www.w3.org/2000/svg">
<g clip-path="url(#clip0_0_1)">
<path d="M182.258 115.399C181.28 115.073 180.644 114.049 180.364 113.102C180.054 112.062 180.209 110.96 180.876 110.091C181.218 109.641 181.668 109.284 182.118 108.958C182.599 108.617 183.111 108.307 183.639 108.058C184.772 107.546 186.06 107.345 187.301 107.438C188.62 107.546 189.831 108.058 191.057 108.508C192.143 108.912 193.229 109.176 194.378 109.253C196.473 109.393 198.583 109.036 200.632 108.71C202.633 108.4 204.728 108.058 206.746 108.415C207.863 108.617 208.856 109.052 209.834 109.61C210.889 110.2 211.945 110.867 213.155 111.147C214.319 111.426 215.529 111.302 216.724 111.24C217.95 111.162 219.114 111.178 220.278 111.612C221.473 112.047 222.544 112.745 223.723 113.195C224.872 113.63 226.082 113.893 227.308 114.033C228.55 114.173 229.791 114.157 231.033 114.064C232.305 113.971 233.547 113.723 234.819 113.567C235.486 113.49 236.169 113.443 236.852 113.49C237.457 113.536 238.031 113.676 238.621 113.816C239.832 114.111 240.995 114.343 242.237 114.157C243.339 113.986 244.549 113.49 245.682 113.816C246.07 113.924 246.644 114.343 246.21 114.747C245.775 115.15 245.201 115.461 244.704 115.802C242.578 117.214 240.313 118.487 237.83 119.139C236.604 119.449 235.362 119.604 234.105 119.542C232.895 119.48 231.684 119.263 230.458 119.232C229.869 119.232 229.294 119.263 228.72 119.371C228.037 119.511 227.417 119.79 226.796 120.101C226.222 120.396 225.648 120.706 225.027 120.908C224.515 121.078 224.003 121.187 223.475 121.234C221.318 121.451 219.176 120.923 217.066 120.597C215.995 120.427 214.893 120.303 213.807 120.318C212.705 120.334 211.619 120.551 210.548 120.846C208.484 121.404 206.404 122.32 204.216 122.211C203.146 122.165 202.168 121.792 201.283 121.234C200.383 120.675 199.592 119.977 198.738 119.356C197.9 118.735 197 118.176 195.991 117.944C194.812 117.664 193.633 117.882 192.5 118.223C191.351 118.564 190.203 119.014 188.977 119.03C187.86 119.046 186.742 118.766 185.765 118.239C184.818 117.726 183.965 116.966 183.39 116.05C183.158 115.694 182.583 116.019 182.816 116.392C184.073 118.394 186.277 119.666 188.667 119.744C189.908 119.79 191.088 119.402 192.267 119.046C193.415 118.689 194.626 118.347 195.836 118.642C197.978 119.154 199.468 121.047 201.33 122.087C202.292 122.63 203.347 122.925 204.449 122.941C205.566 122.956 206.684 122.723 207.755 122.429C209.958 121.823 212.084 120.985 214.397 121.032C216.647 121.078 218.85 121.699 221.085 121.916C222.171 122.025 223.273 122.025 224.36 121.823C224.918 121.715 225.446 121.544 225.973 121.311C226.656 121.016 227.277 120.628 227.96 120.349C229.139 119.868 230.412 119.899 231.653 120.008C232.941 120.132 234.229 120.318 235.517 120.24C238.125 120.07 240.592 119.077 242.858 117.82C244.006 117.168 245.123 116.454 246.194 115.694C246.675 115.352 247.249 114.98 247.156 114.312C247.079 113.738 246.567 113.335 246.055 113.148C244.922 112.729 243.634 113.148 242.501 113.381C241.896 113.505 241.306 113.552 240.685 113.49C240.064 113.428 239.459 113.273 238.854 113.117C238.233 112.978 237.612 112.838 236.992 112.776C236.309 112.714 235.595 112.761 234.912 112.838C233.593 113.009 232.274 113.288 230.939 113.397C228.425 113.614 225.803 113.397 223.475 112.388C222.28 111.86 221.147 111.162 219.859 110.821C218.633 110.495 217.376 110.634 216.135 110.743C214.878 110.852 213.652 110.867 212.472 110.371C211.308 109.89 210.269 109.129 209.136 108.586C207.196 107.67 204.977 107.531 202.866 107.748C200.725 107.965 198.614 108.462 196.457 108.602C195.386 108.679 194.3 108.664 193.245 108.462C191.957 108.214 190.777 107.67 189.551 107.267C188.31 106.863 187.037 106.693 185.734 106.879C184.461 107.05 183.282 107.515 182.211 108.229C181.28 108.85 180.364 109.657 179.992 110.759C179.65 111.736 179.79 112.869 180.225 113.8C180.628 114.669 181.295 115.414 182.273 115.569C182.366 115.569 182.397 115.461 182.304 115.43L182.258 115.399Z" fill="#4E517E" stroke="#4E517E" stroke-width="0.77593" stroke-miterlimit="10"/>
<path d="M181.699 112.776C182.677 112.636 183.592 113.195 184.244 113.878C185.051 114.731 185.61 115.802 186.541 116.532C187.301 117.137 188.201 117.556 189.164 117.711C190.219 117.882 191.259 117.711 192.298 117.463C193.338 117.214 194.362 117.028 195.433 117.183C196.38 117.323 197.295 117.664 198.149 118.083C199.871 118.952 201.408 120.147 203.115 121.047C204.915 121.994 207.196 122.801 209.198 121.994C209.462 121.885 209.369 121.497 209.09 121.56C208.174 121.777 207.274 121.839 206.343 121.668C205.396 121.497 204.496 121.156 203.627 120.737C201.889 119.899 200.353 118.72 198.63 117.835C197.776 117.401 196.892 117.013 195.961 116.811C194.968 116.594 193.99 116.594 192.997 116.795C191.91 116.997 190.855 117.354 189.738 117.292C188.76 117.245 187.782 116.888 186.991 116.299C185.92 115.523 185.346 114.297 184.399 113.397C183.67 112.698 182.63 112.14 181.606 112.45C181.389 112.512 181.482 112.807 181.699 112.776Z" fill="#4E517E" stroke="#4E517E" stroke-width="0.77593" stroke-miterlimit="10"/>
<path d="M215.311 119.248C216.832 118.86 218.492 119.45 219.936 119.884C220.68 120.117 221.456 120.288 222.232 120.35C223.148 120.412 224.017 120.226 224.855 119.869C225.755 119.496 226.609 119.077 227.571 118.907C228.331 118.767 229.123 118.751 229.899 118.798C231.528 118.891 233.126 119.217 234.756 119.403C235.64 119.496 236.525 119.558 237.41 119.496C238.294 119.434 239.225 119.279 240.001 118.844C240.234 118.72 240.079 118.348 239.83 118.425C239.07 118.658 238.341 118.86 237.534 118.907C236.742 118.953 235.951 118.907 235.175 118.829C233.545 118.658 231.947 118.317 230.318 118.193C229.542 118.131 228.766 118.131 227.99 118.224C227.09 118.332 226.252 118.596 225.429 118.969C224.529 119.372 223.66 119.791 222.667 119.822C221.891 119.838 221.131 119.682 220.37 119.496C218.694 119.077 216.956 118.472 215.233 119.046C215.078 119.093 215.14 119.326 215.296 119.279L215.311 119.248Z" fill="#4E517E" stroke="#4E517E" stroke-width="0.77593" stroke-miterlimit="10"/>
<path d="M166.398 135.698C165.327 136.086 164.427 136.939 163.651 137.73C162.813 138.584 162.099 139.546 161.556 140.617C160.346 142.991 159.865 145.629 159.151 148.175C158.778 149.494 158.344 150.782 157.723 151.992C157.071 153.28 156.249 154.491 155.302 155.592C154.34 156.679 153.254 157.641 152.043 158.448C150.724 159.332 149.234 159.984 148.148 161.195C147.186 162.281 146.581 163.6 145.914 164.873C145.308 166.036 144.47 167.681 143.012 167.868C142.484 167.945 141.879 167.806 141.506 167.402C141.072 166.921 141.165 166.145 141.211 165.555C141.304 164.391 141.584 163.243 141.987 162.141C142.81 159.876 144.129 157.827 145.417 155.81C146.736 153.715 148.071 151.62 148.955 149.307C149.84 146.98 150.181 144.497 150.569 142.06C150.957 139.686 151.392 137.218 152.54 135.077C152.819 134.565 153.099 134.068 153.456 133.618C153.58 133.463 153.595 133.246 153.456 133.09C153.316 132.966 153.052 132.935 152.928 133.09C152.136 134.084 151.531 135.139 151.066 136.318C150.616 137.467 150.305 138.677 150.057 139.888C149.56 142.386 149.328 144.931 148.645 147.399C147.993 149.804 146.783 151.992 145.51 154.103C144.222 156.213 142.825 158.293 141.817 160.558C141.32 161.66 140.917 162.809 140.668 164.003C140.544 164.609 140.466 165.229 140.435 165.85C140.404 166.549 140.435 167.278 140.885 167.837C141.755 168.938 143.415 168.83 144.47 168.054C145.712 167.138 146.379 165.617 147.062 164.283C147.745 162.964 148.49 161.691 149.731 160.791C150.398 160.31 151.112 159.922 151.811 159.503C152.462 159.1 153.083 158.665 153.673 158.184C155.985 156.322 157.801 153.854 158.887 151.092C159.88 148.562 160.253 145.862 161.044 143.271C161.432 141.983 161.944 140.741 162.674 139.608C163.325 138.6 164.179 137.699 165.095 136.924C165.514 136.582 165.964 136.225 166.46 136.023C166.646 135.946 166.569 135.651 166.383 135.729L166.398 135.698Z" fill="#4E517E" stroke="#4E517E" stroke-width="0.77593" stroke-miterlimit="10"/>
<path d="M147.993 155.329C149.126 154.351 150.103 153.218 150.864 151.93C151.624 150.658 152.183 149.245 152.493 147.802C152.85 146.157 152.804 144.497 152.757 142.836C152.726 142.045 152.71 141.253 152.804 140.462C152.897 139.732 153.052 139.019 153.238 138.305C153.673 136.691 154.262 135.108 154.93 133.572C155.007 133.37 154.976 133.137 154.774 133.028C154.604 132.935 154.324 132.982 154.231 133.184C153.626 134.549 153.114 135.93 152.695 137.358C152.276 138.786 151.966 140.26 151.981 141.765C151.981 143.457 152.183 145.148 151.966 146.824C151.779 148.283 151.345 149.757 150.709 151.077C149.979 152.582 149.017 153.994 147.807 155.158C147.682 155.282 147.869 155.453 147.993 155.344V155.329Z" fill="#4E517E" stroke="#4E517E" stroke-width="0.77593" stroke-miterlimit="10"/>
<path d="M165.729 106.972C166.489 107.469 167.793 107.608 168.196 106.584C168.367 106.181 168.274 105.715 167.917 105.436C167.545 105.156 167.017 105.172 166.598 105.343C166.024 105.575 165.62 106.134 165.031 106.336C164.581 106.491 163.836 106.522 163.494 106.118C163.184 105.762 163.541 105.28 163.836 105.048C164.208 104.768 164.674 104.629 165.139 104.629C166.225 104.598 167.25 105.203 167.793 106.149C167.901 106.351 168.258 106.212 168.181 105.994C167.839 105.048 166.986 104.396 166.008 104.163C165.093 103.946 163.944 104.085 163.292 104.846C163.013 105.172 162.796 105.606 162.904 106.056C163.029 106.584 163.572 106.863 164.053 106.941C164.612 107.034 165.17 106.91 165.651 106.615C166.132 106.32 166.567 105.777 167.172 105.762C167.405 105.762 167.684 105.839 167.746 106.103C167.793 106.32 167.669 106.537 167.514 106.693C167.079 107.143 166.35 106.879 165.838 106.708C165.667 106.646 165.589 106.894 165.729 106.987V106.972Z" fill="#4E517E" stroke="#4E517E" stroke-width="0.77593" stroke-miterlimit="10"/>
<path d="M166.878 108.369C166.102 108.261 165.326 108.105 164.55 107.935C163.882 107.795 163.122 107.686 162.61 107.174C161.772 106.336 161.71 104.971 162.377 104.009C163.122 102.953 164.488 102.472 165.745 102.55C166.878 102.627 167.964 103.186 168.755 103.993C169.19 104.443 169.547 104.971 169.764 105.56C169.873 105.855 169.966 106.166 169.966 106.491C169.966 106.833 169.857 107.112 169.686 107.407C169.562 107.624 169.811 107.811 170.012 107.733C170.68 107.438 170.664 106.491 170.555 105.871C170.431 105.203 170.121 104.567 169.733 104.024C168.926 102.922 167.7 102.115 166.334 101.882C164.876 101.634 163.293 102.053 162.284 103.186C161.399 104.195 161.213 105.762 161.974 106.91C162.424 107.593 163.107 107.873 163.882 108.043C164.86 108.276 165.853 108.431 166.862 108.555C166.986 108.555 167.017 108.354 166.893 108.338L166.878 108.369Z" fill="#4E517E" stroke="#4E517E" stroke-width="0.77593" stroke-miterlimit="10"/>
<path d="M160.19 105.823C158.157 105.11 155.984 105.699 153.92 105.932C152.725 106.072 151.561 106.01 150.382 105.761C149.171 105.513 148.008 105.156 146.813 104.861C142.266 103.682 137.563 102.984 132.861 103.077C128.237 103.154 123.597 104.023 119.36 105.917C117.25 106.863 114.844 108.136 114.192 110.541C113.929 111.534 113.975 112.667 114.549 113.552C115.232 114.607 116.489 115.228 117.513 115.895C121.89 118.735 126.359 121.466 130.999 123.872C133.296 125.067 135.624 126.153 138.014 127.146C140.372 128.124 142.824 128.884 145.168 129.924C147.309 130.87 149.389 131.972 151.577 132.779C153.703 133.555 155.906 134.098 158.064 134.781C159.243 135.154 160.422 135.479 161.648 135.712C162.905 135.945 164.178 136.085 165.466 136.193C167.995 136.411 170.556 136.55 173.101 136.457C175.615 136.364 178.145 136.023 180.535 135.262C182.645 134.595 184.74 133.819 186.789 132.981C189.023 132.065 191.087 130.839 193.167 129.629C195.494 128.263 197.807 126.851 199.948 125.175C200.988 124.353 201.981 123.484 202.912 122.537C203.285 122.165 202.695 121.59 202.323 121.978C198.598 125.749 193.865 128.356 189.287 130.948C187.409 132.003 185.345 132.717 183.328 133.431C181.186 134.191 179.076 134.921 176.826 135.278C174.374 135.681 171.875 135.728 169.408 135.65C166.909 135.557 164.38 135.417 161.912 134.983C159.662 134.595 157.505 133.835 155.317 133.198C154.23 132.888 153.144 132.562 152.073 132.19C150.987 131.802 149.947 131.336 148.908 130.855C146.782 129.877 144.671 128.869 142.467 128.062C140.078 127.193 137.734 126.261 135.437 125.175C130.859 123.003 126.468 120.457 122.138 117.804C121.036 117.137 119.965 116.438 118.864 115.771C118.336 115.445 117.808 115.135 117.281 114.809C116.738 114.483 116.163 114.157 115.682 113.722C114.844 112.962 114.58 111.86 114.86 110.774C115.155 109.61 115.977 108.694 116.939 108.027C117.932 107.329 119.05 106.801 120.152 106.32C121.191 105.87 122.262 105.482 123.348 105.156C125.537 104.504 127.787 104.085 130.068 103.884C134.662 103.48 139.302 103.884 143.802 104.799C144.919 105.032 146.037 105.28 147.138 105.575C148.318 105.886 149.482 106.227 150.677 106.413C151.779 106.584 152.88 106.615 153.998 106.475C155.037 106.351 156.062 106.087 157.101 105.979C158.126 105.87 159.134 105.87 160.112 106.18C160.329 106.258 160.422 105.901 160.205 105.839L160.19 105.823Z" fill="#4E517E" stroke="#4E517E" stroke-width="0.77593" stroke-miterlimit="10"/>
<path d="M114.596 111.473C112.563 109.58 111.942 106.212 113.044 103.683C114.425 100.486 118.289 98.7945 121.347 97.6772C127.864 95.2718 134.755 93.9372 141.645 93.1923C148.582 92.4474 155.565 92.2612 162.533 92.1371C169.516 92.0129 176.577 92.0905 183.545 91.4077C185.237 91.237 186.959 90.9576 188.511 90.1817C190.016 89.4213 191.041 88.2109 191.848 86.7521C192.701 85.2002 193.477 83.7415 194.796 82.5155C196.115 81.2896 197.652 80.3584 199.141 79.3808C201.671 77.7513 203.937 75.8891 205.799 73.5147C207.537 71.2956 208.918 68.7971 209.896 66.1434C211.851 60.8205 212.177 54.8303 210.485 49.3833C209.663 46.7451 208.344 43.6569 205.613 42.5086C202.912 41.3757 200.15 42.85 197.59 43.6569C194.61 44.6036 191.025 44.6657 188.03 43.7966C186.385 43.3311 184.942 42.462 183.747 41.236C183.173 40.6463 182.676 39.979 182.273 39.2652C181.776 38.3496 182.18 37.7133 183.219 37.884C186.587 38.4272 189.753 37.4029 192.391 35.3235C193.725 34.2682 195.013 33.2129 196.643 32.6698C198.024 32.2042 199.514 32.0335 200.973 32.1266C202.385 32.2197 203.766 32.6232 204.914 33.4767C205.225 33.7095 205.706 33.306 205.566 32.9646C204.076 29.0229 206.621 25.5467 209.244 22.8155C210.656 21.3567 212.037 19.8049 213.046 18.0357C213.512 17.2288 213.9 16.3597 214.117 15.4441C214.21 15.0406 214.288 14.6372 214.319 14.2337C214.365 13.7371 214.272 13.1474 214.846 12.9146C215.746 12.5577 216.957 14.0785 217.407 14.6992C218.09 15.6459 218.462 16.6546 218.493 17.8185C218.54 20.0997 218.322 22.3809 217.841 24.6001C217.422 26.571 216.786 28.4798 216.072 30.342C215.312 32.3128 214.396 34.2216 213.791 36.2546C213.155 38.4117 212.813 40.6929 212.922 42.9431C213.031 45.2398 213.76 47.4124 214.769 49.4609C215.839 51.6335 217.189 53.6509 218.462 55.7149C219.533 57.4685 220.51 59.2842 221.333 61.1774C224.607 68.704 225.647 77.1306 224.778 85.2623C223.894 93.4096 221.038 101.402 216.258 108.09C215.653 108.928 215.032 109.735 214.365 110.527C214.008 110.946 214.629 111.566 214.986 111.132C220.433 104.567 223.894 96.4823 225.244 88.0867C226.594 79.7222 225.926 70.9542 222.947 62.9931C222.202 61.0223 221.333 59.098 220.309 57.2668C219.129 55.1407 217.748 53.1388 216.522 51.0283C215.234 48.8091 214.086 46.4348 213.775 43.8742C213.481 41.3912 213.837 38.8462 214.536 36.4563C215.157 34.3303 216.134 32.3284 216.91 30.2644C217.655 28.2935 218.291 26.2606 218.695 24.1811C219.129 21.9309 219.409 19.5255 219.238 17.2443C219.098 15.2889 217.702 13.1629 215.979 12.2163C215.296 11.8438 214.458 11.9214 213.915 12.4956C213.279 13.1629 213.481 14.1871 213.294 15.0251C212.829 17.1201 211.479 18.9513 210.098 20.5497C207.583 23.4517 204.263 26.214 204.154 30.373C204.123 31.3352 204.309 32.2818 204.65 33.1819C204.868 33.0112 205.085 32.8405 205.302 32.6698C203.052 31.0093 199.902 30.8851 197.279 31.5369C195.696 31.9249 194.346 32.6698 193.058 33.663C191.599 34.7958 190.234 36.0063 188.465 36.6425C186.649 37.2943 184.911 37.2943 183.018 37.0615C181.978 36.9374 180.985 37.6978 181.171 38.8307C181.279 39.4669 181.745 40.0877 182.117 40.6153C182.63 41.3136 183.219 41.9499 183.871 42.493C185.066 43.5018 186.463 44.1846 187.968 44.5881C190.948 45.364 194.455 45.3485 197.419 44.4794C200.197 43.6569 203.425 41.7947 206.14 43.7811C208.608 45.5968 209.616 49.2126 210.16 52.0835C210.718 55.0166 210.718 58.0582 210.222 60.9912C209.244 66.8417 206.311 72.3353 201.826 76.2615C199.234 78.5117 195.976 79.9239 193.586 82.4069C192.406 83.6329 191.723 85.0761 190.901 86.5348C189.908 88.304 188.496 89.4523 186.54 90.011C184.771 90.5231 182.893 90.6162 181.062 90.7404C179.247 90.849 177.415 90.9266 175.6 91.0042C172.015 91.1283 168.43 91.1904 164.861 91.2525C157.722 91.3766 150.568 91.4853 143.461 92.1526C136.477 92.8044 129.509 93.9993 122.852 96.234C119.577 97.3358 116.101 98.6083 113.696 101.215C111.787 103.295 111.213 106.104 112.082 108.804C112.47 110.014 113.153 111.101 114.115 111.939C114.41 112.203 114.844 111.768 114.549 111.489L114.596 111.473Z" fill="#4E517E" stroke="#4E517E" stroke-width="0.77593" stroke-miterlimit="10"/>
<path d="M124.669 111.007C129.014 113.086 133.204 115.507 137.549 117.602C142.484 119.977 147.45 122.305 152.587 124.198C157.661 126.076 162.891 127.426 168.292 127.922C173.506 128.388 178.782 128.124 183.919 127.146C189.025 126.169 194.006 124.462 198.553 121.948C199.096 121.653 199.639 121.327 200.167 121.001C200.524 120.784 200.198 120.225 199.841 120.442C195.434 123.112 190.592 125.02 185.579 126.184C180.505 127.364 175.275 127.798 170.076 127.519C164.753 127.224 159.539 126.091 154.496 124.384C149.281 122.63 144.284 120.318 139.318 117.975C134.911 115.895 130.69 113.443 126.329 111.286C125.864 111.054 125.383 110.821 124.917 110.604C124.653 110.479 124.421 110.883 124.684 111.007H124.669Z" fill="#4E517E" stroke="#4E517E" stroke-width="0.77593" stroke-miterlimit="10"/>
<path d="M118.306 110.789C121.162 112.403 124.095 113.893 127.012 115.367C129.899 116.842 132.754 118.362 135.625 119.868C138.325 121.28 141.134 122.475 143.943 123.67C146.798 124.88 149.592 126.199 152.525 127.208C157.894 129.055 163.434 130.343 169.099 130.638C174.468 130.917 179.884 130.436 185.114 129.179C190.204 127.953 195.139 125.92 199.577 123.111C200.105 122.77 200.632 122.428 201.144 122.071C201.517 121.808 201.144 121.202 200.788 121.466C196.535 124.492 191.756 126.68 186.743 128.093C181.607 129.551 176.315 130.265 170.976 130.172C168.292 130.126 165.607 129.877 162.953 129.427C160.175 128.946 157.429 128.217 154.744 127.394C153.223 126.929 151.718 126.417 150.243 125.827C148.785 125.253 147.357 124.585 145.914 123.965C143.167 122.785 140.389 121.668 137.689 120.364C134.802 118.968 132.025 117.385 129.169 115.926C126.329 114.483 123.474 113.04 120.634 111.581C119.905 111.208 119.191 110.836 118.461 110.448C118.26 110.339 118.089 110.65 118.291 110.758L118.306 110.789Z" fill="#4E517E" stroke="#4E517E" stroke-width="0.77593" stroke-miterlimit="10"/>
<path d="M128.205 110.201C132.551 112.699 137.035 115.027 141.598 117.091C146.052 119.108 150.614 120.893 155.316 122.259C159.925 123.609 164.674 124.571 169.469 125.006C174.063 125.409 178.703 125.316 183.265 124.602C187.859 123.888 192.344 122.507 196.534 120.49C197.061 120.241 197.573 119.977 198.086 119.698C198.505 119.481 198.132 118.829 197.713 119.062C193.632 121.219 189.24 122.786 184.709 123.686C180.239 124.571 175.646 124.804 171.099 124.524C166.335 124.23 161.617 123.407 157.008 122.166C152.337 120.909 147.774 119.233 143.336 117.308C141.086 116.331 138.867 115.306 136.663 114.236C134.428 113.149 132.225 111.985 129.99 110.868C129.431 110.589 128.873 110.309 128.329 110.03C128.205 109.968 128.097 110.154 128.221 110.216L128.205 110.201Z" fill="#4E517E" stroke="#4E517E" stroke-width="0.77593" stroke-miterlimit="10"/>
<path d="M133.436 110.401C135.438 111.286 137.409 112.233 139.395 113.133C141.335 114.017 143.29 114.902 145.261 115.755C149.156 117.462 153.16 118.921 157.303 119.914C161.385 120.876 165.544 121.482 169.703 121.901C173.784 122.32 177.912 122.614 182.009 122.289C186.199 121.963 190.358 121.016 194.176 119.216C194.641 118.999 195.107 118.766 195.572 118.518C195.991 118.285 195.619 117.664 195.2 117.881C191.522 119.868 187.456 121.032 183.313 121.528C179.262 122.009 175.181 121.807 171.131 121.466C166.972 121.109 162.813 120.566 158.731 119.697C156.714 119.262 154.727 118.75 152.757 118.114C150.708 117.462 148.706 116.702 146.72 115.91C142.778 114.343 138.976 112.403 135.034 110.836C134.522 110.634 134.026 110.432 133.513 110.231C133.42 110.184 133.343 110.355 133.451 110.401H133.436Z" fill="#4E517E" stroke="#4E517E" stroke-width="0.77593" stroke-miterlimit="10"/>
<path d="M118.461 113.257C120.215 114.639 122.077 115.818 124.017 116.935C126.267 118.223 128.564 119.434 130.892 120.582C133.359 121.793 135.842 122.957 138.356 124.089C140.761 125.16 143.182 126.2 145.619 127.193C147.745 128.062 149.871 128.916 152.012 129.754C153.595 130.359 155.178 130.98 156.777 131.554C157.568 131.833 158.36 132.159 159.166 132.376C160.579 132.749 162.037 132.982 163.465 133.199C165.172 133.463 166.879 133.649 168.586 133.757C172.125 133.99 175.709 133.928 179.232 133.509C182.817 133.09 186.355 132.33 189.738 131.104C190.561 130.809 191.368 130.483 192.128 130.049C192.376 129.909 192.206 129.49 191.926 129.583C191.073 129.862 190.266 130.188 189.428 130.499C188.59 130.809 187.736 131.088 186.883 131.337C185.16 131.849 183.422 132.252 181.653 132.563C178.146 133.183 174.561 133.385 171.007 133.307C167.593 133.214 164.195 132.842 160.842 132.19C160.191 132.066 159.539 131.957 158.903 131.756C158.484 131.631 158.08 131.492 157.661 131.352C156.233 130.871 154.821 130.328 153.409 129.8C151.392 129.04 149.374 128.248 147.372 127.426C144.998 126.464 142.624 125.471 140.28 124.446C137.782 123.36 135.299 122.258 132.831 121.079C130.442 119.946 128.083 118.767 125.77 117.51C123.722 116.408 121.72 115.228 119.765 113.987C119.346 113.723 118.927 113.459 118.523 113.18C118.461 113.133 118.384 113.242 118.446 113.288L118.461 113.257Z" fill="#4E517E" stroke="#4E517E" stroke-width="0.77593" stroke-miterlimit="10"/>
<path d="M130.256 106.942C131.978 106.724 133.794 106.786 135.517 107.019C137.286 107.252 139.039 107.655 140.762 108.074C144.207 108.928 147.683 109.921 151.252 109.921C153.27 109.921 155.241 109.425 157.258 109.425C159.058 109.425 160.734 109.999 162.302 110.852C165.514 112.59 168.183 115.197 171.489 116.78C173.273 117.634 175.151 118.208 177.091 118.581C178.053 118.767 179.046 118.937 180.024 118.922C180.955 118.922 181.948 118.736 182.709 118.162C183.097 117.851 183.407 117.479 183.609 117.029C183.795 116.61 183.174 116.268 182.988 116.687C182.15 118.643 179.683 118.379 177.944 118.099C176.02 117.774 174.127 117.277 172.342 116.501C168.975 115.011 166.29 112.466 163.14 110.635C161.665 109.781 160.067 109.083 158.36 108.897C156.296 108.664 154.248 109.238 152.199 109.394C148.676 109.673 145.185 108.819 141.786 107.997C138.419 107.174 134.927 106.29 131.435 106.6C131.032 106.631 130.613 106.724 130.209 106.786C130.101 106.802 130.132 106.988 130.24 106.973L130.256 106.942Z" fill="#4E517E" stroke="#4E517E" stroke-width="0.77593" stroke-miterlimit="10"/>
<path d="M160.175 108.012C161.65 108.493 163.077 109.254 164.396 110.061C165.747 110.883 167.004 111.799 168.292 112.683C169.564 113.568 170.883 114.421 172.28 115.12C173.677 115.818 175.244 116.454 176.827 116.408C177.696 116.377 178.472 116.129 179.139 115.585C179.775 115.073 180.225 114.39 180.412 113.583C180.489 113.196 179.931 113.056 179.822 113.428C179.651 114.065 179.217 114.654 178.72 115.073C178.177 115.539 177.525 115.756 176.827 115.787C175.306 115.849 173.785 115.244 172.435 114.623C169.704 113.366 167.314 111.504 164.753 109.937C164.039 109.502 163.31 109.083 162.55 108.726C161.789 108.369 161.013 108.105 160.206 107.873C160.113 107.842 160.082 107.981 160.175 108.012Z" fill="#4E517E" stroke="#4E517E" stroke-width="0.77593" stroke-miterlimit="10"/>
<path d="M166.94 109.641C167.731 110.324 168.678 110.852 169.609 111.317C170.525 111.783 171.487 112.171 172.48 112.481C173.473 112.807 174.513 113.102 175.553 113.226C176.065 113.288 176.608 113.273 177.074 113.009C177.524 112.745 177.834 112.295 178.082 111.83C178.548 110.961 178.967 110.107 179.619 109.347C180.255 108.602 181 107.997 181.838 107.5C183.529 106.491 185.516 106.057 187.471 106.305C188.79 106.476 190.094 106.833 191.397 107.112C192.747 107.407 194.098 107.779 195.479 107.934C195.727 107.965 195.727 107.609 195.525 107.531C194.377 107.127 193.151 106.895 191.972 106.615C190.823 106.336 189.659 106.041 188.495 105.824C187.471 105.622 186.431 105.529 185.392 105.638C184.429 105.746 183.498 105.995 182.598 106.383C180.829 107.143 179.293 108.447 178.253 110.076C177.974 110.511 177.772 110.976 177.539 111.442C177.322 111.876 177.058 112.326 176.608 112.543C176.112 112.776 175.537 112.668 175.01 112.59C174.513 112.512 174.001 112.419 173.52 112.311C172.372 112.047 171.254 111.643 170.183 111.147C169.113 110.65 168.135 110.014 167.126 109.424C166.987 109.347 166.831 109.548 166.956 109.657L166.94 109.641Z" fill="#4E517E" stroke="#4E517E" stroke-width="0.77593" stroke-miterlimit="10"/>
<path d="M169.858 108.772C171.115 109.378 172.388 109.983 173.738 110.355C174.359 110.526 175.011 110.65 175.647 110.728C176.206 110.805 176.78 110.836 177.338 110.728C177.618 110.681 177.866 110.604 178.13 110.495C178.409 110.386 178.751 110.231 178.952 109.998C179.108 109.828 179.108 109.517 178.813 109.502C178.657 109.502 178.533 109.61 178.425 109.704C178.285 109.797 178.145 109.89 177.99 109.967C176.919 110.526 175.647 110.278 174.514 110.076C172.947 109.781 171.472 109.129 170.014 108.493C169.827 108.416 169.688 108.679 169.858 108.757V108.772Z" fill="#4E517E" stroke="#4E517E" stroke-width="0.77593" stroke-miterlimit="10"/>
<path d="M143.771 111.473C145.509 112 147.247 112.528 149.063 112.668C150.677 112.807 152.306 112.637 153.905 112.435C155.472 112.249 157.07 112.047 158.653 112.187C160.345 112.326 161.881 112.962 163.34 113.816C164.83 114.701 166.242 115.694 167.716 116.609C169.221 117.556 170.758 118.472 172.403 119.17C174.7 120.148 177.167 120.598 179.665 120.66C180.783 120.675 181.931 120.629 183.002 120.318C183.793 120.085 184.616 119.635 184.864 118.797C184.926 118.611 184.942 118.394 184.926 118.192C184.911 117.82 184.321 117.82 184.337 118.192C184.383 118.968 183.84 119.434 183.142 119.698C182.148 120.07 181.047 120.148 179.991 120.148C177.617 120.148 175.227 119.775 173.024 118.891C169.827 117.603 167.033 115.539 164.116 113.723C162.719 112.854 161.245 112.093 159.615 111.799C158.079 111.519 156.512 111.612 154.975 111.799C153.424 111.985 151.872 112.264 150.304 112.311C148.535 112.373 146.797 112.031 145.075 111.659C144.64 111.566 144.205 111.457 143.786 111.349C143.693 111.333 143.662 111.457 143.755 111.488L143.771 111.473Z" fill="#4E517E" stroke="#4E517E" stroke-width="0.77593" stroke-miterlimit="10"/>
<path d="M149.979 114.328C151.19 114.607 152.431 114.731 153.673 114.762C154.294 114.762 154.93 114.762 155.551 114.731C156.14 114.7 156.714 114.623 157.304 114.623C157.894 114.623 158.484 114.7 159.042 114.84C159.616 114.995 160.16 115.244 160.687 115.523C161.774 116.097 162.829 116.733 163.946 117.261C164.551 117.556 165.172 117.82 165.808 118.052C166.46 118.301 167.127 118.518 167.826 118.533C167.997 118.533 168.09 118.27 167.919 118.192C167.36 117.944 166.771 117.789 166.196 117.571C165.607 117.37 165.032 117.121 164.474 116.857C163.372 116.345 162.301 115.74 161.23 115.15C160.191 114.592 159.12 114.126 157.925 114.142C156.699 114.173 155.489 114.343 154.278 114.359C152.866 114.374 151.454 114.25 150.041 114.049C149.886 114.033 149.809 114.266 149.979 114.297V114.328Z" fill="#4E517E" stroke="#4E517E" stroke-width="0.77593" stroke-miterlimit="10"/>
<path d="M188.092 89.9946C192.452 89.5446 196.394 87.2168 199.544 84.2682C201.143 82.7629 202.57 81.0714 203.859 79.2868C205.178 77.4711 206.419 75.5778 207.428 73.5759C207.971 72.5206 208.421 71.4188 208.778 70.286C209.135 69.1531 209.43 67.9582 209.538 66.7632C209.569 66.4063 208.964 66.3287 208.902 66.6857C208.716 67.7099 208.545 68.7186 208.25 69.7118C207.971 70.705 207.599 71.6826 207.164 72.6138C206.248 74.5846 205.069 76.4469 203.843 78.2315C201.422 81.7542 198.443 84.9976 194.718 87.1547C192.639 88.3651 190.404 89.2031 188.045 89.6377C187.843 89.6687 187.89 90.0101 188.092 89.9946Z" fill="#4E517E" stroke="#4E517E" stroke-width="0.77593" stroke-miterlimit="10"/>
<path d="M113.758 106.242C115.714 104.396 118.212 103.309 120.804 102.642C123.287 102.006 125.863 101.664 128.424 101.525C130.875 101.385 133.343 101.447 135.795 101.726C138.045 101.975 140.264 102.394 142.53 102.549C144.734 102.704 146.984 102.611 149.063 101.835C151.515 100.935 153.595 99.3055 155.969 98.2658C158.173 97.3036 160.64 96.9777 162.999 97.3967C165.358 97.8157 167.422 98.9952 169.486 100.128C171.364 101.168 173.288 102.068 175.383 102.58C177.354 103.061 179.402 103.247 181.435 103.185C185.532 103.03 189.582 101.82 193.167 99.8642C201.485 95.3172 207.01 86.9682 210.657 78.4485C214.303 69.9443 216.352 59.7796 211.665 51.2134C211.122 50.2357 210.501 49.3046 209.803 48.4356C209.617 48.2028 209.198 48.5287 209.384 48.7614C212.317 52.6101 213.667 57.4519 213.698 62.2471C213.729 66.9803 212.519 71.6359 210.827 76.0276C207.46 84.7025 202.183 93.4705 194.129 98.4986C190.638 100.687 186.618 102.114 182.506 102.471C180.442 102.658 178.362 102.58 176.345 102.176C174.219 101.757 172.264 100.951 170.37 99.9263C168.384 98.8555 166.413 97.645 164.209 97.0553C162.13 96.4967 159.926 96.4811 157.831 97.0088C155.426 97.614 153.362 99.0107 151.22 100.19C149.048 101.385 146.813 102.114 144.33 102.145C142.033 102.176 139.768 101.804 137.486 101.494C135.174 101.183 132.846 100.997 130.503 101.028C128.129 101.059 125.739 101.276 123.396 101.664C120.959 102.083 118.492 102.704 116.304 103.899C115.264 104.473 114.333 105.156 113.51 106.01C113.355 106.165 113.588 106.382 113.743 106.242H113.758Z" fill="#4E517E" stroke="#4E517E" stroke-width="0.77593" stroke-miterlimit="10"/>
<path d="M213.805 30.667C212.207 33.4448 210.608 36.4399 210.5 39.7143C210.438 41.4214 210.764 43.1284 211.198 44.7734C211.664 46.5115 212.191 48.2496 212.781 49.9566C213.402 51.7568 214.24 53.4638 215.14 55.1398C216.024 56.7538 216.909 58.3677 217.762 59.9816C219.376 63.0698 220.913 66.2201 222.185 69.479C223.504 72.8621 224.544 76.3538 225.274 79.9075C225.367 80.3886 225.491 80.8697 225.599 81.3352C225.661 81.568 226.049 81.5215 226.018 81.2732C225.817 79.4109 225.382 77.5642 224.901 75.7641C224.451 74.0415 223.892 72.35 223.287 70.6895C222.092 67.4306 220.649 64.2803 219.082 61.2076C218.275 59.6402 217.452 58.0729 216.599 56.521C215.699 54.8605 214.752 53.2155 213.991 51.4775C213.262 49.7704 212.719 47.9858 212.191 46.2166C211.695 44.5872 211.214 42.9267 211.043 41.2197C210.872 39.5747 211.043 37.9452 211.508 36.3623C211.959 34.7794 212.657 33.2896 213.386 31.8154C213.557 31.4585 213.728 31.1015 213.914 30.7291C213.96 30.6515 213.836 30.5894 213.79 30.667H213.805Z" fill="#4E517E" stroke="#4E517E" stroke-width="0.77593" stroke-miterlimit="10"/>
</g>
<path d="M79.8885 142.694C82.5807 143.322 85.3268 143.735 88.001 144.399C88.4856 145.278 88.3779 146.337 88.4318 147.306C88.4318 149.245 88.2703 151.183 88.3241 153.103C88.3241 154.575 89.3831 155.562 90.7651 154.629C91.8599 153.839 92.5778 152.619 93.2958 151.488C93.9778 150.375 94.5701 149.227 95.1624 148.06C95.5213 147.36 95.8264 146.642 96.2572 145.978C96.5264 145.583 97.0469 145.655 97.4597 145.691C99.0033 145.942 100.475 146.499 102.019 146.786C103.58 147.109 105.142 147.432 106.703 147.755C107.295 147.863 107.906 147.97 108.48 148.114C108.965 148.204 109.521 148.311 109.988 148.078C110.723 147.719 110.795 146.822 110.436 146.175C109.288 144.147 107.403 142.568 105.752 140.97C104.854 140.145 103.921 139.337 103.078 138.494C102.36 137.955 102.449 137.165 102.647 136.394C103.131 134.689 103.957 133.109 104.747 131.548C105.016 131.027 105.303 130.489 105.572 129.968C105.788 129.555 106.039 129.089 105.931 128.622C105.501 127.061 103.508 127.797 102.449 128.227C100.744 128.981 99.1469 129.932 97.4238 130.668C96.5982 131.171 95.7188 130.453 95.0547 130.004C94.1573 129.286 93.3675 128.443 92.5778 127.599C91.2676 126.199 89.9753 124.781 88.701 123.363C88.019 122.627 87.1754 121.317 86.0806 122.179C86.0626 122.179 86.0447 122.215 86.0267 122.215C84.2858 123.579 86.0267 130.435 86.3857 132.499C86.4575 132.894 86.5652 133.307 86.6549 133.701C86.6549 133.809 86.6729 133.935 86.6011 134.025C85.7216 134.868 84.4652 135.227 83.3704 135.73C81.0371 136.699 78.6141 137.524 76.1732 138.224C75.563 138.386 74.9348 138.565 74.4502 138.978C72.422 141.204 78.5603 142.37 79.9064 142.729L79.8885 142.694ZM83.0653 141.85C80.7141 141.383 78.327 140.97 76.1552 139.929C78.327 139.194 80.5346 138.565 82.6884 137.722C84.2499 137.094 85.9011 136.609 87.2831 135.622C87.337 135.586 87.3729 135.55 87.4267 135.514C88.2882 134.832 88.5215 133.755 88.1985 132.714C88.001 131.835 87.7677 130.937 87.5882 130.058C87.3011 128.694 87.1216 127.402 86.9421 126.056C86.8703 125.212 86.7806 124.333 86.978 123.507C88.719 125.374 90.2984 127.42 92.0573 129.268C93.4573 130.65 94.9649 132.463 97.0828 132.535C97.7828 132.535 98.393 132.14 98.9853 131.817C100.637 130.937 102.36 130.094 104.065 129.466C103.042 131.637 101.821 133.755 101.175 136.089C100.78 137.471 100.978 138.745 102.126 139.696C103.024 140.612 103.885 141.545 104.783 142.46C106.075 143.806 107.511 145.027 108.659 146.499C105.77 145.87 102.88 145.296 99.9725 144.793C98.6982 144.363 97.2982 143.717 95.97 144.273C94.947 144.668 94.588 145.763 94.1393 146.66C93.6188 147.665 93.0624 148.652 92.5419 149.586C91.8061 150.824 91.1061 152.098 90.083 153.121C90.0112 150.483 90.424 147.827 90.0292 145.206C89.6523 143.035 88.8625 142.765 86.8344 142.532C85.578 142.335 84.3217 142.119 83.0653 141.886V141.85Z" fill="#D9AE63"/>
<path d="M118.118 16.2855C118.225 14.8496 118.513 13.36 118.602 12.9292C118.764 12.1215 118.656 11.6728 117.831 11.3498C115.641 10.4703 112.895 9.66263 111.136 8.04729C111.082 7.99344 111.028 7.9396 110.992 7.86781C110.903 7.65243 111.154 7.4191 111.387 7.38321C111.782 7.31141 112.32 7.32936 112.715 7.38321C114.636 7.72422 116.556 8.10113 118.477 8.53189C119.123 8.67548 119.23 8.3883 119.392 7.9037C120.074 5.82171 120.792 3.75767 121.528 1.71158C121.636 1.40646 122.228 0.0603479 122.748 0.185985C123.125 0.275726 123.107 1.69363 123.125 2.07054C123.233 3.45255 123.125 4.85251 122.874 6.21657C122.748 6.95245 122.264 8.40625 123 8.98059C123.628 9.4652 124.723 9.37545 125.62 9.53699C126.876 9.75237 128.151 9.9498 129.407 10.1831C129.551 10.219 129.676 10.5062 129.748 10.6857C129.766 10.7395 129.569 10.9369 129.443 10.9549C127.899 11.2959 126.356 11.6549 124.794 11.942C123.718 12.1395 122.353 11.942 121.636 12.5343C120.954 13.0907 120.971 14.4727 120.648 15.4778C120.236 16.6983 119.805 17.9008 119.338 19.0854C119.266 19.247 119.015 19.4803 118.889 19.4444C118.1 19.247 117.992 17.7752 118.1 16.2676L118.118 16.2855ZM119.536 13.5933C119.41 14.1317 119.32 14.6881 119.428 15.2266C119.572 15.2266 119.823 15.1548 119.895 14.9932C120.146 14.2035 120.343 13.4138 120.595 12.6241C120.882 11.6908 121.366 10.9908 122.479 10.9728C123.341 10.9728 124.22 10.9728 125.064 10.901C125.548 10.8472 126.392 10.4703 126.841 10.6498C125.494 10.1472 123.969 10.3088 122.569 9.96774C121.797 9.77031 121.402 9.30366 121.51 8.49599C121.671 7.29347 121.851 6.10889 121.995 4.90636C122.012 4.69098 121.941 4.4756 121.905 4.26022C121.761 4.40381 121.564 4.54739 121.51 4.72687C121.241 5.42685 121.043 6.16273 120.774 6.86271C119.518 10.2729 120.236 9.89595 116.772 9.30366C116 9.16008 115.156 8.78316 114.367 8.96265C115.479 9.86005 116.7 10.0575 118.046 10.3985C118.854 10.5959 119.536 10.7036 119.733 11.5831C119.895 12.2831 119.715 12.9651 119.571 13.6471L119.536 13.5933ZM125.082 6.66528C124.902 6.86271 124.866 7.09604 125.082 7.38321C125.494 7.92165 128.492 5.9294 128.905 5.40891C128.743 5.62428 125.8 5.89351 125.082 6.66528ZM112.051 16.5009C112.177 16.5368 112.338 16.5906 112.464 16.5547C113.774 16.0163 115.084 15.4778 116.395 14.9214C116.592 14.8317 116.807 14.724 116.969 14.5804C117.274 14.3112 117.507 13.9702 117.113 13.6471C116.933 13.5035 116.538 13.4497 116.341 13.5574C115.102 14.2574 113.882 14.9932 112.661 15.7291C112.41 15.8906 112.195 16.106 111.997 16.2676C112.033 16.4111 112.033 16.5009 112.051 16.5009ZM116.377 3.97305C115.838 3.4705 115.264 3.05769 114.887 2.91411C115.067 3.79357 115.731 4.54739 116.197 5.30122C116.556 5.85761 116.915 6.71912 117.561 7.00629C118.225 6.21657 117.364 4.9243 116.377 3.991V3.97305ZM126.733 17.5239C126.105 16.7881 125.476 16.0522 124.794 15.3522C124.579 15.1368 124.238 15.0471 123.969 14.9035C124.094 15.2266 124.13 15.6214 124.346 15.8727C125.01 16.6804 125.728 17.4521 126.428 18.206C126.517 18.2957 126.751 18.2419 127.02 18.2598C126.894 17.9188 126.876 17.6675 126.733 17.506V17.5239Z" fill="#D9AE63"/>
<path d="M248.854 90.0165C248.962 88.5806 249.249 87.0909 249.339 86.6601C249.5 85.8525 249.392 85.4038 248.567 85.0807C246.377 84.2012 243.631 83.3936 241.872 81.7782C241.818 81.7244 241.764 81.6706 241.729 81.5988C241.639 81.3834 241.89 81.1501 242.123 81.1142C242.518 81.0424 243.057 81.0603 243.452 81.1142C245.372 81.4552 247.293 81.8321 249.213 82.2628C249.859 82.4064 249.967 82.1193 250.128 81.6347C250.81 79.5527 251.528 77.4886 252.264 75.4425C252.372 75.1374 252.964 73.7913 253.485 73.9169C253.862 74.0067 253.844 75.4246 253.862 75.8015C253.969 77.1835 253.862 78.5835 253.61 79.9475C253.485 80.6834 253 82.1372 253.736 82.7115C254.364 83.1961 255.459 83.1064 256.356 83.2679C257.613 83.4833 258.887 83.6808 260.143 83.9141C260.287 83.95 260.413 84.2371 260.484 84.4166C260.502 84.4705 260.305 84.6679 260.179 84.6859C258.636 85.0269 257.092 85.3858 255.531 85.673C254.454 85.8704 253.09 85.673 252.372 86.2653C251.69 86.8217 251.708 88.2037 251.385 89.2088C250.972 90.4293 250.541 91.6318 250.075 92.8164C250.003 92.9779 249.751 93.2112 249.626 93.1753C248.836 92.9779 248.728 91.5062 248.836 89.9985L248.854 90.0165ZM250.272 87.3242C250.146 87.8627 250.057 88.4191 250.164 88.9575C250.308 88.9575 250.559 88.8857 250.631 88.7242C250.882 87.9345 251.08 87.1447 251.331 86.355C251.618 85.4217 252.103 84.7217 253.215 84.7038C254.077 84.7038 254.956 84.7038 255.8 84.632C256.285 84.5782 257.128 84.2012 257.577 84.3807C256.231 83.8782 254.705 84.0397 253.305 83.6987C252.533 83.5013 252.139 83.0346 252.246 82.2269C252.408 81.0244 252.587 79.8398 252.731 78.6373C252.749 78.4219 252.677 78.2066 252.641 77.9912C252.498 78.1348 252.3 78.2783 252.246 78.4578C251.977 79.1578 251.78 79.8937 251.51 80.5937C250.254 84.0038 250.972 83.6269 247.508 83.0346C246.736 82.891 245.893 82.5141 245.103 82.6936C246.216 83.591 247.436 83.7884 248.782 84.1295C249.59 84.3269 250.272 84.4346 250.469 85.314C250.631 86.014 250.451 86.696 250.308 87.3781L250.272 87.3242ZM255.818 80.3962C255.638 80.5937 255.603 80.827 255.818 81.1142C256.231 81.6526 259.228 79.6604 259.641 79.1399C259.479 79.3552 256.536 79.6245 255.818 80.3962ZM242.788 90.2318C242.913 90.2677 243.075 90.3216 243.2 90.2857C244.511 89.7472 245.821 89.2088 247.131 88.6524C247.328 88.5627 247.544 88.455 247.705 88.3114C248.01 88.0422 248.244 87.7011 247.849 87.3781C247.669 87.2345 247.275 87.1806 247.077 87.2883C245.839 87.9883 244.618 88.7242 243.398 89.4601C243.147 89.6216 242.931 89.837 242.734 89.9985C242.77 90.1421 242.77 90.2318 242.788 90.2318ZM247.095 77.704C246.557 77.2015 245.982 76.7886 245.605 76.6451C245.785 77.5245 246.449 78.2783 246.916 79.0322C247.275 79.5886 247.634 80.4501 248.28 80.7372C248.944 79.9475 248.082 78.6553 247.095 77.722V77.704ZM257.451 91.2549C256.823 90.519 256.195 89.7831 255.513 89.0831C255.297 88.8678 254.956 88.778 254.687 88.6344C254.813 88.9575 254.849 89.3524 255.064 89.6036C255.728 90.4113 256.446 91.1831 257.146 91.9369C257.236 92.0267 257.469 91.9728 257.738 91.9908C257.613 91.6497 257.595 91.3985 257.451 91.2369V91.2549Z" fill="#D9AE63"/>
<path d="M13.2116 51.4995C11.7757 52.5046 10.4117 52.4508 9.67581 51.338C9.02967 50.3688 9.35274 49.0227 10.3937 48.3227C11.6501 47.4971 13.1757 47.6407 14.0013 48.6817C14.791 49.6688 14.5398 50.5662 13.2116 51.4995Z" fill="#D9AE63"/>
<path d="M24.4304 45.2354C25.0406 45.9354 26.7816 46.061 27.6072 45.4687C28.4328 44.8765 28.702 43.4586 28.1277 42.6688C27.4457 41.7355 25.6509 41.4484 24.7893 42.1483C23.9817 42.7945 23.7842 44.5175 24.4304 45.2534V45.2354Z" fill="#D9AE63"/>
<path d="M8.00808 65.5709C8.54652 66.3786 9.85674 66.5042 10.79 65.8581C11.7772 65.1581 11.9208 63.8658 11.1131 62.8607C10.4311 62.0171 9.42598 61.8736 8.61832 62.5018C7.77475 63.1479 7.45168 64.7273 8.00808 65.5709Z" fill="#D9AE63"/>
<path d="M24.3228 30.2125C23.6228 30.7868 23.4793 32.0073 24.0356 32.815C24.6997 33.8021 26.2971 33.9637 27.374 33.174C28.2176 32.5458 28.3432 31.5048 27.6971 30.6612C26.9612 29.7279 25.2202 29.4946 24.3408 30.2125H24.3228Z" fill="#D9AE63"/>
<path d="M43.2587 34.1069C43.8869 35.0403 45.1432 35.3633 46.0227 34.8069C46.9381 34.2326 47.2432 32.9583 46.6509 32.025C46.0586 31.0737 44.874 30.8045 43.9048 31.4147C42.8279 32.0968 42.5767 33.1018 43.2407 34.1069H43.2587Z" fill="#D9AE63"/>
<path d="M48.4094 21.0764C49.0017 21.7943 50.4375 22.0097 51.317 21.5071C52.0708 21.0764 52.376 19.9456 51.9272 19.2636C51.317 18.3482 49.8453 18.1329 48.8581 18.8328C48.0863 19.3713 47.8889 20.4123 48.4094 21.0764Z" fill="#D9AE63"/>
<path d="M36.348 26.3175C35.7018 26.7662 35.3429 28.0764 35.7198 28.6149C36.2223 29.3328 37.712 29.4764 38.6094 28.902C39.4171 28.3815 39.6684 27.3764 39.2017 26.6585C38.6812 25.8867 37.1915 25.7252 36.33 26.3354L36.348 26.3175Z" fill="#D9AE63"/>
<path d="M3.59292 79.9833C4.31085 79.5166 4.59802 78.3859 4.18521 77.6859C3.66472 76.8065 2.22886 76.5013 1.42119 77.1116C0.703266 77.668 0.523784 78.6731 1.04428 79.4089C1.63657 80.2346 2.8032 80.5038 3.59292 79.9833Z" fill="#D9AE63"/>
<path d="M35.199 38.6306C35.8272 38.2537 36.0964 37.2127 35.7016 36.6383C35.2349 35.9563 33.8709 35.705 33.0991 36.1537C32.3273 36.6025 31.9863 37.6793 32.3812 38.3793C32.8478 39.187 34.1042 39.2947 35.199 38.6306Z" fill="#D9AE63"/>
<path d="M17.6285 56.04C18.131 56.74 18.831 56.9374 19.6387 56.5964C20.3925 56.2733 20.7694 55.1605 20.4284 54.4067C20.1053 53.7247 18.9028 53.4016 18.1849 53.8144C17.4849 54.2093 17.1618 55.3938 17.6464 56.04H17.6285Z" fill="#D9AE63"/>
<path d="M42.1285 19.5873C42.8824 19.677 43.6362 19.6411 43.9413 19.4796C44.4977 19.2104 44.5336 18.3847 44.031 18.0258C43.69 17.7745 42.8824 17.7386 42.4875 17.6668C41.7516 17.5412 39.9568 17.2181 40.0824 18.4924C40.1363 19.1206 41.1234 19.4616 42.1106 19.5873H42.1285Z" fill="#D9AE63"/>
<path d="M7.77477 73.3246C8.11578 73.5759 8.9055 73.7195 9.19267 73.5041C10.0721 72.84 9.73112 71.9247 8.77987 71.5836C7.75682 71.2067 6.84146 72.6246 7.77477 73.3246Z" fill="#D9AE63"/>
<path d="M145.597 56.219C145.436 56.542 145.364 56.9369 145.31 57.3138C145.185 58.1035 145.849 58.965 146.513 58.7856C148.056 58.3548 149.582 57.8702 151.108 57.3676C154.536 56.2369 154.141 56.3625 155.325 59.5932C155.774 60.7957 156.151 62.0342 156.6 63.2188C156.905 64.0264 157.084 65.1931 158.071 65.1033C158.969 65.0136 159.166 63.8828 159.471 63.0752C159.741 62.3572 159.956 61.6034 160.225 60.8855C160.764 59.4496 161.051 57.7087 161.948 56.6856C162.828 55.6626 164.353 55.3575 165.574 54.7293C166.92 54.0293 168.284 53.3832 169.576 52.5934C170.42 52.0729 170.438 50.6371 169.72 49.9192C169.469 49.6679 169.181 49.4346 168.912 49.2192C167.781 48.3577 166.669 47.4782 165.502 46.6526C164.03 45.6116 163.259 44.2116 163.492 42.1296C163.635 40.8374 163.707 39.5272 163.689 38.2349C163.689 37.1939 163.546 36.1529 163.384 35.1299C163.276 34.394 162.235 33.9632 161.715 34.4299C160.907 35.1478 160.118 35.9016 159.382 36.7093C158.556 37.6067 157.784 38.558 157.03 39.5272C156.348 40.4246 155.505 40.5861 154.572 40.4246C154.015 40.3169 153.477 40.0836 152.92 39.9759C151.143 39.6348 149.349 39.2938 147.554 39.0426C146.477 38.881 145.849 39.8682 146.262 41.0348C146.549 41.8784 146.98 42.6501 147.321 43.4758C147.967 45.0014 148.613 46.5269 149.223 48.0705C149.349 48.3936 149.277 48.8243 149.295 49.1115C149.205 49.3269 149.151 49.4346 149.079 49.5422C147.913 51.7678 146.746 53.9754 145.597 56.219ZM150.372 50.5114C150.946 49.4525 151.126 48.3397 150.587 47.1731C149.797 45.4501 149.008 43.7091 148.236 41.9502C148.164 41.7707 148.2 41.4297 148.308 41.2861C148.433 41.1066 148.703 40.9271 148.882 40.963C150.336 41.2143 151.79 41.5194 153.243 41.8066C153.908 41.9322 154.59 42.0399 155.254 42.2014C156.115 42.4168 156.833 42.1476 157.443 41.4656C158.754 40.0118 160.028 38.54 161.338 37.0862C161.446 36.9785 161.697 36.9965 161.876 37.0324C161.948 37.0324 162.056 37.2118 162.056 37.3375C162.11 37.84 162.2 38.3605 162.182 38.881C162.146 40.7117 162.092 42.5425 162.002 44.3552C161.948 45.3783 162.307 46.0244 163.061 46.5987C164.766 47.891 166.417 49.273 168.069 50.6371C168.571 51.0499 168.499 51.3909 167.835 51.696C165.933 52.5755 164.048 53.4908 162.128 54.2985C161.212 54.6934 160.584 55.2857 160.243 56.3625C159.777 57.8343 159.238 59.2881 158.7 60.7419C158.502 61.2983 158.448 62.088 157.784 62.106C157.641 62.106 157.479 61.2086 157.3 60.724C156.779 59.2702 156.295 57.7984 155.702 56.3805C155.254 55.2498 154.5 54.7831 153.477 55.0703C151.7 55.5549 149.959 56.1472 148.2 56.6856C148.092 56.7215 147.895 56.7215 147.877 56.6856C147.805 56.4702 147.697 56.219 147.751 56.0215C147.877 55.519 148.092 55.0523 148.523 53.8139C148.882 53.1678 149.6 51.8396 150.318 50.5114H150.372Z" fill="#D9AE63"/>
<defs>
<clipPath id="clip0_0_1">
<rect width="136.16" height="157.359" fill="white" transform="translate(111.354 11.6416)"/>
</clipPath>
</defs>
</svg>
