<svg width="109" height="83" viewBox="0 0 109 83" fill="none" xmlns="http://www.w3.org/2000/svg">
<path d="M94.5534 44.6407C92.1924 87.0122 31.028 97.6051 15.2982 56.8608C4.64153 33.282 22.2219 4.37493 47.4598 1.1843C55.9468 -0.283385 64.7849 0.450461 72.3147 4.94925C87.3426 12.7025 94.7449 27.6027 94.5215 44.6726L94.5534 44.6407ZM67.4969 14.2659C61.1476 10.469 66.0611 8.8737 70.177 6.92742C72.6338 4.53445 62.5514 3.7368 61.1795 3.41773C51.2885 2.14148 40.6637 3.60918 32.4319 9.51185C35.3992 13.6916 33.0062 14.9359 40.217 14.2659C43.8224 13.8192 44.5244 17.7756 45.6092 20.3281C46.343 22.6253 44.9711 25.2735 43.2481 26.7731C41.3018 28.1132 40.6318 30.2509 39.4513 32.1334C35.7501 36.9831 28.2841 28.3684 24.6787 35.8983C23.9767 37.7489 20.818 43.9387 25.3487 41.4819C28.635 39.9823 33.3572 40.429 34.793 44.2578C35.1758 45.4064 35.7501 46.4274 36.9945 46.7465C40.5999 47.5441 44.9711 50.0009 43.6948 54.3721C42.3548 59.2218 41.8762 64.6459 37.9198 68.2194C35.0163 70.4848 38.0793 74.0264 36.2926 76.6427C59.5203 88.9904 94.6172 70.4528 92.8305 42.822C89.8632 43.2049 87.1193 42.0563 86.5769 38.9294C85.2368 37.5894 84.7263 35.5154 83.0353 34.5264C80.8975 33.633 80.5147 36.9193 79.8127 38.2275C78.7917 40.9076 75.3778 41.2267 74.1653 38.5466C73.2081 35.1645 70.3685 37.0789 69.2837 34.2073C68.6774 32.7396 68.837 30.3466 66.8269 30.0914C63.6362 30.0914 58.0207 28.6556 60.3818 24.4121C61.0518 23.1996 62.36 22.6253 62.8067 21.2534C59.8713 16.8184 64.5934 16.276 67.465 14.2978L67.4969 14.2659ZM92.7986 40.3652C92.2881 26.6455 84.7263 13.8511 72.7933 7.05505C71.5809 9.16086 69.2517 9.63947 67.2736 10.6286C67.0821 10.7243 66.7631 10.7562 66.7631 11.171C75.3139 16.276 61.8814 16.6269 64.051 19.8176C66.444 23.5825 58.9141 24.3802 62.2005 27.4432C66.9864 29.5171 69.3794 26.3583 70.879 33.5054C71.1023 34.2711 71.9 34.4306 72.57 34.5583C75.3778 34.2392 75.6011 40.8438 78.1855 37.8446C78.8555 36.7917 79.2065 35.5474 79.7808 34.4306C82.429 30.4104 85.6197 34.3349 87.1512 37.047C89.1294 38.4827 87.534 41.9924 92.7667 40.3652H92.7986ZM20.9775 41.6096C20.467 41.8648 20.4032 42.2796 20.4032 42.6625C20.2756 44.8321 18.2974 46.1403 17.2126 47.8313C15.8406 49.65 16.734 52.0429 17.9464 53.6701C19.127 55.7759 21.7114 55.6483 23.7215 56.5098C27.9331 57.5946 26.8802 62.6358 29.4327 65.3798C32.9105 68.8256 28.8265 73.5158 34.091 75.0473C34.5058 75.1112 34.9525 74.8559 34.9206 74.4092C33.2296 65.1245 38.9408 70.1338 41.6528 53.9573C42.961 48.5651 35.1439 49.7776 33.6762 45.9488C30.7728 37.1108 22.3814 47.9908 20.9137 41.5776L20.9775 41.6096ZM21.6157 38.3232C26.625 23.1358 36.1968 37.1108 38.9089 29.2618C39.9299 26.5179 43.1524 25.4331 43.8224 22.5296C44.3329 20.6791 42.9929 18.9561 42.4824 17.2332C42.0995 16.276 41.3018 15.8931 40.3127 15.925C37.6007 16.3717 33.4848 16.3398 32.4957 13.1811C32.1447 12.1601 32.0809 10.9795 30.9323 10.4371C26.1145 13.532 11.7566 29.5809 18.3293 34.5902C20.2756 36.2174 20.5947 36.4726 21.6157 38.3232ZM17.9145 57.1479C19.8927 62.6677 26.1464 70.8676 29.2413 71.9844C30.3899 67.1346 26.0506 65.4755 25.4125 60.7852C24.4872 57.6265 20.5309 58.1051 17.9145 57.1479ZM15.2344 46.7784C16.4149 46.2998 16.9574 44.6407 17.8507 43.6835C18.3931 42.3753 18.5527 40.8757 19.0951 39.5356C19.7651 37.3979 16.7659 35.9941 15.4259 34.6859C14.692 38.8018 14.6601 42.7582 15.2344 46.7465V46.7784Z" fill="#4E517E"/>
<path d="M100.521 38.674C100.584 43.9066 99.9144 47.4801 99.0529 50.9898C98.0638 54.8824 96.8514 58.7749 95.0327 62.3484C93.9479 64.1352 93.1184 63.0185 93.916 61.4551C99.5315 47.3525 99.723 30.9207 91.9697 17.552C91.9697 16.7863 92.8312 17.233 93.1822 17.4882C98.5424 22.3061 100.202 32.7713 100.521 38.6421V38.674Z" fill="#4E517E"/>
<path d="M12.1077 22.1465C12.4906 22.6251 12.363 22.9441 12.1077 23.3908C5.12024 37.0467 7.9599 53.3508 15.8727 65.9538C16.3193 66.3686 16.4789 67.8682 15.5855 66.9748C7.92799 56.0629 3.3973 41.9603 7.89609 28.9106C8.82137 26.4857 9.68284 23.3908 12.1077 22.1465Z" fill="#4E517E"/>
<path d="M2.40818 42.3114C1.96149 47.0654 3.81205 51.4046 5.40736 55.712C3.84396 59.3812 0.0471098 47.193 0.110922 45.853C-0.112422 44.0662 -0.208141 38.5783 1.96149 38.2593C2.85486 39.0569 2.18483 41.1308 2.37627 42.2795L2.40818 42.3114Z" fill="#D9AE63"/>
<path d="M105.943 48.6287C105.656 47.8949 105.816 47.3525 105.943 46.842C106.932 42.6941 105.848 38.5144 105.369 34.3985C105.209 24.8585 111.942 46.8739 105.943 48.6287Z" fill="#D9AE63"/>
<path d="M63.8913 65.4752C64.7208 61.806 59.9668 59.3492 60.9559 54.0209C61.1793 51.245 61.9131 46.8101 57.7334 47.4482C55.0851 47.8949 52.1498 47.5758 51.1288 44.7042C49.9801 41.8965 50.8097 37.6849 54.3194 35.8662C57.0952 34.7814 58.3077 31.6227 61.3388 31.1441C67.9115 30.0593 64.9123 38.0997 70.6554 39.2802C74.1332 40.1417 79.7487 42.6622 78.0896 47.0972C77.0367 49.2987 77.1962 51.6917 77.5472 54.0528C77.8662 57.8815 74.2927 60.6574 73.3674 64.2309C72.4422 66.3686 71.6764 68.6978 70.2406 70.5802C67.1776 74.2495 63.3489 68.8892 63.8913 65.4752ZM56.9995 45.8848C56.9995 45.8848 56.9995 45.8529 56.9995 45.821C66.7948 44.9914 60.0944 55.9672 64.338 60.6574C65.359 62.1251 65.8695 63.6885 65.5504 65.5071C65.1675 67.0705 66.4757 70.8674 68.422 69.7188C70.8149 66.2729 71.6445 61.9974 74.0375 58.5516C77.4195 54.3718 73.7503 51.6279 76.7176 46.491C77.6429 43.779 73.9418 42.1517 71.9317 41.2584C70.0492 40.6202 67.8796 40.1736 66.8267 38.323C66.029 37.0148 64.8804 35.8981 64.4975 34.3028C64.2423 33.2499 63.4127 32.8032 62.296 32.8351C60.7964 32.8351 59.4563 33.6647 58.6268 34.909C57.5419 36.7915 55.2128 36.9191 53.8089 38.4187C50.8735 41.4179 52.3093 46.8739 56.9995 45.9167V45.8848Z" fill="#D9AE63"/>
<path d="M48.5135 6.38503C52.3422 6.48075 54.6395 8.71421 55.82 11.3624C56.4262 12.9258 55.3414 14.5211 56.0752 16.1165C57.9577 20.711 50.3321 25.4012 48.6411 19.8814C48.322 18.0946 46.3119 17.3289 46.2162 15.4783C46.0886 14.3935 46.1843 13.2449 44.9081 12.862C43.6637 12.3515 41.9727 11.2029 43.217 9.799C44.4614 8.04416 46.2481 6.2255 48.5135 6.38503ZM44.1742 10.82C45.7695 12.2877 47.7477 12.1282 47.4925 14.9678C47.7158 16.9779 49.9173 17.1694 50.364 19.9133C51.6722 22.402 55.3095 19.339 54.799 17.2013C54.5757 15.8293 53.9375 14.4892 54.3204 13.0535C54.4161 12.6387 54.3842 12.1282 54.2247 11.7453C52.7251 7.31031 46.2481 6.32122 44.1423 10.82H44.1742Z" fill="#D9AE63"/>
<path d="M80.1636 62.0293C80.1955 64.199 79.1745 66.4324 77.0049 66.9429C75.8882 67.2301 74.9948 66.5281 74.9629 65.3476C75.0267 63.2418 76.5901 61.5827 77.4516 59.764C78.9512 57.7539 80.2912 60.6255 80.1317 62.0293H80.1636ZM78.5045 61.5188C77.8664 61.9974 76.2391 64.4542 76.6858 65.1561C78.1535 64.8052 78.5045 62.9227 78.5045 61.5188Z" fill="#4E517E"/>
<path d="M39.1638 12.7983C33.5482 10.0863 37.8556 7.62951 41.9715 8.65051C44.3326 9.54389 40.4081 12.575 39.1638 12.7983ZM39.0042 11.2987C39.7381 10.9478 40.2486 10.5968 40.5357 9.95868C39.2914 9.83106 38.3342 10.0225 38.1747 10.5649C38.398 10.7883 38.6852 11.0116 39.0042 11.2987Z" fill="#D9AE63"/>
</svg>
