<svg width="92" height="92" viewBox="0 0 92 92" fill="none" xmlns="http://www.w3.org/2000/svg">
<rect width="92" height="92" rx="46" fill="#4E517E"/>
<path d="M55.7873 44.3402C55.7873 38.9256 51.4017 34.5361 45.9918 34.5361C40.5819 34.5361 36.1963 38.9256 36.1963 44.3402V50.8591C36.1963 56.2738 40.5819 60.6632 45.9918 60.6632C51.4017 60.6632 55.7873 56.2738 55.7873 50.8591V44.3402Z" stroke="white" stroke-width="3.26802" stroke-miterlimit="10"/>
<path d="M55.8037 41.0723H59.0717C60.3696 41.0723 61.6142 41.5878 62.5319 42.5055C63.4496 43.4232 63.9652 44.6679 63.9652 45.9657V49.2338C63.9652 50.5316 63.4496 51.7763 62.5319 52.694C61.6142 53.6117 60.3696 54.1272 59.0717 54.1272H55.8037V41.0723Z" stroke="white" stroke-width="3.26802" stroke-miterlimit="10"/>
<path d="M36.1963 54.1279H32.9283C31.6304 54.1279 30.3858 53.6124 29.4681 52.6947C28.5503 51.777 28.0348 50.5323 28.0348 49.2345V45.9664C28.0348 45.3238 28.1614 44.6875 28.4073 44.0938C28.6532 43.5001 29.0137 42.9606 29.4681 42.5062C29.9225 42.0518 30.4619 41.6914 31.0556 41.4454C31.6493 41.1995 32.2856 41.0729 32.9283 41.0729H36.1963V54.1279Z" stroke="white" stroke-width="3.26802" stroke-miterlimit="10"/>
<path d="M32.9277 41.0721C32.9277 37.6052 34.305 34.2802 36.7565 31.8287C39.208 29.3772 42.5329 28 45.9998 28C49.4668 28 52.7917 29.3772 55.2432 31.8287C57.6947 34.2802 59.0719 37.6052 59.0719 41.0721" stroke="white" stroke-width="3.26802" stroke-miterlimit="10"/>
<path d="M59.0731 54.1279V55.8389C59.0686 58.0051 58.2049 60.0809 56.6716 61.611C55.1383 63.1411 53.0607 64.0004 50.8945 64.0004" stroke="white" stroke-width="3.26802" stroke-miterlimit="10"/>
</svg>
