<svg width="92" height="92" viewBox="0 0 92 92" fill="none" xmlns="http://www.w3.org/2000/svg">
<rect width="92" height="92" rx="46" fill="#4E517E"/>
<g clip-path="url(#clip0_1085_2456)">
<path d="M60.5257 31.2465L60.5259 31.2465C60.7332 31.3113 60.9144 31.4405 61.043 31.6155C61.1716 31.7905 61.2409 32.002 61.2409 32.2192V32.2197V35.815V36.8335H62.2594H66.3334C66.6035 36.8335 66.8626 36.9408 67.0536 37.1318C67.2446 37.3228 67.3519 37.5819 67.3519 37.852V54.1482C67.3519 54.4183 67.2446 54.6774 67.0536 54.8684C66.8626 55.0594 66.6035 55.1667 66.3334 55.1667H66.3331L59.7739 55.1688L59.2684 55.1689L58.9628 55.5716C58.2403 56.5237 57.363 57.3638 56.3488 58.0548L56.3485 58.055L45.9631 65.1376L35.5777 58.057C34.07 57.029 32.8361 55.6482 31.9835 54.0348C31.1309 52.4213 30.6853 50.624 30.6855 48.7991V48.799V32.2199C30.6857 32.003 30.7551 31.7918 30.8837 31.6172C31.0123 31.4424 31.1934 31.3132 31.4005 31.2486L31.4008 31.2485L45.9632 26.697L60.5257 31.2465ZM46.2671 28.9233L45.9632 28.8283L45.6592 28.9233L33.4371 32.7448L32.7225 32.9682V33.7169V48.7987C32.7225 48.7988 32.7225 48.7989 32.7225 48.799C32.7222 50.2019 33.044 51.5862 33.6629 52.8452C34.2819 54.1043 35.1817 55.2044 36.2929 56.061L36.3062 56.0712L36.3198 56.081L36.7048 56.3581L36.7152 56.3655L36.7258 56.3728L45.3892 62.2822L45.9632 62.6737L46.5371 62.2821L54.2412 57.0266L56.9676 55.1667H53.6672H43.9262C43.656 55.1667 43.397 55.0594 43.206 54.8684C43.015 54.6774 42.9076 54.4183 42.9076 54.1482V37.852C42.9076 37.5819 43.0149 37.3228 43.206 37.1318C43.397 36.9408 43.656 36.8335 43.9262 36.8335H58.1853H59.2038V35.815V33.7169V32.9682L58.4893 32.7448L46.2671 28.9233ZM45.9632 44.9816H44.9447V46.0001V52.1112V53.1297H45.9632H64.2964H65.3149V52.1112V46.0001V44.9816H64.2964H45.9632ZM44.9447 41.9261V42.9446H45.9632H64.2964H65.3149V41.9261V39.889V38.8705H64.2964H45.9632H44.9447V39.889V41.9261Z" fill="url(#paint0_linear_1085_2456)" stroke="white" stroke-width="2.03702"/>
</g>
<defs>
<linearGradient id="paint0_linear_1085_2456" x1="27.63" y1="46.8149" x2="68.3704" y2="46.0001" gradientUnits="userSpaceOnUse">
<stop stop-color="#DAAF47"/>
<stop offset="0.495" stop-color="#FCE281"/>
<stop offset="1" stop-color="#DAAF47"/>
</linearGradient>
<clipPath id="clip0_1085_2456">
<rect width="42.3701" height="43.9997" fill="white" transform="translate(27.6299 24)"/>
</clipPath>
</defs>
</svg>
