<svg width="92" height="92" viewBox="0 0 92 92" fill="none" xmlns="http://www.w3.org/2000/svg">
<rect width="92" height="92" rx="46" fill="#4E517E"/>
<g clip-path="url(#clip0_1085_2447)">
<mask id="mask0_1085_2447" style="mask-type:luminance" maskUnits="userSpaceOnUse" x="24" y="24" width="44" height="44">
<path d="M25.25 66.75V25.25H66.75V66.75H25.25Z" fill="white" stroke="white" stroke-width="2.5"/>
</mask>
<g mask="url(#mask0_1085_2447)">
<path d="M27.6667 29.4997V27.208C26.401 27.208 25.375 28.234 25.375 29.4997H27.6667ZM47.8333 29.4997H50.125C50.125 28.234 49.0991 27.208 47.8333 27.208V29.4997ZM47.8333 40.4997V38.208C47.2256 38.208 46.6426 38.4495 46.2129 38.8792C45.7831 39.309 45.5417 39.8919 45.5417 40.4997H47.8333ZM27.6667 31.7913H47.8333V27.208H27.6667V31.7913ZM45.5417 29.4997V58.833H50.125V29.4997H45.5417ZM29.9583 55.1663V29.4997H25.375V55.1663H29.9583ZM47.8333 42.7913H57V38.208H47.8333V42.7913ZM62.0417 47.833V55.1663H66.625V47.833H62.0417ZM50.125 58.833V40.4997H45.5417V58.833H50.125ZM57.9722 59.8052C57.4352 60.3422 56.5648 60.3422 56.0278 59.8052L52.7868 63.0462C55.1137 65.3731 58.8863 65.3731 61.2132 63.0462L57.9722 59.8052ZM56.0278 57.8608C56.5648 57.3238 57.4352 57.3238 57.9722 57.8608L61.2132 54.6198C58.8863 52.293 55.1137 52.293 52.7868 54.6198L56.0278 57.8608ZM35.9723 59.8052C35.4353 60.3422 34.5647 60.3422 34.0277 59.8052L30.7868 63.0462C33.1137 65.3731 36.8863 65.3731 39.2132 63.0462L35.9723 59.8052ZM34.0277 57.8608C34.5647 57.3238 35.4353 57.3238 35.9723 57.8608L39.2132 54.6198C36.8863 52.293 33.1137 52.293 30.7868 54.6198L34.0277 57.8608ZM57.9722 57.8608C58.2412 58.1297 58.375 58.4775 58.375 58.833H62.9583C62.9583 57.3117 62.3763 55.7829 61.2132 54.6198L57.9722 57.8608ZM58.375 58.833C58.375 59.1885 58.2412 59.5363 57.9722 59.8052L61.2132 63.0462C62.3763 61.8831 62.9583 60.3543 62.9583 58.833H58.375ZM53.3333 56.5413H47.8333V61.1247H53.3333V56.5413ZM56.0278 59.8052C55.7588 59.5363 55.625 59.1885 55.625 58.833H51.0417C51.0417 60.3543 51.6237 61.8831 52.7868 63.0462L56.0278 59.8052ZM55.625 58.833C55.625 58.4775 55.7588 58.1297 56.0278 57.8608L52.7868 54.6198C51.6237 55.7829 51.0417 57.3117 51.0417 58.833H55.625ZM34.0277 59.8052C33.7588 59.5363 33.625 59.1885 33.625 58.833H29.0417C29.0417 60.3543 29.6238 61.8831 30.7868 63.0462L34.0277 59.8052ZM33.625 58.833C33.625 58.4775 33.7588 58.1297 34.0277 57.8608L30.7868 54.6198C29.6238 55.7829 29.0417 57.3117 29.0417 58.833H33.625ZM47.8333 56.5413H38.6667V61.1247H47.8333V56.5413ZM35.9723 57.8608C36.2412 58.1297 36.375 58.4775 36.375 58.833H40.9583C40.9583 57.3117 40.3762 55.7829 39.2132 54.6198L35.9723 57.8608ZM36.375 58.833C36.375 59.1885 36.2412 59.5363 35.9723 59.8052L39.2132 63.0462C40.3762 61.8831 40.9583 60.3543 40.9583 58.833H36.375ZM62.0417 55.1663C62.0417 55.9257 61.426 56.5413 60.6667 56.5413V61.1247C63.9573 61.1247 66.625 58.457 66.625 55.1663H62.0417ZM57 42.7913C59.7845 42.7913 62.0417 45.0485 62.0417 47.833H66.625C66.625 42.5173 62.3158 38.208 57 38.208V42.7913ZM25.375 55.1663C25.375 58.457 28.0426 61.1247 31.3333 61.1247V56.5413C30.5739 56.5413 29.9583 55.9257 29.9583 55.1663H25.375Z" fill="white"/>
</g>
</g>
<defs>
<clipPath id="clip0_1085_2447">
<rect width="44" height="44" fill="white" transform="translate(24 24)"/>
</clipPath>
</defs>
</svg>
