<svg width="85" height="98" viewBox="0 0 85 98" fill="none" xmlns="http://www.w3.org/2000/svg">
<path d="M77.5557 33.9064C75.5796 33.3863 72.3207 33.0916 67.6056 32.9876C65.5948 23.3669 65.7508 23.8176 65.6468 23.6096C65.8548 23.4709 66.2015 23.3843 66.5309 23.1242C67.8483 22.1015 67.2936 20.212 66.8602 18.6866C66.4789 17.3518 66.5482 17.3691 66.3055 16.5024C66.0802 15.757 66.0108 15.4103 66.2015 15.289C67.363 14.4916 68.3164 13.0355 67.8137 11.5793C67.1723 9.77655 64.5027 9.18717 62.5959 8.92715C62.0412 6.91633 60.3424 5.44288 58.1236 5.44288L57.7769 3.55341C58.661 3.13738 59.2677 2.20131 59.233 1.1959C59.2157 0.797201 58.869 0.46784 58.4703 0.502509C58.0716 0.519844 57.7596 0.866541 57.7769 1.26524C57.7942 1.73327 57.4129 2.23598 56.9448 2.32265C56.4941 2.39199 55.9394 2.0973 55.7834 1.6466C55.6621 1.26524 55.246 1.05722 54.8473 1.17856C54.466 1.2999 54.258 1.73327 54.3793 2.11463C54.674 2.98136 55.4541 3.60541 56.3208 3.76142L56.6848 5.68557C54.6047 6.37895 53.7033 8.3031 53.9113 10.1059C52.3338 10.7993 50.531 11.7874 49.8203 13.3475C49.2656 14.5436 49.4389 16.277 50.739 17.1091C51.0164 17.2651 51.2937 17.2998 51.5884 17.3345C51.6231 17.3345 51.6404 17.3691 51.6751 17.3865C51.6578 17.6465 51.6058 17.9065 51.6058 18.1492C51.6578 19.796 52.1085 21.4428 52.3338 23.0549C52.4032 23.4883 52.4898 24.0256 52.8192 24.4763C53.2179 25.0484 53.8073 25.2911 54.206 25.5684C54.726 25.9324 54.5353 26.1404 55.3327 33.109C48.0175 33.3343 41.777 33.7504 41.6383 33.7677C29.8854 35.7092 10.332 44.9312 9.4999 45.3299C9.20521 45.4686 9.0492 45.7806 9.08387 46.0926C9.08387 46.1966 10.2106 54.0839 10.1413 53.5812C10.7653 57.9149 12.6548 71.2799 15.8097 93.4682C15.8444 93.7456 16.0351 93.9709 16.3124 94.0576C24.061 96.6231 50.5483 97.8539 51.6751 97.9059C51.7271 97.9059 51.7618 97.9059 51.8138 97.9059C51.8484 97.9059 51.8831 97.9059 51.9178 97.8885C68.4377 93.0175 83.7615 83.7608 83.9175 83.6741C84.1602 83.5181 84.2989 83.2408 84.2642 82.9461C83.8482 79.6352 86.1364 97.5592 78.0758 34.5478C78.0411 34.2531 77.8158 34.0104 77.5384 33.9237L77.5557 33.9064ZM77.9371 61.3991C76.221 62.2659 74.5395 61.2085 73.2567 59.7697C70.9512 57.1868 70.9859 54.8293 69.5124 52.8358C69.1311 52.3158 68.351 52.5065 68.2123 53.1132C68.0217 53.9799 68.1083 57.3255 67.519 59.527C67.0683 61.2778 65.8375 63.3753 63.7747 64.086C61.4692 64.866 58.921 63.618 57.3955 62.0405C55.9394 60.5497 54.622 58.3136 53.3739 55.2453C53.0792 54.5346 51.9698 54.7426 51.9525 55.5747C51.9525 57.7935 51.9178 60.047 51.4151 62.1445C50.9991 63.8606 50.0283 66.3568 48.4682 67.1716C47.0294 58.7816 45.4693 50.2703 44.3079 44.0125C51.0684 43.3538 73.6901 43.4578 77.7464 43.4924L79.6706 58.5909C79.3585 59.527 78.8038 60.9831 77.9198 61.4165L77.9371 61.3991ZM38.7608 58.1922C38.5874 57.3948 37.4087 57.4295 37.322 58.2616C37.01 60.8271 37.1833 63.67 36.3686 66.0275C35.6752 68.073 33.8898 70.2051 31.5149 70.3785C29.3481 70.5345 27.4759 69.0264 26.4532 67.5876C25.4131 66.1315 24.5464 64.1553 23.7663 61.3645C23.6623 61.0178 23.333 60.7924 22.9689 60.8444C22.6222 60.8791 22.3275 61.1911 22.3275 61.5551C22.2755 64.45 21.6515 67.3969 20.5247 70.1011C20.1434 70.9852 19.606 72.0773 18.6873 72.4586C17.6992 72.8747 16.5031 72.32 15.7924 71.6266C14.9083 70.7425 14.4403 69.4597 13.7469 68.2983L11.7014 53.8932C21.0968 49.2129 39.1942 45.0872 42.8864 44.2725C44.2385 51.4837 45.712 59.683 47.0641 67.4663C44.4119 67.2236 39.9915 63.618 38.7781 58.2269L38.7608 58.1922ZM77.5731 42.019C72.8927 41.9843 50.843 41.8977 44.0479 42.5737C43.9092 41.863 43.7878 41.1696 43.6665 40.5456C48.8322 40.4242 71.6273 39.9562 77.3651 40.3895L77.5731 42.0363V42.019ZM42.6091 42.799C38.8475 43.6311 21.2528 47.6181 11.4761 52.3331L11.2334 50.5823C14.839 49.2129 35.0512 41.655 42.193 40.6149C42.3317 41.3256 42.4704 42.0536 42.6091 42.799ZM77.1744 38.8814C70.7605 38.4827 48.2255 38.9508 43.3891 39.0721C43.0598 37.304 42.7998 35.9519 42.6437 35.1371C49.7856 34.7038 69.7551 33.6984 76.7063 35.2065L77.1744 38.8814ZM56.8235 33.0396C56.1821 27.3885 56.1648 26.0018 55.8354 25.2564C58.3143 23.7136 61.2785 23.0375 64.1734 23.4016C64.1734 23.4536 64.156 23.5056 64.1387 23.5403C64.1387 23.8003 64.1907 24.0256 64.3121 24.2336C64.9014 27.1459 65.4908 30.0581 66.0975 32.953C63.0466 32.9183 59.8397 32.953 56.8062 33.0396H56.8235ZM60.9838 8.75381C59.025 8.68447 57.0315 8.99649 55.3674 9.53386C55.4367 6.53497 59.649 5.82425 61.0011 8.75381H60.9838ZM51.1551 13.9369C52.1605 11.77 58.6956 8.90981 64.7628 10.886C65.7335 11.198 66.2882 11.5967 66.4442 12.0647C66.6002 12.5154 66.3922 13.0181 66.0455 13.4515C61.2785 11.2847 55.6447 12.1514 51.7444 15.8437C51.7444 15.8437 51.7271 15.8437 51.7098 15.8437C51.6231 15.8437 51.5018 15.809 51.5018 15.8437C50.947 15.4796 50.8777 14.5782 51.1551 13.9542V13.9369ZM53.7899 22.7775C53.5646 21.2347 52.9752 18.7906 53.0965 17.7852C53.1312 17.4731 53.1832 17.0224 53.0272 16.6411C56.2861 13.7808 60.8278 12.9661 64.9014 14.5609C64.2947 15.5143 64.9188 16.7797 65.0748 17.5598C65.4215 19.2933 66.3402 21.3908 65.6295 21.9455C65.5428 22.0148 65.3521 22.1015 65.2655 22.1362C65.1788 22.0668 65.0748 22.0148 64.9708 21.9975C61.4518 21.4081 57.7769 22.2055 54.7953 24.1643C53.9979 23.6789 53.9459 23.6616 53.8073 22.7775H53.7899ZM41.1876 35.3105C41.4303 36.5412 41.673 37.824 41.933 39.1761C34.5311 40.3202 15.3937 47.4447 11.0254 49.0915L10.644 46.3873C13.7296 44.9486 30.6482 37.2346 41.205 35.2932L41.1876 35.3105ZM14.2843 72.1119C15.3417 73.4467 17.0578 74.3134 18.6873 73.9494C20.3341 73.568 21.2008 72.1986 21.8595 70.6385C22.6049 68.853 23.1423 66.9809 23.4543 65.0741C23.9223 66.2008 24.529 67.4316 25.2398 68.4196C26.8519 70.6731 29.2961 71.9906 31.6016 71.8346C34.6525 71.6092 36.8713 68.9917 37.738 66.4955C38.2581 65.0047 38.4141 63.4446 38.5181 61.8498C40.1129 65.0567 43.7012 68.8357 47.2894 68.8877C49.4736 81.7153 51.1897 93.0522 51.0684 96.3631C46.8561 96.1551 24.5984 94.959 17.2312 92.7575L14.2843 72.0946V72.1119ZM82.7735 82.6341C80.2946 84.0902 66.9989 91.7174 52.5418 96.1378C52.5418 92.0468 50.791 80.6233 48.7455 68.6797C50.9644 67.865 52.3165 64.7967 52.8712 62.4912C53.1659 61.2604 53.3046 59.995 53.3739 58.7296C54.31 60.5324 55.298 61.9538 56.3555 63.0459C58.609 65.3861 61.7119 66.3222 64.2601 65.4554C66.3229 64.762 68.2644 62.8032 69.0444 59.475C69.3218 58.3136 69.4258 57.1521 69.4951 56.0254C69.7205 56.5801 69.9632 57.2388 70.2405 57.8282C71.1939 59.8737 73.0487 62.1792 75.2155 62.9246C76.2383 63.2713 77.2437 63.2366 78.1971 62.8726C78.4571 62.7686 78.7345 62.7339 79.2719 62.2485C79.5145 62.0405 79.8092 61.7285 80.0519 61.3298L82.7735 82.5994V82.6341Z" fill="#4E517E"/>
<path d="M35.1724 91.3881L20.2126 89.4814C19.8139 89.4293 19.4499 89.7067 19.3979 90.1227C19.3459 90.5214 19.6232 90.8855 20.0392 90.9375L34.999 92.8443C35.3977 92.8963 35.7618 92.6189 35.8138 92.2029C35.8658 91.8042 35.5884 91.4402 35.1724 91.3881Z" fill="#D9AE63"/>
<path d="M39.3677 91.8906L37.2876 91.7519C36.8889 91.7172 36.5248 92.0292 36.5075 92.4453C36.4728 92.844 36.7849 93.208 37.2009 93.2254C39.3851 93.364 39.2811 93.3814 39.4197 93.364C39.7491 93.312 40.0264 93.0347 40.0438 92.688C40.0785 92.2893 39.7664 91.9252 39.3504 91.9079L39.3677 91.8906Z" fill="#D9AE63"/>
<path d="M63.3415 68.0383L54.0328 69.6851C53.0967 69.8411 52.4554 70.7251 52.594 71.6959L55.4369 90.0879C55.6276 91.232 56.841 91.8561 57.8118 91.44C57.8984 91.4054 66.9645 87.8864 66.8605 87.9211C67.6232 87.6091 68.0739 86.829 67.9699 86.0316L65.4217 69.4944C65.2657 68.541 64.3469 67.8476 63.3762 68.0383H63.3415ZM66.2884 86.569L64.0002 87.4531C64.0002 87.1237 63.8962 86.7077 61.452 70.7598C61.4 70.3958 61.14 70.1184 60.8107 69.9797L63.5842 69.4944C63.7402 69.477 63.8616 69.5984 63.8962 69.7371L66.4444 86.257C66.4618 86.3957 66.3751 86.5343 66.2537 86.5863L66.2884 86.569Z" fill="#4E517E"/>
<path d="M3.72695 45.6416L0.762725 45.5203C0.364028 45.5203 0.0173347 45.815 0 46.231C0 46.6297 0.294689 46.9764 0.710721 46.9937C3.81362 47.1151 3.67495 47.1324 3.79629 47.115C4.14298 47.063 4.403 46.7857 4.42034 46.4217C4.42034 46.023 4.12565 45.6763 3.70962 45.6589L3.72695 45.6416Z" fill="#D9AE63"/>
<path d="M3.53507 41.2562C3.25771 40.9615 2.78968 40.9442 2.49499 41.2216C2.2003 41.4989 2.18297 41.9669 2.46032 42.2616L3.9511 43.8564C4.22845 44.1511 4.69649 44.1684 4.99118 43.8911C5.28587 43.6137 5.3032 43.1457 5.02585 42.851L3.53507 41.2562Z" fill="#D9AE63"/>
</svg>
