<svg width="106" height="96" viewBox="0 0 106 96" fill="none" xmlns="http://www.w3.org/2000/svg">
<path d="M1.3654 50.4025C1.3654 50.4025 1.47222 50.4025 1.52563 50.4025C3.58197 50.2957 5.61166 50.0553 7.66801 49.7882C7.13389 52.4321 6.62644 55.076 6.11903 57.7199C5.90538 59.1887 4.89061 63.4082 5.58496 64.5298C5.82531 64.7435 6.06566 64.8503 6.25261 64.8503C7.29413 64.8503 7.69465 62.1797 7.935 61.3785C8.33559 59.6961 8.76294 58.0403 9.16353 56.3579C9.67094 54.0345 10.205 51.7111 10.7124 49.3877C11.9409 49.2274 13.1694 49.0672 14.3978 48.9871C16.5877 48.7734 18.7776 48.5331 20.9674 48.2927C21.4214 51.3372 21.8755 54.3549 22.4096 57.3727C22.5965 58.4943 22.7834 59.616 22.9704 60.7109C23.1306 61.7791 23.2642 62.9008 23.5846 63.9423C23.7449 64.5031 24.3057 64.877 24.8932 64.7969C25.454 64.7168 25.9615 64.2094 25.9348 63.6218C25.8546 62.5002 25.6143 61.3786 25.4006 60.2836C25.0534 58.521 24.7063 56.7585 24.3324 54.9692C23.8517 52.6725 23.4244 50.3491 23.0238 48.0257C24.4392 47.8654 25.8279 47.6785 27.2433 47.4915C28.8991 47.2245 28.5519 44.7943 26.8961 44.9812C25.454 45.088 24.0119 45.1948 22.5698 45.3017C22.463 44.6874 22.3562 44.0465 22.2761 43.4323C21.3681 37.6104 20.2197 31.8152 19.2583 25.9934C18.8043 23.9637 18.3503 18.3021 15.0922 19.9045C14.1041 20.5721 13.9706 21.854 13.6768 22.9222C13.0092 25.6729 12.3415 28.4236 11.7273 31.201C10.4721 36.4354 9.32377 41.6964 8.25554 46.9841C6.03896 47.358 3.82235 47.8387 1.63247 48.3728C1.15177 48.5331 0.564217 48.6399 0.270454 49.1206C-0.130133 49.9485 0.64437 50.4559 1.39213 50.4292L1.3654 50.4025ZM16.3207 25.4593C18.3503 32.0022 19.4986 38.7053 20.5401 45.4352C17.469 45.7023 14.3978 46.0227 11.3533 46.45C12.9557 39.4264 14.6115 32.4295 16.2939 25.4593H16.3207Z" fill="#4E517E"/>
<path d="M28.2577 11.8658C28.9521 11.6788 29.139 10.7975 29.6731 10.3435C30.5277 9.38213 31.4357 8.44742 32.3971 7.56613C32.0232 13.6818 32.0766 19.8775 31.8897 25.9931C31.8363 29.5984 31.8363 33.177 31.7294 36.7822C31.863 38.171 31.222 39.9603 32.13 41.1353C32.3971 41.4291 32.771 41.5626 33.1448 41.5626C33.8659 41.5626 34.587 41.0552 34.6671 40.2807C34.6671 40.2006 34.6671 40.1472 34.6671 40.0671C35.0944 40.1472 35.5217 40.1739 35.949 40.2006C36.5632 40.2273 37.1774 40.254 37.8184 40.254C40.1685 40.254 42.5453 40.0136 44.7619 39.1591C50.2366 37.1294 55.5243 31.361 53.7617 25.1919C52.5332 20.5718 47.4859 17.6876 42.8391 18.5689C55.1771 7.11212 45.4562 -3.43666 34.6671 2.91932C34.6404 2.3852 34.5869 1.85109 34.5602 1.34368C34.6404 0.328857 33.0915 0.195323 32.9312 1.13003C32.7977 2.19826 32.6909 3.26649 32.584 4.36142C32.0232 4.81542 31.4357 5.32283 30.8749 5.88365C30.0737 6.68483 25.5872 11.5453 28.2043 11.8925L28.2577 11.8658ZM45.9903 21.106C49.7024 21.8003 52.2395 26.0465 50.7974 29.5984C49.2485 33.5776 45.2693 36.3016 41.21 37.2096C39.127 37.6368 36.9638 37.7971 34.854 37.5567C34.854 36.8357 34.8807 36.0879 34.9074 35.3668C34.9875 31.4945 35.0143 27.5955 35.0143 23.7231C35.6018 23.6697 36.1359 23.2157 36.6433 22.9487C39.5809 21.7736 42.7856 20.5184 45.9903 21.106ZM36.1092 4.97567C39.0736 3.48014 43.8539 2.99944 45.6432 6.41778C47.0319 9.7293 44.5749 13.2277 42.5186 15.7114C40.4355 18.0081 38.0587 20.1178 35.1478 21.2929C35.1211 21.2929 35.0677 21.3196 35.041 21.3463C35.041 16.1387 35.1211 10.9043 34.9074 5.69671C35.308 5.45636 35.7086 5.21602 36.1359 5.00238L36.1092 4.97567Z" fill="#4E517E"/>
<path d="M44.8422 55.0756C41.3972 63.2476 44.5218 74.6777 54.3228 76.0397C54.8303 76.1198 55.3643 76.1732 55.8717 76.1732C59.6373 76.1732 63.2692 74.01 65.4324 70.9389C65.8864 70.111 64.8449 69.3098 64.1772 69.9508C59.6906 74.8112 50.9312 74.0367 48.047 67.8677C45.2429 62.0458 47.1656 54.6216 51.8391 50.322C54.6967 47.7849 58.6758 46.3428 62.1209 48.6395C62.4948 48.8799 62.8152 49.1737 63.2692 49.2538C64.6312 49.3606 64.6579 47.7048 63.9369 46.9037C62.7618 45.4348 60.8924 44.6871 59.0497 44.4734C52.6938 43.8058 46.952 49.414 44.869 55.0222L44.8422 55.0756Z" fill="#4E517E"/>
<path d="M102.944 24.1648C102.631 24.0541 102.308 23.9684 101.99 23.9096C101.406 23.7973 100.817 23.737 100.228 23.6767C99.3507 23.6131 98.4648 23.4611 97.5876 23.6513C96.6775 23.8207 96.1604 24.5116 95.856 25.3469C95.7923 25.5417 95.7208 25.727 95.6571 25.9217C95.632 25.9104 95.6052 25.9164 95.5801 25.9051C95.374 25.8665 95.1601 25.8183 94.9546 25.8585C94.7146 25.8952 94.5547 26.0889 94.5143 26.3123C94.4935 26.3452 94.4804 26.3876 94.4595 26.4205C94.4255 26.4958 94.4071 26.5902 94.3809 26.675C94.3547 26.7599 94.3363 26.8542 94.3196 26.9313C94.2846 27.1028 94.2417 27.2647 94.2067 27.4361C93.7583 29.4208 93.3351 31.4167 92.9041 33.4031C92.403 35.7324 91.8923 38.0695 91.3834 40.3892C90.8763 42.6917 90.3865 44.9959 89.8793 47.2983C89.3669 49.6527 88.864 51.9994 88.3515 54.3538C87.8426 56.6735 87.351 58.9951 86.8594 61.3166C86.3565 63.6632 85.8632 66.0021 85.3794 68.3332C84.8938 70.6816 84.4005 73.0204 83.9495 75.3724C83.7285 76.505 83.5075 77.6377 83.2864 78.7704C83.1759 79.3367 83.0636 79.9204 82.9531 80.4867C82.8961 80.7872 82.8486 81.0799 82.8011 81.3726C82.788 81.4151 82.7827 81.467 82.7791 81.5017C82.7505 81.525 82.7123 81.5561 82.6992 81.5985C82.5114 81.8944 82.5529 82.2574 82.5808 82.5841C82.6032 82.9628 82.643 83.3432 82.6924 83.7159C82.8432 85.1492 83.0841 86.5567 83.4308 87.9576C83.6983 89.1053 83.9797 90.2894 84.2532 91.464C84.5261 92.5597 84.6056 93.7494 85.2427 94.7074C85.525 95.1127 86.1146 95.2518 86.5079 94.9158C86.8326 94.6514 87.0466 94.2708 87.2744 93.9265C87.7944 93.122 88.3473 92.3384 88.9002 91.5548C90.0441 89.9565 91.2383 88.3809 92.4886 86.8547C92.7893 86.4829 93.0917 86.0938 93.3923 85.722C93.641 85.3448 94.1913 84.9286 94.0158 84.4205C94.0158 84.4205 94.0158 84.4205 94.008 84.4109C94.0359 84.3088 94.0639 84.2066 94.0823 84.1122C94.3744 82.9693 94.6068 81.8115 94.8738 80.6573C95.1408 79.5031 95.4 78.3393 95.6497 77.1833C96.1622 74.8289 96.6477 72.4805 97.1255 70.1226C97.6034 67.7646 98.0794 65.424 98.5572 63.066C99.0254 60.7159 99.5033 58.3579 99.9715 56.0077C100.443 53.6229 100.915 51.2381 101.387 48.8532C101.857 46.4857 102.329 44.1009 102.799 41.7334C103.258 39.391 103.724 37.0581 104.183 34.7157C104.412 33.5926 104.623 32.4677 104.852 31.3446C104.922 31.0017 104.984 30.6492 105.054 30.3063C105.076 30.1773 105.098 30.0483 105.12 29.9192C105.137 29.8422 105.154 29.7651 105.162 29.6785C105.168 29.6265 105.171 29.5919 105.167 29.5477C105.174 29.4784 105.191 29.4013 105.198 29.332C105.213 29.2723 105.21 29.2108 105.225 29.151C105.238 29.1086 105.242 29.074 105.245 29.0393C105.253 28.97 105.25 28.9085 105.24 28.8374C105.199 28.5532 104.966 28.3455 104.701 28.2921C104.666 28.2885 104.631 28.285 104.597 28.2814C104.546 28.2588 104.504 28.2457 104.462 28.2326C104.437 28.2213 104.411 28.2099 104.377 28.2064C104.418 28.1406 104.452 28.0653 104.477 27.9978C105.158 26.2997 104.784 24.826 102.969 24.1762L102.944 24.1648ZM83.5052 81.8473C83.548 81.6854 83.5986 81.5331 83.6319 81.3789C83.7212 81.0205 83.8104 80.662 83.8996 80.3036C84.4629 78.0506 85.0012 75.7864 85.5221 73.5204C86.0674 71.1869 86.5972 68.8342 87.1252 66.4989C87.6532 64.1636 88.1716 61.8361 88.6823 59.499C89.2008 57.1715 89.7019 54.8422 90.2203 52.5146C90.7388 50.1871 91.2399 47.8578 91.7506 45.5207C92.2595 43.2009 92.7589 40.889 93.2678 38.5692C93.6637 36.7542 94.0596 34.9393 94.4556 33.1244C95.5829 33.3974 96.6989 33.6955 97.8245 33.9858C97.7781 34.1823 97.7222 34.3867 97.6853 34.5755C97.5724 35.0803 97.4499 35.5929 97.3291 36.0881C97.1198 37.0207 96.901 37.961 96.7013 38.8858C96.2596 40.9762 95.818 43.0665 95.3763 45.1568C94.9329 47.2645 94.4721 49.3704 94.0365 51.4876C93.5895 53.6299 93.1503 55.7817 92.7111 57.9336C92.2737 60.0681 91.8459 62.1949 91.4084 64.3294C90.9675 66.4986 90.536 68.66 90.1028 70.8387C89.6958 72.9326 89.2889 75.0265 88.8896 77.1299C88.6966 78.1604 88.5017 79.2082 88.3087 80.2387C88.2095 80.78 88.112 81.3039 88.0129 81.8451C87.9689 82.1032 87.925 82.3613 87.8733 82.6098C87.8679 82.6618 87.8548 82.7042 87.8495 82.7562C86.7282 82.51 85.5973 82.2717 84.4682 82.016C84.3469 82.0036 84.2196 81.9643 84.0924 81.925C84.0075 81.8988 83.9054 81.8708 83.8188 81.862C83.6993 81.8322 83.5685 81.8276 83.461 81.8516L83.5052 81.8473ZM88.6886 82.597C88.7647 82.281 88.8503 81.9572 88.9187 81.6316C89.4028 79.5543 89.8868 77.4771 90.3631 75.3903C90.8317 73.294 91.3002 71.1977 91.7513 69.0995C92.2139 66.9763 92.6686 64.8436 93.1311 62.7204C93.5877 60.5703 94.0537 58.4124 94.5025 56.2528C94.959 54.1027 95.4077 51.9431 95.8565 49.7835C96.2808 47.6914 96.7051 45.5993 97.139 43.4994C97.3607 42.4455 97.5651 41.3899 97.7868 40.3361C97.9954 39.3247 98.2058 38.296 98.3971 37.2828C98.5147 36.6472 98.6245 36.002 98.7517 35.3586C98.7939 35.1178 98.8438 34.8867 98.8937 34.6555C98.9139 34.5437 98.9341 34.432 98.9543 34.3203C98.9579 34.2857 98.9692 34.2606 98.9632 34.2337C100.125 34.5102 101.299 34.7617 102.481 34.9265C102.515 34.9301 102.56 34.9259 102.602 34.939C102.418 35.8829 102.235 36.8094 102.051 37.7533C101.583 40.1035 101.132 42.4554 100.664 44.8056C100.194 47.1731 99.7409 49.5424 99.2709 51.9099C98.8104 54.2696 98.3482 56.6467 97.8877 59.0064C97.4236 61.4008 96.9596 63.7951 96.5051 66.1817C96.0429 68.5588 95.5979 70.9376 95.1626 73.3087C94.7212 75.6529 94.3066 77.991 93.9172 80.3405C93.7967 81.0897 93.6589 81.837 93.5367 82.6034C93.4708 82.9905 93.4049 83.3776 93.3563 83.7665C93.3361 83.8782 93.3254 83.9822 93.3053 84.0939C93.1624 84.0355 93.0083 84.0022 92.8733 83.9533C92.2197 83.7551 91.5451 83.5898 90.8706 83.4244C90.1209 83.2251 89.3598 83.0509 88.5986 82.8766C88.6266 82.7745 88.6546 82.6723 88.6748 82.5606L88.6886 82.597ZM103.729 29.1466C103.729 29.1466 103.781 29.1519 103.798 29.1537C103.785 29.1961 103.78 29.2481 103.767 29.2905C103.744 29.3407 103.722 29.3909 103.707 29.4506C103.694 29.493 103.688 29.545 103.675 29.5874C103.645 29.7069 103.623 29.8359 103.594 29.9554C103.527 30.2637 103.468 30.5815 103.402 30.8898C103.203 31.8934 103.004 32.897 102.814 33.8929C101.418 33.426 99.9666 33.0674 98.5363 32.6758C97.8601 32.5278 97.1856 32.3624 96.4997 32.2222C95.9083 32.1003 95.3229 32.0054 94.7261 31.9355C94.7463 31.8238 94.7743 31.7216 94.7945 31.6099C95.0257 30.5483 95.2665 29.4789 95.4978 28.4173C95.5626 28.1264 95.6274 27.8354 95.6827 27.5523C95.7047 27.4232 95.7362 27.2864 95.7581 27.1574C95.843 27.1836 95.92 27.2002 96.0049 27.2264C96.404 27.3461 96.8031 27.4657 97.204 27.568C99.3458 28.19 101.515 28.806 103.723 29.1197L103.729 29.1466ZM85.9385 93.5534C85.7206 93.0321 85.6023 92.4774 85.4668 91.9209C85.3546 91.393 85.225 90.8633 85.105 90.3259C85.2549 90.315 85.403 90.3214 85.5512 90.3278C86.3862 90.3783 87.2028 90.5233 88.029 90.6604C87.3103 91.6108 86.6166 92.5725 85.9385 93.5534ZM88.6661 89.8241C88.4808 89.7526 88.292 89.7158 88.1492 89.6574C87.9198 89.5902 87.6982 89.5324 87.4574 89.4903C86.9431 89.3851 86.4138 89.3397 85.8793 89.3462C85.6601 89.35 85.2485 89.3516 84.8819 89.4278C84.513 87.9022 84.1554 86.3514 83.8905 84.8364C83.7674 84.1586 83.6711 83.4748 83.5922 82.7927C86.5998 83.6784 89.6067 84.4853 92.7106 84.9432C92.4231 85.2726 92.1433 85.6116 91.8558 85.9409C90.7551 87.2023 89.6855 88.5019 88.6661 89.8241ZM101.821 27.5245C100.146 27.1255 98.4937 26.5973 96.8209 26.181C96.8244 26.1463 96.8358 26.1212 96.8393 26.0866C96.9161 25.8494 97.0031 25.6832 97.1319 25.4514C97.4539 24.8717 98.1305 24.8447 98.7153 24.8608C99.5945 24.9071 100.451 25.0036 101.322 25.1365C102.031 25.3054 102.97 25.4454 103.288 26.1869C103.426 26.7261 103.296 27.308 103.31 27.8521C103.31 27.8521 103.308 27.8694 103.307 27.8867C102.804 27.7565 102.299 27.6435 101.804 27.5227L101.821 27.5245Z" fill="#D9AE63"/>
</svg>
