<svg width="137" height="86" viewBox="0 0 137 86" fill="none" xmlns="http://www.w3.org/2000/svg">
<path d="M0.432654 70.7885C0.253307 71.1984 0.605123 71.5851 0.982493 71.6349C6.78723 72.4356 12.5983 73.1521 18.4369 73.7859C24.2544 74.4182 30.0978 74.9888 35.9492 75.4543C39.0231 75.6876 42.1179 75.9226 45.1918 76.156C44.9043 76.8753 44.8921 77.5943 45.4773 78.2528C45.9653 78.7981 46.6846 79.0856 47.3666 79.3068C48.2365 79.5634 49.1565 79.718 50.0586 79.8288C51.7575 80.0425 53.4919 80.0683 55.2021 80.1346C56.3422 80.1788 57.4953 80.3299 58.6306 80.4373C60.3571 80.5683 62.0835 80.6994 63.8309 80.8321C70.5325 81.2562 77.2563 81.3855 83.9736 81.3238C90.7961 81.27 97.6103 81.0462 104.426 80.8014C108.185 80.6632 111.917 80.036 115.625 79.4494C116.824 79.2652 118.023 79.1021 119.205 78.8742C119.462 78.8302 119.619 78.715 119.781 78.5367C120.146 78.1833 120.492 77.8073 120.858 77.4539C123.98 74.2606 127.065 71.0009 129.949 67.5989C130.672 66.7221 131.395 65.8453 132.078 64.9442C132.243 64.7238 132.228 64.3627 132.032 64.1572C129.417 61.5024 126.568 59.1474 123.675 56.8102C120.681 54.4019 117.759 51.8931 114.816 49.3827C108.751 44.2002 102.754 38.9593 96.5043 33.9745C92.9891 31.1878 89.4043 28.4805 85.724 25.9141C85.6835 25.8899 85.643 25.8656 85.6025 25.8414C85.3968 25.7622 85.2041 25.79 85.0488 25.884C84.9614 25.9197 84.8918 25.9992 84.8238 26.0575C82.3134 29.0009 79.8451 31.9474 77.3737 34.936C77.3542 34.9134 77.3137 34.8891 77.2943 34.8665C70.6563 29.9793 64.3694 24.6528 58.4981 18.8709C55.5625 15.98 52.7191 12.9901 49.989 9.90304C49.287 9.10861 48.606 8.31578 47.9251 7.52295C47.3025 6.79808 46.7026 6.05375 46.0347 5.36779C44.7347 4.08328 42.9845 2.87045 41.0822 3.38245C39.3094 3.86194 38.2357 5.45328 37.238 6.88097C36.0041 8.62953 34.7897 10.4007 33.5964 12.1735C31.1886 15.7176 28.8408 19.3085 26.5546 22.9253C21.961 30.1573 17.6106 37.5348 13.4837 45.0351C9.35521 52.5565 5.45198 60.1797 1.79176 67.9483C1.33926 68.888 0.906225 69.8504 0.453728 70.7901L0.432654 70.7885ZM103.72 41.5737C109.749 46.6688 115.659 51.9454 121.78 56.9416C124.832 59.4179 127.887 61.8521 130.683 64.6266C127.937 68.1661 124.872 71.4484 121.769 74.6644C120.918 75.5527 120.068 76.4199 119.219 77.2871C114.886 70.775 110.573 64.2644 106.24 57.7522C101.908 51.219 97.5741 44.7069 93.2211 38.172C90.9782 34.8043 88.7351 31.4365 86.4938 28.0477C92.4412 32.2685 98.1266 36.8716 103.72 41.5737ZM84.9342 27.9505C84.9342 27.9505 84.9326 27.9716 84.9521 27.9942C89.284 34.5274 93.6175 41.0396 97.9705 47.5744C102.302 54.1076 106.636 60.6198 110.989 67.1546C113.345 70.7004 115.683 74.2235 118.039 77.7693C117.889 77.8002 117.761 77.8116 117.61 77.8426C114.03 78.4178 110.427 79.0125 106.82 79.395C105.902 79.4947 105.328 79.5147 104.436 79.5528C102.716 79.6128 100.997 79.6728 99.277 79.7328C95.9444 79.8398 92.6344 79.9273 89.3049 79.9922C82.7092 80.1267 76.1247 80.1138 69.5173 79.8451C66.1601 79.7172 62.8094 79.5052 59.4424 79.2284C57.4423 79.0765 55.4454 78.8826 53.4405 78.7939C51.6672 78.7228 49.8307 78.6469 48.1072 78.1984C47.7541 78.108 47.4025 77.9967 47.0542 77.8432C46.8905 77.7672 46.91 77.7899 46.7285 77.6702C46.6685 77.6233 46.607 77.5975 46.5681 77.5522C46.526 77.549 46.5081 77.5052 46.4887 77.4826C46.4497 77.4373 46.4108 77.392 46.3719 77.3467C46.3719 77.3467 46.3719 77.3467 46.3541 77.303C46.3557 77.2819 46.3168 77.2366 46.3184 77.2156C46.3216 77.1735 46.3231 77.1524 46.3053 77.1087C46.3037 77.1298 46.3197 76.9192 46.3117 77.0245C46.3181 76.9403 46.3666 76.8592 46.394 76.7766C46.4732 76.5709 46.5702 76.4089 46.6899 76.2274C47.2444 75.3378 47.9821 74.5468 48.676 73.7736C49.5576 72.7606 50.3192 71.6538 51.1198 70.5923C53.1478 67.8664 55.1953 65.1632 57.2428 62.46C61.3798 57.0568 65.5557 51.6989 69.8111 46.4106C74.0665 41.1222 78.3608 35.8792 82.7361 30.6846C83.4818 29.7884 84.2485 28.8937 84.9926 28.0185L84.9342 27.9505ZM47.5915 9.12812C50.2374 12.2088 52.9966 15.1923 55.8496 18.0558C61.5734 23.8265 67.6872 29.2033 74.1535 34.1198C74.9541 34.7312 75.7547 35.3425 76.5779 35.9344C74.899 37.9668 73.2201 39.9992 71.5606 42.0542C68.8515 45.3848 66.1812 48.7607 63.5109 52.1366C61.0594 45.9367 58.5221 39.7515 55.8958 33.623C53.1429 27.2097 50.3221 20.8547 47.3701 14.5533C45.843 11.2399 44.2705 7.96543 42.6786 4.66829C42.9896 4.75543 43.2974 4.8847 43.581 5.05445C45.2224 6.02608 46.3657 7.70102 47.5704 9.12652L47.5915 9.12812ZM25.6773 26.6702C27.8956 23.1118 30.1544 19.5777 32.4731 16.0904C33.6665 14.3176 34.8615 12.5237 36.0743 10.7735C36.6693 9.90818 37.2644 9.04283 37.8579 8.19853C38.3802 7.4547 38.8847 6.66717 39.4881 5.97184C39.9539 5.41431 40.5655 4.88903 41.26 4.66648C44.2815 10.8885 47.1946 17.1445 50.0397 23.459C52.8816 29.8156 55.6572 36.2095 58.3016 42.6569C59.769 46.1987 61.1944 49.7373 62.5955 53.3164C61.2838 54.9744 59.9916 56.655 58.6994 58.3356C56.5855 61.0761 54.4701 63.8377 52.3951 66.6235C50.6307 68.9459 48.9846 71.3831 47.0597 73.5874C46.7346 73.965 46.2962 74.4399 45.8951 74.9812C40.0373 74.6 34.207 74.1362 28.3621 73.5865C22.5171 73.0369 16.6996 72.4047 10.8868 71.7092C7.90677 71.3559 4.95097 70.9621 1.97411 70.5667C5.43872 63.1432 9.10904 55.7987 13.0014 48.5982C17.0166 41.1741 21.2328 33.8923 25.6936 26.735L25.6773 26.6702Z" fill="#4E517E"/>
<path d="M75.7555 47.5818C78.2753 47.5825 80.8178 47.5638 83.3376 47.5646C83.676 47.5691 83.9899 47.3388 84.0171 46.9809C84.0411 46.6651 83.7719 46.3058 83.4335 46.3013C80.9137 46.3006 78.3712 46.3193 75.8514 46.3186C75.513 46.314 75.199 46.5443 75.1719 46.9022C75.1479 47.218 75.417 47.5773 75.7555 47.5818Z" fill="#D9AE63"/>
<path d="M88.4818 59.5805L95.0085 60.076C95.8296 60.1384 95.9255 58.8751 95.1044 58.8128L88.5777 58.3173C87.7566 58.2549 87.6607 59.5182 88.4818 59.5805Z" fill="#4E517E"/>
<path d="M62.3996 66.4726C64.9293 66.6223 67.4379 66.7705 69.9659 66.9412C70.787 67.0036 70.8845 65.7193 70.0618 65.678C67.5322 65.5283 65.0236 65.3802 62.4955 65.2094C61.6744 65.1471 61.5769 66.4313 62.3996 66.4726Z" fill="#D9AE63"/>
<path d="M89.3742 72.6918C92.0733 72.2826 94.7922 72.1714 97.5292 72.3792C98.3503 72.4416 98.4462 71.1783 97.6251 71.116C94.8039 70.9018 91.936 71.0229 89.13 71.4451C88.3156 71.5738 88.5598 72.8205 89.3742 72.6918Z" fill="#4E517E"/>
<path d="M35.5746 22.0854L42.4381 22.6064C43.2592 22.6688 43.3551 21.4056 42.534 21.3432L35.6705 20.8221C34.8494 20.7598 34.7535 22.023 35.5746 22.0854Z" fill="#4E517E"/>
<path d="M26.2424 35.9455C28.0773 36.0425 29.9121 36.1394 31.7454 36.2574C32.5665 36.3198 32.664 35.0355 31.8413 34.9942C30.0064 34.8973 28.1716 34.8003 26.3383 34.6823C25.5172 34.62 25.4197 35.9042 26.2424 35.9455Z" fill="#4E517E"/>
<path d="M44.0883 41.8742L52.1519 42.4864C52.973 42.5488 53.0689 41.2855 52.2478 41.2232L44.1842 40.611C43.3631 40.5486 43.2672 41.8119 44.0883 41.8742Z" fill="#D9AE63"/>
<path d="M39.2023 47.1147C36.1673 46.9267 33.1324 46.7386 30.099 46.5295C29.2779 46.4671 29.1804 47.7514 30.0031 47.7927C33.0381 47.9808 36.073 48.1689 39.1064 48.378C39.9275 48.4403 40.025 47.156 39.2023 47.1147Z" fill="#D9AE63"/>
<path d="M13.3225 56.0763C16.0643 56.2209 18.8256 56.3882 21.5674 56.5329C22.3885 56.5952 22.486 55.3109 21.6633 55.2697C18.9215 55.125 16.1602 54.9577 13.4184 54.8131C12.5973 54.7507 12.4998 56.035 13.3225 56.0763Z" fill="#4E517E"/>
<path d="M49.7589 60.346C47.6388 60.1003 45.5415 59.8352 43.4214 59.5895C42.6035 59.4851 42.506 60.7694 43.3255 60.8528C45.4455 61.0984 47.5429 61.3635 49.663 61.6092C50.4809 61.7136 50.5784 60.4293 49.7589 60.346Z" fill="#4E517E"/>
</svg>
